<?xml version="1.0" encoding="UTF-8"?>
<svg id="Layer_2" data-name="Layer 2" xmlns="http://www.w3.org/2000/svg" viewBox="0 0 106.68 102.78">
  <defs>
    <style>
      .cls-1 {
        stroke: #ffe865;
        stroke-width: 6.37px;
      }

      .cls-1, .cls-2 {
        fill: none;
        stroke-miterlimit: 10;
      }

      .cls-2 {
        stroke: #f569a3;
        stroke-width: 29.14px;
      }
    </style>
  </defs>
  <g id="Layer_1-2" data-name="Layer 1">
    <g>
      <g>
        <path class="cls-2" d="M55.53,53.62c-3.13-6.27-7.22-16.52-8.15-29.7-.59-8.4.28-15.6,1.38-21.02"/>
        <path class="cls-2" d="M76.11,17.01c-1.03,4.32-3.13,10.68-7.67,17.22-7.38,10.65-16.97,15.67-21.61,17.73"/>
        <path class="cls-2" d="M49.24,57.21c7.01-.11,18.02.64,30.3,5.52,7.83,3.11,13.94,7.01,18.35,10.35"/>
        <path class="cls-2" d="M73.85,91.21c-3.53-2.7-8.47-7.21-12.6-14.02-6.72-11.08-7.4-21.88-7.39-26.96"/>
        <path class="cls-2" d="M50.1,53c-6.55-2.51-17.14-5.59-30.35-5.23-8.42.23-10.2.87-15.49,2.49"/>
        <path class="cls-2" d="M20.25,74.38c4.24-1.32,5.14-1.48,11.36-6.45,10.12-8.09,14.48-17.99,16.22-22.77"/>
      </g>
      <g>
        <path class="cls-1" d="M53.2,43.71c-.06-.94-.16-4.47,2.35-7.67,1.78-2.28,4-3.23,5.01-3.6"/>
        <path class="cls-1" d="M41.79,51.97c-1.64-.46-4.52-1.01-7.99-.37-2.01.37-3.63,1.04-4.8,1.64"/>
        <path class="cls-1" d="M55.34,56.19c.35.81,1.08,2.15,2.5,3.29,2.65,2.14,5.72,1.96,6.49,1.9"/>
      </g>
    </g>
  </g>
</svg>