<?xml version="1.0" encoding="UTF-8"?>
<svg id="Layer_2" data-name="Layer 2" xmlns="http://www.w3.org/2000/svg" viewBox="0 0 2750.56 262.23">
  <defs>
    <style>
      .cls-1 {
        fill: #9e9792;
      }

      .cls-2 {
        fill: #057640;
      }
    </style>
  </defs>
  <g id="Layer_1-2" data-name="Layer 1">
    <g>
      <polygon class="cls-2" points=".5 261.73 .5 40.3 323.05 66.9 813.91 20.51 1375.31 60.35 2093.82 .51 2750.06 66.94 2750.06 261.73 .5 261.73"/>
      <path class="cls-1" d="M2093.86,1l655.7,66.39v193.84H1V40.85l322,26.55,490.95-46.39,561.32,39.84L2093.86,1M2093.87,0h-.09s-718.51,59.84-718.51,59.84L814.03,20.01h-.08s-.08,0-.08,0l-490.86,46.38L1.08,39.85l-1.08-.09v222.47h2750.56V66.49l-.9-.09L2093.96,0h-.09Z"/>
    </g>
  </g>
</svg>