<?xml version="1.0" encoding="UTF-8"?>
<svg id="Layer_2" data-name="Layer 2" xmlns="http://www.w3.org/2000/svg" viewBox="0 0 364.28 77.22">
  <defs>
    <style>
      .cls-1 {
        fill: #1a1a1a;
      }
    </style>
  </defs>
  <g id="Layer_1-2" data-name="Layer 1">
    <g>
      <path class="cls-1" d="M31.17,23.79c-3.42,0-7.73-.73-11.05.16s-3.87,4.06-4.78,6.94c-1.74,5.49-4.34,13.7,1.78,17.39,1.84,1.11,4.33,2.02,6.52,1.91,2.62-.14,3.97-1.99,6.1-3.21s3.62.27,5.59-.47c2.88-1.08,3.34-7.07,4.14-9.77l-6.21-1.9c1.05,2.97,2.58,5.15,5,7.17.65.54,5.47,3.07,5.97,1.58,2.97-8.76,5.8-20.03-2.8-26.66-7.24-5.59-15.98-3.86-23.58-.16C8.92,21.12.66,27.84.04,38.49c-.54,9.19,4.42,17.28,12.87,20.79,2.3.96,6.47.66,2.24-1.1-7.29-3.03-9.78-12.77-8.59-19.84s5.8-12.31,11.72-16.03c5.54-3.49,16.66-10.14,20.94-2.32,3.7,6.77,1.06,14.68-1.23,21.43l5.97,1.58c-2.17-1.82-3.57-3.88-4.51-6.54-.36-1.02-5.81-3.23-6.21-1.9-.63,2.11-1.04,4.52-1.95,6.52-1.09,2.41-1.42,1.93-3.55,2.24-1.33.19-2.11.12-3.35.79-.7.38-3.83,3.46-4.53,3.11-.79-.39-.18-6.03,0-7.14.39-2.37,1-4.74,1.73-7.03.97-3.07,1.54-5.64,4.84-6.34,2.73-.58,5.96-.17,8.73-.17,3.07,0-2.67-2.77-3.99-2.77h0Z"/>
      <path class="cls-1" d="M72.51,21.85c-2.29-1.07-5.04-2.19-6.67.33-1.31,2.02-1.21,5.97-1.48,8.35-.38,3.38-.52,6.78-.44,10.18.14,5.78,1.34,11.17,2.24,16.85,1.13,7.14-1.97,11.86-6.37,17.13-.43.52,5.07,3.58,6.24,2.17,2.73-3.27,5.72-6.8,6.56-11.11s-.84-8.74-1.52-12.99c-.87-5.4-1.12-10.9-.78-16.36.18-2.92-.09-11.82,3.15-13.12l-4.05-.73.89.41c2.28,1.06,6.39.83,2.24-1.1h0Z"/>
      <path class="cls-1" d="M60.76,42.27c6.53-.37,13-.11,19.48.77,1.39.19,3.17-.22,4.47-.7.37-.14,2.32-.81,1.01-.99-6.83-.93-13.66-1.18-20.54-.79-1.31.07-3.5.12-4.58.93-.66.49-1.36.86.16.78h0Z"/>
      <path class="cls-1" d="M86.4.25c-.66,19.88-.46,39.77.62,59.63.1,1.84,6.28,2.81,6.24,2.17-1.07-19.86-1.28-39.75-.62-59.63.06-1.75-6.21-2.98-6.24-2.17h0Z"/>
      <path class="cls-1" d="M104.39,42c4.93-.59,10.24,1.35,14.38-2.27,2.39-2.09,6.27-6.64,6.13-10.02-.36-8.57-12.53-13.19-18.93-8.47-4.07,3-6.5,8.22-8.52,12.7-1.82,4.04-3.99,8.7-2.97,13.23,2.27,10.15,15.57,11.39,23.97,10.71,4.09-.33,1.2-5.72-1.94-5.47-4.87.39-15.1.92-15.98-5.56-.71-5.15,3.27-11.62,5.84-15.86,1.28-2.11,2.79-4.55,5.09-5.64,4.11-1.95,8.14,1.39,5.94,5.45-1.5,2.76-3.98,5.66-7.24,5.8-2.59.11-5.09-.39-7.69-.09-4.08.48-1.2,5.84,1.94,5.47h0Z"/>
      <path class="cls-1" d="M129.76,26.3c0,4.69-.02,9.39-.03,14.08,0,3.66-.69,8.02.87,11.43,2.25,4.92,8.83,9.2,14.29,9.2,13.92-.01,14.63-23.39,10.37-32.26-1.32-2.75-7.54-3.42-5.8.23,2.75,5.75,3.65,25.73-5.83,26.36-2.78.18-6.01-1.76-7.22-4.3-1.06-2.23-.59-5.15-.58-7.59.01-5.32.02-10.64.03-15.96,0-3.05-6.09-4.97-6.1-1.17h0Z"/>
      <path class="cls-1" d="M160.82,25.8c-.3,11.48-.41,22.98,3.2,34.01.47,1.45,6.44,2.8,6.18,1.63-1.27-5.62-3.15-13.43-.23-18.83,1.38-2.55,3.53-4.85,5.77-6.63.28-.22,6.21-3.72,6.21-3.39-.02,1.77,6.23,2.94,6.24,2.17.03-2.93-2.61-4.29-5.2-5-4.27-1.18-8.36.31-11.9,2.77s-7.49,6.38-8.44,10.71c-1.14,5.18.22,11.5,1.37,16.58l6.18,1.63c-3.55-10.86-3.43-22.17-3.13-33.47.05-1.76-6.22-2.97-6.24-2.17h0Z"/>
      <path class="cls-1" d="M206.25,27.23c-2.94-.72-7.36-2.82-10.4-2.08-2.55.63-3.05,3.5-3.73,5.73-1.77,5.79-2.72,13.84,2.95,17.89,2.54,1.82,5.45,1.78,8.46,1.75.72,0,4.51-.37,4.93.11.78.9-1.65,3.23-2.34,4.03-5.53,6.42-13.5,10.3-21.9,11.01-4.09.35-1.2,5.73,1.94,5.47,6.55-.55,12.77-2.57,18.22-6.29,3.47-2.36,12.14-9.2,11.27-14.14-.95-5.44-9.33-5.75-13.34-5.68-3.11.06-5.24-.41-5.49-4-.16-2.32.41-4.61,1.05-6.82.23-.83.5-1.65.78-2.46-.57-1.44-.08-1.7,1.47-.78,1.9-.11,4.66,1.15,6.52,1.61,4.19,1.03,2.82-4.55-.4-5.35h0Z"/>
      <path class="cls-1" d="M221.47,13.96c-.55,14.95-1.39,30.67,2.67,45.24,2.85,10.24,13.2,19.74,23.74,12.58,2.86-1.94-1.98-6.39-4.55-4.65-12.38,8.41-14.95-14.6-15.6-21.91-.9-10.01-.52-20.07-.16-30.1.11-3.05-5.96-4.98-6.1-1.17h0Z"/>
      <path class="cls-1" d="M221.91,39.83c4.16,0,8.31.01,12.47.02,2.72,0,6.24.69,8.44-1.27,2.62-2.33-2.24-6.7-4.55-4.65-1.68,1.5-6.78.45-8.95.44-3.12,0-6.24,0-9.35-.01-4.08,0-1.17,5.47,1.94,5.47h0Z"/>
      <path class="cls-1" d="M275.75,31.39c-7.86-.56-14.86,3.41-18.4,10.45-1.77,3.52-2.76,7.32-3.46,11.18-.54,2.98-1.72,6.86.52,9.44,4.09,4.7,12.95,1.18,16.69-2.17,6.33-5.68,8.04-16.67,10.7-24.38,1-2.91-4.86-5.82-6-2.5-1.85,5.37-3.49,10.88-5.6,16.16-1.07,2.68-2.38,5.24-4.75,7-1.84,1.36-5.8,3.48-8.14,2.33l2.31,2.32c-.99-2.09.38-6.5.87-8.63.61-2.63,1.37-5.29,2.66-7.68,3.02-5.58,8.21-8.5,14.55-8.05,4.02.29,1.11-5.25-1.94-5.47h0Z"/>
      <path class="cls-1" d="M258.52,29.55c4.29.32,8.72-.56,12.96.11,6.72,1.05,7.7,6.92,7.91,12.71.16,4.5,1.61,8.25,2.29,12.6.72,4.65-1.12,9.21-.38,13.89.5,3.13,6.73,1.21,6.32-1.4-.78-4.97,1.24-9.84.31-14.78-.58-3.06-1.86-5.79-2.12-8.94-.25-2.98-.02-5.97-.64-8.92-2.55-12-14.34-9.12-23.46-9.81-2.6-.2-7.06,4.24-3.19,4.53h0Z"/>
      <path class="cls-1" d="M289.88,4.58c-.45,21.64.65,43.25,3.3,64.73.37,3.01,6.56,4.89,6.1,1.17-2.65-21.48-3.75-43.09-3.3-64.73.06-3.05-6.02-4.98-6.1-1.17h0Z"/>
      <path class="cls-1" d="M312.32,44.66c8.07,1.53,17.04-1.62,21.19-9.06,4.57-8.21-2.82-14.9-11.06-13.69-3.35.5-9.37,1.37-11.78,4.04s-4.38,8.58-4.99,12.01c-1.62,8.98,4.76,19.96,10.86,26.01,2.64,2.61,7.17.17,4.09-2.9-4.03-3.99-6.48-8.59-7.95-14.03-.82-3.03-1.32-5.68-.39-8.72.59-1.93,1.93-6.39,3.31-7.89,1.56-1.69,5.07-2.09,7.19-2.61,2.23-.55,7.16-2.24,5.26,4.07-.23.76-1.03,1.65-1.53,2.25-3.51,4.29-9.22,6.18-14.6,5.16-4.25-.8-2.9,4.72.4,5.35h0Z"/>
      <path class="cls-1" d="M356.69,25.91c-6.17-.14-15.91,6.81-13.93,13.88,2.32,8.29,11.61,12.92,15.58,20.3l2.48-4.03c-7.7,2.78-12.75,9.76-21.57,9.12-2.93-.21-6.41,4.88-2.38,5.17s8.29-.29,12.12-2.15c4.41-2.14,7.92-5.76,12.56-7.43,1.44-.52,3.41-2.31,2.48-4.03-2.13-3.96-5.23-7.04-8.37-10.21-1.66-1.67-3.33-3.35-4.69-5.29-.59-.83-1.53-1.92-1.77-2.95-.65-2.79,1.88-7.3,5.1-7.22,2.9.07,6.4-5.08,2.38-5.17h0Z"/>
    </g>
  </g>
</svg>