<?xml version="1.0" encoding="UTF-8"?>
<svg id="Layer_2" data-name="Layer 2" xmlns="http://www.w3.org/2000/svg" viewBox="0 0 127.04 77.88">
  <defs>
    <style>
      .cls-1 {
        stroke: #057640;
        stroke-width: 31.01px;
      }

      .cls-1, .cls-2 {
        fill: none;
        stroke-miterlimit: 10;
      }

      .cls-2 {
        stroke: #39b54a;
        stroke-width: 2.94px;
      }
    </style>
  </defs>
  <g id="Layer_1-2" data-name="Layer 1">
    <g>
      <g>
        <path class="cls-1" d="M101.93,21.54c-4.29,2.04-17.04,5.28-22.54,18.43-1.4,3.34-3.04,11.34-1.45,13.27,1.42,1.71,14.02-.15,21.35-6.97,7.41-6.89,11.42-15.81,13.14-20.63"/>
        <path class="cls-2" d="M79.37,53.14c3.08-1.94,7.21-5.29,10.89-8.93,5.66-5.59,8.58-10.55,10.76-14.83"/>
      </g>
      <g>
        <path class="cls-1" d="M30.64,13c5.63,3.66,22.86,10.6,28.09,30.04,1.33,4.94,2.13,16.45-.46,18.85-2.31,2.13-19.6-2.85-28.59-13.78-9.08-11.04-13.01-24.28-14.52-31.36"/>
        <path class="cls-2" d="M56.31,61.49c-3.95-3.3-9.11-8.76-13.58-14.56-6.87-8.9-10.04-16.39-12.28-22.78"/>
      </g>
    </g>
  </g>
</svg>