<?xml version="1.0" encoding="UTF-8"?>
<svg id="Layer_2" data-name="Layer 2" xmlns="http://www.w3.org/2000/svg" viewBox="0 0 1101.06 2005.62">
  <defs>
    <style>
      .cls-1 {
        fill: #5e97f2;
      }

      .cls-2 {
        stroke-width: 91.91px;
      }

      .cls-2, .cls-3 {
        fill: none;
        stroke: #057640;
        stroke-miterlimit: 10;
      }

      .cls-3 {
        stroke-width: 77px;
      }

      .cls-4 {
        fill: #f684b1;
      }

      .cls-5 {
        fill: #fdc607;
      }
    </style>
  </defs>
  <g id="Layer_1-2" data-name="Layer 1">
    <g>
      <polyline class="cls-2" points="386.14 1525.01 435.36 1369.95 507.67 1118.85 753.71 995.83 1067.55 661.27"/>
      <polyline class="cls-2" points="849.96 870.59 670.67 694.37 611.35 252.56"/>
      <path class="cls-4" d="M793.64,252.43l82.27-22.33c7.56-2.05,12.97-8.7,13.43-16.52l11.6-194.25c.63-10.48-7.71-19.33-18.21-19.33h-209.68c-6.74,0-12.94,3.72-16.11,9.67l-31.41,59.02c-7.84,14.73-29.71,12.08-33.79-4.1l-12.84-50.82c-2.05-8.1-9.33-13.78-17.69-13.78h-192.89c-9.26,0-17.05,6.93-18.12,16.13l-19.49,167.07c-1.11,9.48,5.28,18.21,14.65,20.02l71.48,13.86c20.45,3.97,19.35,33.59-1.34,36.03l-66.08,7.79c-10.95,1.29-18.26,11.92-15.55,22.6l51.46,202.98c2.02,7.98,9.15,13.62,17.38,13.76l173,2.88c7.38.12,14.11-4.21,17.04-10.98l25.09-57.86c6.72-15.5,29.07-14.33,34.14,1.78l16.21,51.56c2.33,7.42,9.11,12.54,16.89,12.76l167.23,4.74c7.35.21,14.1-4.01,17.13-10.7l56.51-124.66c4.12-9.1.16-19.82-8.88-24.06l-126.37-59.13c-15.39-7.2-13.44-29.68,2.95-34.13Z"/>
      <path class="cls-5" d="M275.37,1539.2l14.8-146.06,278.31,11.84,14.8,134.22,206.27,117.44s21.7,189.49-76,287.19c-97.7,97.7-580.3,62.18-648.4,11.84C-2.94,1905.35.02,1674.41.02,1674.41l275.35-135.21Z"/>
      <line class="cls-3" x1="203.23" y1="1228.21" x2="432.4" y2="1352.19"/>
      <path class="cls-1" d="M251.99,1149.32l90.56,1.99c11.63.26,21.14,9.35,21.91,20.95l2.58,38.61c.86,12.83-9.21,23.76-22.07,23.95l-74.12,1.1c-14.91.22-25.46,14.64-21.17,28.92l28.6,95.08c3.21,10.67-1.89,22.09-11.99,26.81l-34.25,16.02c-12.03,5.62-26.28-.36-30.69-12.89l-21.56-61.25c-5.98-16.99-28.53-20.38-39.24-5.89l-36.78,49.78c-7.24,9.8-20.98,12.04-30.96,5.04l-56.53-39.66c-11.87-8.33-12.85-25.55-2.01-35.18l52.39-46.49c12.2-10.83,9.15-30.64-5.74-37.3l-43.64-19.5c-8.09-3.61-13.3-11.65-13.29-20.51l.02-47.94c0-15.99,16.24-26.84,31.02-20.75l65.99,27.23c11.91,4.92,25.51-1.18,29.76-13.35l32.75-93.75c4.45-12.74,19.06-18.7,31.15-12.72l40.91,20.24c9.74,4.82,14.63,15.92,11.61,26.36l-16.31,56.41c-4.1,14.16,6.34,28.36,21.08,28.69Z"/>
    </g>
  </g>
</svg>