<?xml version="1.0" encoding="UTF-8"?>
<svg id="Layer_2" data-name="Layer 2" xmlns="http://www.w3.org/2000/svg" viewBox="0 0 1136.56 2068.68">
  <defs>
    <style>
      .cls-1 {
        fill: #5e97f2;
      }

      .cls-2 {
        stroke-width: 91.91px;
      }

      .cls-2, .cls-3 {
        fill: none;
        stroke: #057640;
        stroke-miterlimit: 10;
      }

      .cls-3 {
        stroke-width: 77px;
      }

      .cls-4 {
        fill: #f684b1;
      }

      .cls-5 {
        fill: #fdc607;
      }
    </style>
  </defs>
  <g id="Layer_1-2" data-name="Layer 1">
    <g>
      <polyline class="cls-2" points="435.7 1536.61 601.16 989 820.05 907.89 1102.84 602.61"/>
      <polyline class="cls-2" points="947.62 787.58 744.72 586.33 690.9 244.17"/>
      <path class="cls-4" d="M827.9,206.32l69.84-17.53c9.13-2.29,15.72-10.22,16.31-19.61l9.2-146.2c.78-12.45-9.1-22.98-21.58-22.98h-161.53c-7.39,0-14.26,3.77-18.23,10l-34.18,53.61c-8.15,12.78-27.42,10.61-32.53-3.66l-16.33-45.62c-3.08-8.6-11.22-14.33-20.36-14.33h-147.75c-10.91,0-20.11,8.13-21.46,18.96l-15.37,124.08c-1.34,10.83,5.6,20.97,16.19,23.63l73.11,18.36c19.08,4.79,18.08,32.24-1.3,35.63l-67.11,11.75c-12.49,2.19-20.43,14.61-17.16,26.87l41.32,154.99c2.49,9.33,10.86,15.88,20.51,16.05l131.17,2.32c8.41.15,16.15-4.6,19.83-12.17l28.01-57.62c6.98-14.37,27.76-13.44,33.43,1.5l19.81,52.18c3.1,8.17,10.82,13.67,19.56,13.94l126.59,3.82c8.72.26,16.74-4.74,20.34-12.68l44.76-98.74c4.8-10.59.37-23.08-10.04-28.27l-108.78-54.28c-15.14-7.55-12.71-29.87,3.7-33.99Z"/>
      <path class="cls-5" d="M301.37,1558.21l16.2-159.86,304.59,12.96,16.2,146.89,225.75,128.53s23.75,207.38-83.18,314.31c-106.93,106.93-635.1,68.05-709.63,12.96C-3.22,1958.93.02,1706.19.02,1706.19l301.35-147.97Z"/>
      <line class="cls-3" x1="262.79" y1="1189.81" x2="491.96" y2="1313.8"/>
      <path class="cls-1" d="M292.92,1097.72l90.5,3.84c11.62.49,20.94,9.78,21.48,21.4l1.79,38.65c.59,12.85-9.7,23.57-22.56,23.49l-74.13-.42c-14.91-.09-25.76,14.12-21.76,28.48l26.65,95.65c2.99,10.74-2.35,22.04-12.54,26.56l-34.57,15.31c-12.14,5.38-26.27-.9-30.42-13.51l-20.3-61.68c-5.63-17.11-28.11-20.96-39.11-6.69l-37.79,49.01c-7.44,9.65-21.22,11.6-31.05,4.4l-55.7-40.81c-11.7-8.57-12.32-25.81-1.29-35.21l53.33-45.41c12.42-10.57,9.78-30.45-4.98-37.41l-43.23-20.39c-8.01-3.78-13.06-11.92-12.87-20.78l1-47.92c.33-15.98,16.79-26.51,31.44-20.11l65.42,28.58c11.81,5.16,25.53-.66,30.03-12.74l34.67-93.06c4.71-12.65,19.44-18.31,31.41-12.08l40.49,21.07c9.64,5.02,14.3,16.22,11.07,26.6l-17.47,56.07c-4.38,14.08,5.75,28.49,20.48,29.11Z"/>
    </g>
  </g>
</svg>