<?xml version="1.0" encoding="UTF-8"?>
<svg id="Layer_2" data-name="Layer 2" xmlns="http://www.w3.org/2000/svg" viewBox="0 0 117.34 74.67">
  <defs>
    <style>
      .cls-1 {
        stroke: #f569a3;
        stroke-width: 8.43px;
      }

      .cls-1, .cls-2, .cls-3 {
        fill: none;
        stroke-miterlimit: 10;
      }

      .cls-2 {
        stroke-width: 39.81px;
      }

      .cls-2, .cls-3 {
        stroke: #fdc607;
      }

      .cls-3 {
        stroke-width: 31.85px;
      }
    </style>
  </defs>
  <g id="Layer_1-2" data-name="Layer 1">
    <g>
      <path class="cls-2" d="M69.3,53.4c-3.64-5.34-6.91-13.92-10.33-23.3-3.28-9-5.72-21.65-6.41-27.91"/>
      <path class="cls-3" d="M14.66,27.5c2.14,5.03,7.23,15.08,18.06,23.26,5.51,4.16,18.89,10.9,35.49,6.61,18.03-4.66,26.88-19.86,29.41-26.71,3.49-9.45,3.91-17.87,3.79-23.1"/>
      <path class="cls-1" d="M46.63,41.48c-1.47-.31-4.73-1.21-7.65-4.03-1.98-1.91-3.01-3.95-3.54-5.24"/>
      <path class="cls-1" d="M74.98,42.08c.96-1.15,2.97-3.88,3.51-7.9.37-2.72-.08-4.96-.47-6.31"/>
      <path class="cls-1" d="M59.33,33.57c.4-1.7.86-4.74-.02-8.33-.49-2.02-1.27-3.63-1.95-4.78"/>
    </g>
  </g>
</svg>