<?xml version="1.0" encoding="UTF-8"?>
<svg id="Layer_2" data-name="Layer 2" xmlns="http://www.w3.org/2000/svg" viewBox="0 0 129.39 73.77">
  <defs>
    <style>
      .cls-1 {
        stroke: #ff6614;
        stroke-width: 30.18px;
      }

      .cls-1, .cls-2 {
        fill: none;
        stroke-miterlimit: 10;
      }

      .cls-2 {
        stroke: #ffe866;
        stroke-width: 7.94px;
      }
    </style>
  </defs>
  <g id="Layer_1-2" data-name="Layer 1">
    <g>
      <path class="cls-1" d="M53.78,45.52c-3.54-1.07-13.98-4.72-21.75-15.31-6.49-8.84-7.69-17.83-7.98-21.69"/>
      <path class="cls-1" d="M70.58,48.77c2.77-.7,12.51-3.5,19.36-13.05,8.67-12.09,5.84-25.43,5.36-27.54"/>
      <path class="cls-1" d="M64.86,51.97c1.69,1.2,14.4,9.89,30.34,5.45,13.4-3.73,19.84-14.17,21.17-16.44"/>
      <path class="cls-1" d="M64.09,50.55c-1.78,1.07-15.11,8.77-30.67,3.13-13.08-4.74-18.71-15.64-19.86-18"/>
      <path class="cls-1" d="M61.62,54.48c.55-6.03,1.68-21.8,1.18-29.69-.52-8.17-1.72-15.39-3.09-21.46"/>
      <path class="cls-2" d="M49.12,45.95c-1.31-.54-4.18-1.93-6.4-5.04-1.5-2.11-2.12-4.17-2.39-5.46"/>
      <path class="cls-2" d="M82.76,46.75c1.09-.9,3.41-3.09,4.6-6.72.81-2.46.77-4.61.65-5.92"/>
      <path class="cls-2" d="M63.68,39.64c.66-1.51,1.61-4.25,1.41-7.72-.11-1.96-.55-3.58-.99-4.77"/>
    </g>
  </g>
</svg>