<?xml version="1.0" encoding="UTF-8"?>
<svg id="Layer_2" data-name="Layer 2" xmlns="http://www.w3.org/2000/svg" viewBox="0 0 955.84 358.45">
  <defs>
    <style>
      @import url("https://fonts.googleapis.com/css2?family=Host+Grotesk:wght@600&amp;display=swap");
      .cls-1 {
        letter-spacing: 0em;
      }

      .cls-2 {
        fill: #f8dfc2;
      }

      .cls-3 {
        fill: #c291d0;
      }

      .cls-4 {
        fill: #fab4af;
      }

      .cls-5 {
        fill: #f3668e;
      }

      .cls-6 {
        font-size: 31px;
      }

      .cls-6, .cls-7 {
        font-family: HostGrotesk-SemiBold, 'Host Grotesk';
        font-variation-settings: 'wght' 600;
        font-weight: 600;
      }

      .cls-6, .cls-7, .cls-8 {
        fill: #0a6240;
      }

      .cls-9 {
        fill: #f7eee6;
      }

      .cls-10 {
        fill: #f9e0c5;
      }

      .cls-11 {
        fill: #ea5781;
      }

      .cls-7 {
        font-size: 76px;
      }

      .cls-12 {
        fill: #fa771c;
      }

      .cls-13 {
        letter-spacing: 0em;
      }

      .cls-14 {
        fill: #fcbe0c;
      }

      .cls-15 {
        letter-spacing: -.1em;
      }

      .cls-16 {
        letter-spacing: -.02em;
      }

      .cls-17 {
        letter-spacing: -.01em;
      }

      .cls-18 {
        letter-spacing: -.01em;
      }

      .cls-19 {
        letter-spacing: -.05em;
      }

      .cls-20 {
        letter-spacing: -.04em;
      }

      .cls-21 {
        letter-spacing: -.03em;
      }

      .cls-22 {
        letter-spacing: 0em;
      }

      .cls-23 {
        letter-spacing: -.01em;
      }

      .cls-24 {
        letter-spacing: 0em;
      }

      .cls-25 {
        fill: #f2dabe;
      }

      .cls-26 {
        fill: #ab71c0;
      }

      .cls-27 {
        letter-spacing: 0em;
      }
    </style>
  </defs>
  <g id="Layer_1-2" data-name="Layer 1">
    <g>
      <g>
        <rect class="cls-14" width="955.84" height="357.97" rx="36.89" ry="36.89"/>
        <g>
          <path class="cls-25" d="M702.48,357.97l-6.86-19.49c-.36-1.08-.64-2.11-1.3-2.82-.84-.28-.88-.96-.12-2.03,6.46-11,13.06-21.89,19.78-32.66,1.84-.61,5.76.42,6.98,1.95l5.42,48.29,24.49-4.47-17.08-38.63c.11-.67.61-.93,1.29-.99l21.01,10.28c1.69.9,3.42,1.5,5.18,1.81l7.83-36.25c-11.31-1.69-22.09.34-33.1,3.15-4.11,1.08-7.19,1.22-11.27.26-1.5-.35-8.11-2.16-9-2.72-8.05-7.76-16.73-14.64-26.06-20.65l-6.95-3.51-5.72,16.68-.88.18c-1.27-2.28-1.56-4.93-2.83-7.61l-23.54-49.51-22.74-46.2,30.94,13.63c.88.04.94.67.16,1.88l-1.18,7.27,1.85,17.27,31.19,26.14-.15.89c.18-.07.36,0,.53.07,3.51,1.56,10.36,7.57,13.45,10.38l-.14.89,2.66,1.2c6.67,5.95,13.43,11.82,20.26,17.58,1.55.19,3.12.27,4.7.22l37.42-17.14.75.51,1.93-1.73,28.69-13.07.82.08c1.44-1.52,4.15-2.34,6.19-2.71l.34-.89c7.27-3.09,14.5-6.32,21.7-9.71,1.65-1.03,3.22-1.29,4.72-.76.32-1.08,1.41-1.02,1.88.02l.28-.49c4.39.19,8.7-.21,12.92-1.21l.76.5.86-.57c.65-.08,12.28,2.91,12.7,3.42s.6.84.33,1.51l-12.89,16.79-2.07,1.43-15.6,19.88-37.71,49.14-27.17,35.72-5.41,7.27-60.21-.48Z"/>
          <path class="cls-11" d="M734.4,163.33c1.02-.04,2.05.45,3.09,1.48.8.12,1.34.42,1.62.9,5.16.09,13.12.59,17.41,3.45.49.33,5.54,5.87,5.86,6.42.2.34.32.66.34,1.06l.8-.19s2.61,4.18,7.84,12.55l-.42.8c.71.85,1.14,1.98,1.28,3.39,1.07,2.67,2.41,5.2,4.04,7.6l-.32,1.01,1.12.42c2.28,4.16,7.14,15.21,5.64,19.69-.13.39-.52.64-.88.85.2.05.38.12.49.25.47.55-1.45,12.67-1.84,14.3-1.59,6.68-6.37,11.78-11.04,16.54l-38.09,17.44c-1.79-.12-3.6.07-5.15-.37-7.91-6.27-14.96-13.23-22.55-19.45l.59-.7c3.23.39,6.33,1.2,9.31,2.45l4.68-.82,18.63-5.53,24.3-27.05c-2.78-9.63-6.09-20.57-10.32-30.2l-18.34-19.51c-11.62,1.86-23.26,4.18-34.93,6.94-6.7,9.29-13.45,18.62-20.25,27.99,3.3,6.33,6.78,12.65,10.45,18.97,3.31,3.93,6.71,7.65,10.18,11.17,7.53-2.83,14.91-5.87,22.16-9.13,2.77-.59,5.44-1.4,8.01-2.42,1.13-.74,6.75-6.99,7.45-8.21,2.18-3.82-2.28-12.7-5.01-15.86-.67-2.1-1.83-3.57-3.47-4.43-1.23-.61-6.09-2.7-7.11-2.87-.2-.04-3.33.94-3.91,1.13-1.07.34-7.74,2.95-8.29,3.38-.41.32-6.29,7.6-6.4,8.11-.21,1.02.87,4.69,1.44,5.79.27.52,6.58,9.84,6.84,9.32l5.12-14.76c.77-1.2,4.06-3.91,5.42-4.11s3.15,1.86,4,3.02c2.08,2.84,1.3,5.3-.25,8.08-2.46,4.41-6.63,7-10.96,9.66-1.37.84-9.95,3.91-10.99,3.67-1.12-.26-7.75-6.54-8.78-7.87-4.15-5.37-2.96-19.82.51-25.45,2.38-1.65,4.57-3.53,6.58-5.66,5.15-2.71,10.66-4.77,16.54-6.18,4.13,1,7.93,2.24,11.81,4.4,4.39,1.57,7.7,2.94,10.25,6.72,3.36,2.52,7.88,7.54,8.43,11.86s.4,8.66.2,13.03c1.19,6.28-3.25,14.9-7,19.8-1.01,1.32-10.19,5.71-11.79,6.12-5.57,1.43-11.47,1.01-16.89-.82l-11.96-3.79,5.44,6.78c.22.78.15,1.36-.68,1.47-3.56-2.23-7.51-3.7-11.84-4.42-.99-.6-1.99-1.06-3.03-1.39l-19.94-16.84-11.76-9.86-1.99-17.77,1.23-7.28c.1-.62.79-1.15.59-1.7.66-.27,1.06-.89,1.58-1.57,4.25-5.61,8.26-11.2,12.86-16.54.7-.82,1.62-1.58,1.9-2.44-.15-.3-.22-.65-.01-.91,2.25-2.81,4.45-4.53,8.05-5.44l.82.58.73-.92c5.48-.98,10.88-2.24,16.2-3.77,1.46-.39,2.45-.16,2.96.67.34-1.31,4.26-1.39,5.05-.31l.98-.84c4.28-.55,8.52-.63,12.7-.26,4.01,2.38,8.05,4.79,12.11,7.22l.54,1.17Z"/>
          <path class="cls-9" d="M777.15,82.74l.79-.23c3.36,4.83,6.71,9.66,10.07,14.49l-.38.82c.84,3.28,1.58,6.74,3.18,9.89,1,1.98,1.36,3.7,1.17,6.03-.28,3.53-.94,12.37-.18,15.01l.19.94c-2.76,5.9-6.28,8.93-11.43,13.26-2.85,2.39-5.85,4.68-8.82,6.74l-.86-.34-.53-.14c-.41-1.23-.04-2.63,1.1-4.2.43-3.81.95-7.62,1.57-11.45.61-3.89.33-7.5-.82-10.84-1.35-8.32-2.82-16.6-4.43-24.84-9.83-4.89-19.7-9.74-29.61-14.56l-8.26,3.46-1.32-.29c-.42.56-.94,1.03-1.55,1.41l-6.56,2.37c2.05.28,4.13.34,6.22.16l.69.77c.35-.2.71-.38,1.08-.51,1.32-.46,9.8-.23,11.06.26,5.64,3.44,11.34,6.86,17.11,10.26,6.75,19.29,10.13,28.94,10.13,28.94l.75,3.46c-.1,1.71-5.98,12.55-7.36,14.48-.88,1.23-3.7,3.26-5.07,4.21-4.32,2.5-8.46,5.25-12.43,8.27-2.66,1.9-5.41,2.82-8.25,2.76-17-9-7.15-8.46-26.33-7.29-1.3-.64-2.58-1.4-3.85-2.3-2.29-2.37-2.56-2.11-.81.76.41.85.6,1.49-.4,1.85-.79.05-2.23-.09-3.17.16l-10.5,2.75c-2.19.57-4.23.72-6.23,1.1l-1.09-.29c-5.21-11.59-9.8-23.52-13.77-35.8l1.66-5.69.86-.6c1.78-3.01,3.4-6.34,4.32-9.73-.19-.57.03-1.09.65-1.53,3.73-9.02,7.73-17.98,11.98-26.89,4.76-2.18,9.58-4.27,14.44-6.26l.72.54c1.65-.7,3.82-.78,5.4-2.02,4.27-3.32,8.03-6.91,12.46-9.99l25,.2,22.53,14.8c3.06,2.01,5.78,4.1,8.85,5.65Z"/>
          <path class="cls-3" d="M852.77,135.14l.86.27c9,10.25,13.5,15.37,13.5,15.37,3.15,4.45,5.08,9.58,5.78,15.41.7,1.54.87,2.94.51,4.2.82,2.03,1.2,5.44,1.42,7.65-.74,8.2-6.98,20.77-7.72,27.77.19.07.36.16.48.29.19.21-1.08,4.16-1.49,4.62-.5.55-1.02.68-1.57.12l-.86.25c-1.49-1.19-3.5-1.03-5.15-.25-2.88,1.99-5.81,3.9-8.78,5.71-1.28,1.62-2.83,2.67-4.64,3.14-1.7,1.5-3.77,2.13-5.9,2.7-.89,1.24-2.06,2.14-3.52,2.7-.62-.06-1.27.1-1.88-.02-3.07-1-4.67-.48-7.49.5-3.37,1.17-7.08,2.7-10.2,4.47-1.42.1-2.89,0-4.39-.31-2.57,1.67-4.78,1.68-6.63.05-3.01-.28-6.09-.37-9.24-.27-1.05-2.71-3.49-4.31-5.6-2.02-1.17.67-3.72-.82-4.96-1.56-1.34-.8-2.91-1.86-3.47-3.16,1.01-6.84-2.61-15.11-5.88-20.97-.18-.67.2-1.35,1.13-2.04-2.29-3.2-4.33-6.52-6.13-9.95l-8.22-13.16-.61-1.26c.18-4.95,1.31-10.59,2.73-15.33.63-2.1,1.74-4.51,3.35-5.99-1.11-.12.29-3.08.75-3.69.52-1.12,1.16-1.46,1.94-1.01l2.25-1.6c4.77-3.38,9.19-7.27,13.56-11.2,2.26-2.03,3.02-5.71,5.11-7.8,4.69-4.7,4.34-5.84,11.83-7.44,4.16-.89,8.59-1.24,12.81-.72,3.74.46,7.79-.64,11.41.42,4.68,1.37,8.82,4.25,13.4,6.07,3.4,1.35,6.49,3.29,9.06,5.81.88.87,1.3,2.02,2.46,2.25Z"/>
          <path class="cls-8" d="M694.32,335.65c-3.15,3.45-4.82,8.08-7.78,12.18l-6.42-14.23-15.06-4.56c1.2-1.97,2.48-2.86,3.87-4.02,1.27-1.07,2.35-2.26,3.58-3.37l4.49-4.07c3.21-2.91,6.22-5.94,9.52-8.5l-.15-.87,10.84-9.02c-4.5-.35-8.98-.7-13.42-1.04l-.68-.56c-4.42-.29-8.64-1.34-13.23-1.35l6.24-19.87,6.15-17.93c14.35,6.17,22.52,14.68,33.84,24.55,4.13.88,9.03,3.23,13.18,3.38,8.9-.73,21.84-5.62,30.91-4.74,3.38.33,6.69-.04,9.95.75l-8.32,38c-3.39-.98-6-2.24-8.84-3.63l-18.55-9.1,5.53,12.42,12.07,27.23-26.35,4.81-3.31-30.72-2.2-18.66-5.48-1.49-3.95,6.26-15.65,26.13c-.44.73-.77,1.35-.77,2.01Z"/>
          <path class="cls-8" d="M670.79,117.98c-.18,2.05-.99,4.04-1.77,6.26,1.51,4.34,2.64,8.58,4.34,12.77l7.82,19.3c.61,1.5,1.15,2.84,1.95,4.05-1.22.24-2.96,1.29-4.46,1.73-1.88.56-2.81,3.22-4.4,4.03-6.66-1.3-10.7-3.67-17.63-5.79-.89-.27-1.39-1.22-2.06-1.77l-10.69-8.8c-4.98-4.1-9.28-8.64-13.71-13.36-1.93-4.41-2.06-8.36-3.99-13.06.02-1.76-.79-3.22-1.19-4.87l-4.93-19.99c11.94,1.63,23.08,3.44,34.71,5.85,2.23,1.14,4.54,3.05,6.5,4.85l9.53,8.8Z"/>
          <path class="cls-8" d="M702.9,74.1l-14.6,6.19-9.97,22.01c-.95,2.1-1.03,4.84-3.23,5.95-3.99-3.61-8.08-7-12.81-10.46l-9-19.74c-.52-2.87.56-5.86.36-8.5-.05-.93-.04-1.88.03-2.85.38-1.04.14-2.34.29-3.41l.02-.45c.14-.33-.1-.77.01-1.11-.13-1.04-.11-2.12.1-3.12v-.78c-.18-.44-.27-1.02.23-1.23.1-.67-.1-1.53.05-2.18-.2-1.1-.09-2.06.33-2.88l.05-4.11.12-.86.82-9.16c9.44,4.37,19.12,7.91,27.82,13.47l10.4,6.65,8.95,16.58Z"/>
          <path class="cls-8" d="M873.43,170.39c-2.02-5.02-2.2-10.77-4.59-15.73-1.51-3.13-4.57-5.6-6.84-8.22l-7.92-9.15c-.59-.68-1.24-1.36-1.31-2.14l8.13-8.35,33.62-10.18-5.32,34.64-9.71,14.72-6.07,4.43Z"/>
          <path class="cls-8" d="M848.58,246.44l14.56-18.97-8.26-2.27c-1.8-.49-3.5-1.15-5.23-1.33.05-1.56.98-2.95,2.78-4.16,3.78-2.71,7.4-5.59,10.87-8.65l1.25-.23c.35-.41,1.38-.45,1.38-1.5,0-1.28,1.09-2.43,1.21-3.52,1.27-.24,2.43.16,3.78.58,7.79,2.45,15.39,4.74,23.06,7.75l-8.21,8.63-10.87,11.24c-1.53,1.3-2.59,3.44-4.49,4.3-7.17,3.26-14.5,5.74-21.81,8.13Z"/>
          <path class="cls-10" d="M686.51,309.08c-.17.27-.4.08-.49-.22l-2.92-11.27c5.2.35,10.44.11,16.03.98l-9.61,8.16-3.01,2.34Z"/>
          <path class="cls-5" d="M703.63,251.47l-13.84-11.34c.18-.22.55-.21.96-.09,2.69.85,5.37,1.8,8.17,2.26,2.44.4,3.78,1.87,6.17,3.1l-7.2-8.98c6.43,1.22,15.85,5.71,22.15,5.92,4.22.14,9.42-.44,12.95-2.54l7.18-4.28c2.84-4.35,4.92-9.02,6.65-13.91.6-1.7-.1-3.71-.05-5.45.12-4.68.53-9.28-.41-13.89-.31-1.49-1.64-2.92-2.33-4.28-1.15-2.29-3.13-3.83-5.08-5.41-1.55-1.25-2.68-3.44-4.39-4.48-4.24-1.67-8.2-3.47-12.4-5.48-1.5-.72-3.66-.6-5.3-1.51-4.89,1.91-10.25,2.74-14.78,5.2-2.87,1.56-4.77,5.08-7.78,6.36-.34,2.01-1.77,3.8-2.21,5.52-.59,2.27-.67,4.75-.62,7.14.13,6.5-.12,4.97,1.72,11.04,2.47,3.35,5.9,5.64,8.96,8.49,4.09-1.69,7.55-1.57,10.73-3.85,2.32-1.66,4.56-3.08,6.98-4.6-.19.12,4.43-5.25,4.76-7.23.19-1.12-.08-3.07-.57-3.96-.58-1.07-1.85-1.56-2.36-2.74-1.02-2.35-5.37,2.26-6.24,3.13l-5.32,15.66c-2.01-1.27-2.91-3.12-4.06-4.77-3.58-5.11-4.91-5.32-5.38-11.83l6.67-8.53,8.24-3.4c1.24-.51,3.11-.71,4.46-1.22,3.04,1.52,6.64,2.04,9.27,4.08.95,1.25,1.46,3.44,2.8,4.69,2.01,1.86,4.74,10.78,4.76,9.73l-.06,3.87c-.02,1.29-.75,2.32-1.53,3.19l-5.74,6.36c-2.33,2.58-7.01,2.08-10.17,3.81l-1.68.92c-2.41,1.32-5.24,1.66-7.6,3.04-1.07.62-1.96.83-3.13,1.2-3.06.98-5.83,2.71-9.17,3.46l-6.28-6.26c-2.19-2.18-3.83-4.12-5.39-6.73-2.77-4.62-5.13-9.3-7.57-14.08-.68-1.34-1.74-2.31-1.95-3.93l13.87-19.41c2.19-3.07,4.42-5.83,6.38-9.05l8.07-1.79c9.35-2.08,18.26-4.01,27.81-5.38l18.73,19.95c2.75,4.75,3.96,10.9,6.02,16.28,1.87,4.89,3.32,9.53,4.56,14.53l-24.7,27.55-15.23,4.5c-2.87.85-5.73,1.92-8.72,1.94-2.28-1.17-7.24-2.17-9.76-2.49Z"/>
          <path class="cls-8" d="M790.24,227.48c.22-.22.56-.54.78-.44,2.67,1.22,8.88,4.76,11.16,6.51l.1.96c1.02.33.06,3.1-.38,3.88-.21.38-.63.63-1.04.74-.21.66-.82.83-1.53,1.15l-29.91,13.56c.33-1.21,1.31-2.11,2.16-3.21l5.08-6.5c1.86-2.38,2.65-4.35,3.09-7.32l2.07-14.07c.2.14.92.05,1.16.34,1.99,2.38,4.91,3.01,7.26,4.39Z"/>
          <path class="cls-3" d="M833.81,225.06c-1.96-.39-23.09,10.61-26.76,11.36-1.52.84-4.57-.19-4.77-1.91l-12.04-7.02c-.08-.66.15-1.19.65-1.61.54-.46,1.22-.08,1.85-.11,2.13-.11,2.82,1.54,3.42,3.16,1.92-.29,3.98-.27,5.83-.08,1.51.15,2.69-.67,4.06.74,1.24,1.27,3.34.5,4.67-.33,1.49-.93,3.71.53,5.1.06,2.14-1.38,4.01-2.31,6.58-2.85-.4.08,6.69-3.31,8.57-2.77.98.28,2.3.61,2.83,1.35Z"/>
          <path class="cls-3" d="M864.55,210.83c-4.57,5.34-10.87,7.42-14.9,13.04-3.12,1.6-10.66,1.54-13.96,1.2-.13-.53.21-1.24.93-1.34,1.19-.16,1.52-1.87,2.44-2.14,1.95-.57,3.66-.9,5.26-2.33.81-.72,2.7-.65,3.31-1.63,1.22-1.97,3.11-2.43,4.9-3.68l4.59-3.21c2.22-1.55,5.46-1.96,7.42.07Z"/>
          <path class="cls-4" d="M807.05,236.42c.41.41-6.02,3.2-6.19,2.71l1.43-4.63c1.48.86,3.15,1.61,4.77,1.91Z"/>
          <path class="cls-2" d="M770.88,149.35c-.48.34-1.12,1.01-1.41,1.68l-1.28,3.03-1.46,1.78c-3.6,1.86-6.89,4.07-9.87,6.62l-14,3.19-3.75.06c-.71-.16-.91,1.22-4.72-2.38.23-1.49.49.39,4.41-1.66,1.39-.73,2.76-1.3,4.13-2.19,2.9-1.89,5.34-4.34,8.43-5.87s5.75-3.76,8.16-5.98c2.5-4.85,5.29-9.06,7.22-14.08-1.26-6.24-3.6-11.79-5.66-17.66l-4.96-14.14c-2.45-.88-4.31-2.44-6.46-3.76l-10.33-6.31c-4.11-.26-8.03-.47-11.97-.48-2.05-1.22-.42-3.72,1.2-4.71,3.05-1.23,6-2.79,9.58-3.9l28.73,13.83c1.24.6,1.72.85,1.97,2.35l4.09,23.78c.21,1.21,1.13,2.35,1.07,3.56-.2,3.68-.06,7.24-.49,10.87-.17,1.46-1.06,2.74-1.04,4.41.11,7.14-2.01,3.98-1.6,7.96Z"/>
          <path class="cls-9" d="M762.72,176.63c-1.99-.52-5.57-6.82-7.96-7.71-5.14-1.78-10.54-2.04-15.65-3.22l12.25-2.82c9.87-2.27,1.49.35,9-4.15l7.83-4.69-2.19,5.16c-2.3,5.43-2.45,11.63-3.28,17.42Z"/>
          <path class="cls-3" d="M775.94,201.79c-2.07-3.71-5.13-7.44-5-11.99,1.4-.39,1.74,2.3,3.63,4.89,1.24,1.68,2.5,3.26,3.39,5.18-.57.9-1.36,1.37-2.03,1.93Z"/>
          <path class="cls-10" d="M708.07,156.04l-5.05.31c.27-1.42-1.96-3.94-2.3-6.23,1.96.97,3.12,2.59,4.96,3.66,1.04.6,2.31,1.07,2.39,2.26Z"/>
          <path class="cls-2" d="M714.74,119.06l7.84-14.79,18.47-3.86c3.02,2.02,5.1,4.74,7.38,7.5,3.39,4.09,6.95,7.87,9.79,12.39-.82,2.63-2.5,4.46-3.98,6.61l-13.11,19.12-3.98,6.17c-9.43-.49-18.42-1.61-27.42-4.12-5-7.21-11.2-12.88-16.24-20.2-.78-.77-1.12-1.74-.83-2.87l6.59-25.18,17.81-8.85c-1.1,3.71-4.16,5.71-6.18,8.52-2.64,3.68-4.33,8.02-5.94,12.28-.66,1.72.19,3.59.67,5.15l2.67,8.83c1.32,4.36,2.67,8.48,4.53,12.66l7.7,4.63c4.39.76,8.53.69,12.88-.07l6.51-10.32-13.67,1.73c-3.63-2.66-7.03-5.39-10.2-8.46.01.01-1.86-5.81-1.27-6.91Z"/>
          <path class="cls-10" d="M728.57,86.48c-.48,2.47-1.54.12-1.2,4.71-2.93-.01-6.04.47-9.15-.7,3.52-1.92,7.08-2.69,10.35-4.01Z"/>
          <path class="cls-26" d="M820.19,177.6c1.73.54,3.67.25,5.06,1.25,1.61,1.16,2.73,2.79,4.69,3.58-.33,1.05-1.06,1.48-1.97,1.87-2.77,1.17-4.97,3.7-7.84,4.53-2.04.59-4.52-.64-6.5.75-2.87-1.94-5.46-3.3-8.69-4.34-2.43-10-3.62-6.04-1.06-15.75,1.38-5.23,2.45-10.29,3.22-15.57,2.76-.39,5.3-.21,8.02-.32,3.79-.16,7.49-.69,11.3-.62,1.97.04,3.7.94,5.84.77,4.03,6.42,8.84,12.06,12.88,18.44l2.88,4.55-13.77,20.08c-3.46,5.04-17.17,9.66-21.39,13.58-2.69,2.5-2.01-.75-9.03,2.53l-12.04-12.18c-1.85-3.71-4.17-6.83-6.41-10.33-3.82-5.95-7.36-11.78-10.59-18.1l2.58-7.92,6.66-20.33c4.25-1.99,8.35-3.2,12.71-4.59,2.85-.91,5.62-2.54,8.66-2.66,1.36,0,2.66,1.99,4.4,1.69.61-.68.16-1.73-.27-2.99,8.02-2.08,15.98-3.61,24.2-4.67l20.1,17.89c2.07,1.84,3.59,3.7,5.84,5.42-.71,8.88-.32,17.67-2.23,26.21l-2.85,12.67c-2.14-7.72-3.18-15.37-4.65-23.21l-2.58-13.75-15.84-12.17-16.36-4.35c-1.88.78-3.06,2.21-4.6,3.26-2.71,1.85-5.21,3.76-7.82,5.77l-9.81,7.57-7.07,16.12c.96,3.78,2.21,7.11,3.41,10.76.34,1.05.79,2.5,1.87,3.31l11.68,8.7c1.69,1.26,4.75,2.54,6.82,2.72,3.86.33,15.45-1.17,18.56-2.76,1.4-.71,2.03-3.38,2.35-4.89l2.34-11.05c1.55-7.33-.91-7.41-3.89-14.09-2.85-.72-5.25-1.84-7.61-3.52-2.32.91-4.5,1.31-7.06.98-2.61,4.55-2.11,2.85-1.38,6.33l1.46,6.99,5.78,1.81Z"/>
          <path class="cls-12" d="M877.04,88.26c-.37-6.13-2.47-11.48-5.87-16.38-.84-1.2-1.5-2.19-2.59-3.2l-4.05-3.74c-2.14-1.98-9.23-5.48-12.28-5.7-2.72-.2-5.27-.74-8.07-.65-5.47-10.97-16.27-18.22-28.66-17.66-8.67.39-17.05,3.99-22.82,10.39-7.32,8.13-9.8,18.91-7.51,29.4.18.84.2,1.42-.05,2.02l10.48,15.08c4.57,2.58,10.22,6.27,16.25,6.51l7.12.28c3.88,7.23,9.96,12.72,17.81,15.21,11.59,3.67,24.08.24,32.19-8.77,5.62-6.24,8.53-14.48,8.03-22.78ZM816.12,95.84c-3.53.55-6.69-.4-9.99-1.71-8.08-3.19-13.59-12.58-13.74-21.18-.25-13.88,11.93-24.84,25.66-23.57,7.36.68,13.66,5.11,17.44,11.39-10.98,4.47-17.62,13.68-19.55,24.75-.59,3.4-.87,6.57.18,10.32ZM824.17,94.12c-1.46-4.87-.24-9.81,1.9-14.35,2.44-5.17,6.8-9.08,12.32-11.32,1.05,4.45-.23,8.65-1.41,12.81-.56,1.97-1.22,3.08-2.57,4.65-2.89,3.35-5.92,6.39-10.24,8.21ZM864.24,105.05c-1.2,1.66-2.1,2.3-3.64,3.47-10.87,8.27-26.12,5.78-33.49-6.34,6.28-2.84,11.37-6.7,15.05-12.05.83-1.2,1.26-2.52,2.44-3.49,2.56-7.66,3.72-11.06,2.34-19.46,6.39.26,12.5,2.88,16.61,7.63,7.62,8.81,7.31,21.03.68,30.24Z"/>
          <path class="cls-9" d="M743.4,127.01c-1.37,2.4.92,3-.59,4.58-.44.46-1.87,1.28-2.28.48l-4.36-8.54c-.66-1.28-6.22.68-8.37-.51-.39-2.68-.72-4.97-1.48-7.57-.31-1.07.11-3.54,1.5-3.82l6.64-1.33c1.91-.38,3.72,1.71,5.95,1.3l3.54,6.07c.62,1.07.51,2.58.84,3.83.51,1.93-.48,3.92-1.4,5.51Z"/>
        </g>
      </g>
      <g>
        
        
      </g>
      <path class="cls-8" d="M96.73,243.91c-15.61,0-28.27,12.66-28.27,28.27s12.66,28.27,28.27,28.27,28.27-12.66,28.27-28.27-12.66-28.27-28.27-28.27ZM100.59,284.55l-2.96-2.69,6.98-7.68h-22.19v-4h22.19l-6.98-7.68,2.96-2.69,11.25,12.37-11.25,12.37Z"/>
    </g>
  </g>
</svg>