<?xml version="1.0" encoding="UTF-8"?>
<svg id="Layer_2" data-name="Layer 2" xmlns="http://www.w3.org/2000/svg" viewBox="0 0 955.84 357.97">
  <defs>
    <style>
      @import url("https://fonts.googleapis.com/css2?family=Host+Grotesk:wght@600&amp;display=swap");
      .cls-1 {
        letter-spacing: 0em;
      }

      .cls-2 {
        fill: #f8dfc2;
      }

      .cls-3 {
        fill: #ff6614;
      }

      .cls-4 {
        fill: #175dbe;
      }

      .cls-5 {
        fill: #0d452d;
      }

      .cls-6 {
        font-size: 76px;
      }

      .cls-6, .cls-7 {
        fill: #fbf9ef;
        font-family: HostGrotesk-SemiBold, 'Host Grotesk';
        font-variation-settings: 'wght' 600;
        font-weight: 600;
      }

      .cls-8 {
        fill: #ea5781;
      }

      .cls-9 {
        fill: #f5eee6;
      }

      .cls-10 {
        fill: #fa771c;
      }

      .cls-11 {
        fill: #fcbe0c;
      }

      .cls-12 {
        letter-spacing: -.06em;
      }

      .cls-13 {
        letter-spacing: -.02em;
      }

      .cls-14 {
        letter-spacing: -.05em;
      }

      .cls-15 {
        letter-spacing: -.04em;
      }

      .cls-16 {
        fill: #4f8c55;
      }

      .cls-17 {
        letter-spacing: -.01em;
      }

      .cls-18 {
        letter-spacing: 0em;
      }

      .cls-19 {
        letter-spacing: 0em;
      }

      .cls-7 {
        font-size: 31px;
      }

      .cls-20 {
        fill: #4972d1;
      }
    </style>
  </defs>
  <g id="Layer_1-2" data-name="Layer 1">
    <g>
      <g>
        <rect class="cls-20" width="955.84" height="357.97" rx="36.89" ry="36.89"/>
        <g>
          <path class="cls-3" d="M626.06,357.97s-13.38-8.81-16.1-23.63c4.91-.55,8.47-.65,12.41-.66l254.85-.87c4.57-.02,8.88,0,14.44.51-2.43,14.6-16.53,24.66-16.53,24.66h-249.07Z"/>
          <path class="cls-2" d="M876.59,206.87l.95,5.74-.32,120.2-254.85.87-1.09-126.93,25.16-20.59,19.72,17.35,27.76-21.45,28.91,22.42,28.32-21.9,29.49,21.63,27.63-21.56,28.33,21.96,18.48-17.33,21.51,19.58ZM749.23,295.29c1.33,9.26.46,18.68.55,28.81.02,2.14,4.72,2.68,4.95,1.05l1.44-10.1c6.8,1.03,13.33,0,19.67-1.25,4.35-4.99,8.62-8.87,12.63-14.85-4-2.46-7.87-3.89-11.67-5.15,3.45-4.85,10.86-9.71,10.13-15.59l-1.43-11.41c15.78-14.42,4.82-16.25,3.07-32.68-5.43-4.5-11.01-6.91-18.16-5.93-2.12-3.88-4.5-11.3-9.29-12.68-6.24-1.59-13.73.2-20.34-.32l-8.76,9.79c-1.16,1.45-.15,3.79-1.24,5.59-8.12-.08-20.47,3.97-19.22,14.73,1.18,10.15-8.32,10.17-.49,19.05,2.75,3.12,5.06,6.26,9.49,7.21-2.5,16.46-1.89,7.71,4.44,22.27,5.91.21,10.17,3.7,15.65,5.08,3.1.18,5.84-3.2,8.57-3.62ZM674.25,293.8c1.11,6.02,2.88,11.82,3.76,19.07-4.51-3.13-6.96-7.61-11.86-10.21-8-4.24-14.47.56-22.74,5.53,4.19,4.33,7.81,13.16,13.92,13.3l22.47.55c1.22.03,1.31,3.52,2.18,3.99s4.09,1.13,3.98-.15l-.97-10.61c19.6-8.01,16.85-2.53,23.52-25.22-4.99.21-9.5-1.08-13.83.29-6.67,2.12-9.01,8.96-11.87,15.15-2.69-5.19-2.41-10.27-3.65-14.85,4.95,1.68,10.8.6,13.86-3.14,3.57-4.37,4.49-9.65,1.97-14.8,2.78-2.33,7.96-3.68,8.27-7.82.26-3.46-.23-8.05-.97-11.53-.9-4.23-6.48-4.86-9.62-6.81,1.08-4.61.2-9.81-3.2-13.66-2.6-2.93-8.6-1.13-12.17-.22-2.85-1.48-3.39-5.08-6.37-6.22-2.53-.97-7.11,0-9.15,1.69-2.63,2.19-2.89,5.75-4.62,8.36-3.44-.29-9.04-1.2-11.5,2.06-9.74,12.87-1.46,12.46-2.44,19.67-.46,3.36-6.3,6.02-5.65,9.75.59,3.42,1.78,7.49,3.09,10.81,1.81,4.57,8.39,5.91,12.61,4.7.33,4.87,2.33,10.15,7.06,11.76,12.14,4.11,9.33-.92,13.9-1.44ZM822.89,294.21c-.79,9.63-4.85,18.6-6.33,29.11-.27,1.91,4.05,2.57,4.78,1.41,1.61-2.58.96-6.03,3.17-8.55,22.24,7.76,18.65,5.64,35.34-6.69-8.66-6.86-13.01-12.44-22.6-8.39-4.72,1.99-7.71,5.38-11.61,8.46.75-5.98,2.54-11.14,3.79-16.48,3.24.48,5.27,3.2,8.97,4.59,3.25-3.29,8.17-2.96,11.79-5.08,5.07-2.96,5.98-10.43,4.89-15.51,2.76-2.36,8.84-3.88,9.31-7.71-.1-4.6.66-10.01-.06-14.71s-7.74-7.17-11.59-8.81c.96-5-.65-9.95-4.09-13.79-1.57-1.76-6.36-3.06-8.8-3.04-3.5.02-5.89,3.6-8.76,4.71-2.48-.86-4.11-4.3-6.72-4.44-3.61.02-8.19,1.47-11.04,3.33-4.02,2.62-1.93,8.6-4.01,11.4s-8.15,3.22-9.15,7.25c-4.91,19.79,2.66,15.85,5.69,21.97,1.7,3.44-2.93,9.52.35,13.47,2.53,3.05,11.21,9.84,16.69,7.51Z"/>
          <polygon class="cls-8" points="665.55 162.46 699.39 162.86 735.84 163.37 769.67 163.35 805.96 163.88 838.9 164.44 878.01 164.91 876.59 206.87 855.08 187.28 836.6 204.62 808.27 182.65 780.64 204.21 751.16 182.59 722.84 204.49 693.93 182.07 666.17 203.51 646.45 186.16 621.29 206.75 621.15 162.45 665.55 162.46"/>
          <g>
            <path class="cls-10" d="M827.39,118.02c.23.84-1.09,3.48.43,4,3.94,1.34,8.02-.41,12.38.82l-1.3,41.6-32.94-.57.7-41.73c4.59-.29,8.75.43,12.83-.38.75-.93-.28-2.85-.67-3.78,2.12-3.9.81-8.93,5.16-12.12,1.85,3.56,2.38,8.88,3.41,12.14Z"/>
            <path class="cls-11" d="M827.39,118.02c-1.03-3.26-1.56-8.58-3.41-12.14-4.34,3.19-3.04,8.22-5.16,12.12-7.26-4.65-11.82-13.89-7.51-22.17,3.92-7.52,7.95-14.11,13.11-21.64,4.36,8.49,8.49,15.32,11.94,23.39,3.4,7.92-1.82,17.16-8.98,20.43Z"/>
          </g>
          <g>
            <path class="cls-4" d="M678.18,120.69h8.5c4.04,0,8.14.31,12.69.71l.02,41.46-33.84-.4.42-41.31c4.5-.37,8.36-.46,12.22-.46Z"/>
            <path class="cls-11" d="M688.77,115.2c-4.32-.37-2.67-6.16-6.46-9.8-3.33,3.57-2.13,7.78-4.21,11.15-7.93-4.86-13.09-14.59-6.83-24.2,4.1-6.3,6.39-12.85,11.68-19.25,4.3,9.02,9.98,16.53,13.37,25.28,2.57,6.63-2.74,13.12-7.54,16.81Z"/>
            <path class="cls-10" d="M688.77,115.2c-1.12,1.86-.18,4.32-2.08,5.49h-8.5c.44-1.24-.25-2.97-.09-4.13,2.09-3.37.89-7.59,4.21-11.15,3.79,3.64,2.14,9.43,6.46,9.8Z"/>
          </g>
          <g>
            <path class="cls-11" d="M749.58,121.14c2.71,1.22,5.79.88,8.72.9,3.78.04,7.57-.38,11.87.16l-.5,41.14-33.83.02.8-41.75c4.59-.12,8.87.53,12.94-.47Z"/>
            <path class="cls-11" d="M757,118.92c-.07-4.4-.5-8.99-3.68-12.98-3.57,2.49-2.13,7.23-4.21,12.08-6.48-4.74-12.57-13.98-7.46-23.15,3.84-6.91,7.7-13.54,12.21-20.32,5.26,8.14,8.74,15.34,12.84,23.01,3.69,6.91-4.79,17.7-9.69,21.36Z"/>
            <path class="cls-10" d="M757,118.92c.02,1.12.82,2.18,1.3,3.12-2.93-.03-6.01.32-8.72-.9.05-.91-.84-2.25-.46-3.12,2.08-4.85.64-9.58,4.21-12.08,3.18,3.98,3.61,8.57,3.68,12.98Z"/>
          </g>
          <path class="cls-5" d="M679.17,290.65c1.24,4.58.96,9.67,3.65,14.85,2.86-6.2,5.2-13.03,11.87-15.15,4.32-1.37,8.83-.08,13.83-.29-6.67,22.69-3.92,17.21-23.52,25.22l.97,10.61c.12,1.28-3.11.62-3.98.15s-.96-3.96-2.18-3.99l-22.47-.55c-6.11-.15-9.73-8.97-13.92-13.3,8.27-4.97,14.74-9.76,22.74-5.53,4.91,2.6,7.35,7.08,11.86,10.21-.88-7.25-2.66-13.05-3.76-19.07-.23-1.24.6-2.73,1.46-3.64,1.19-1.27,2.29.09,3.47.49Z"/>
          <g>
            <path class="cls-8" d="M776.81,293.8c-3.88-1.29-9.35,4.04-14.02,2.8-2.62-.7-5.25-2.39-7.69-3.44-.36-.3-.74-1.6-1.58-1.51-2.09.21-2.97,2.88-4.28,3.64-2.73.43-5.47,3.81-8.57,3.62-5.48-1.38-9.74-4.87-15.65-5.08-6.33-14.56-6.93-5.81-4.44-22.27-4.43-.95-6.74-4.09-9.49-7.21-7.83-8.88,1.67-8.9.49-19.05-1.25-10.76,11.1-14.81,19.22-14.73,1.09-1.79.08-4.14,1.24-5.59l8.76-9.79c6.61.51,14.1-1.28,20.34.32,4.78,1.38,7.16,8.8,9.29,12.68,7.15-.98,12.73,1.43,18.16,5.93,1.75,16.43,12.71,18.26-3.07,32.68l1.43,11.41c.73,5.87-6.68,10.73-10.13,15.59ZM762.48,256.5c-.48-2.99-2.21-6.67-3.94-8.3-4.96-4.67-12.06-2.16-14.98,1.95-4.1,5.78-2.96,11.16,2.39,15.86,2.54,2.23,8.35,2.21,11.45-.1,2.17-1.62,5.73-5.39,5.07-9.42Z"/>
            <path class="cls-5" d="M755.1,293.16l.35,15.36,7.34-11.92c4.67,1.24,10.15-4.09,14.02-2.8,3.8,1.26,7.67,2.69,11.67,5.15-4.01,5.97-8.28,9.86-12.63,14.85-6.34,1.25-12.87,2.28-19.67,1.25l-1.44,10.1c-.23,1.63-4.93,1.09-4.95-1.05-.09-10.12.78-19.55-.55-28.81,1.31-.76,2.19-3.43,4.28-3.64.84-.09,1.23,1.22,1.58,1.51Z"/>
            <path class="cls-16" d="M762.48,256.5c.65,4.03-2.9,7.8-5.07,9.42-3.1,2.31-8.91,2.32-11.45.1-5.36-4.7-6.49-10.08-2.39-15.86,2.92-4.11,10.02-6.62,14.98-1.95,1.73,1.63,3.46,5.31,3.94,8.3Z"/>
            <path class="cls-2" d="M762.79,296.6l-7.34,11.92-.35-15.36c2.45,1.05,5.07,2.75,7.69,3.44Z"/>
          </g>
          <g>
            <path class="cls-11" d="M829.41,293.07c-.31-1.79-1.83-2.31-3.28-1.23-.92.68-3.13,1.02-3.24,2.37-5.48,2.33-14.16-4.46-16.69-7.51-3.28-3.95,1.35-10.04-.35-13.47-3.03-6.12-10.6-2.18-5.69-21.97,1-4.02,7-4.36,9.15-7.25s0-8.78,4.01-11.4c2.85-1.86,7.42-3.31,11.04-3.33,2.61.14,4.24,3.58,6.72,4.44,2.86-1.11,5.26-4.68,8.76-4.71,2.44-.01,7.23,1.29,8.8,3.04,3.43,3.84,5.05,8.79,4.09,13.79,3.85,1.63,10.87,4.12,11.59,8.81s-.03,10.12.06,14.71c-.46,3.83-6.55,5.35-9.31,7.71,1.09,5.08.18,12.55-4.89,15.51-3.62,2.11-8.54,1.79-11.79,5.08-3.7-1.39-5.73-4.11-8.97-4.59ZM831.49,272.19c5.12.26,8.29-3.59,9.29-7.36,1.23-4.62-.7-9.12-5.28-11-5.73-2.35-11.25,1.43-12.47,6.46-1.42,5.85,2.26,11.59,8.45,11.9Z"/>
            <path class="cls-5" d="M829.41,293.07c-1.25,5.34-3.04,10.5-3.79,16.48,3.91-3.08,6.9-6.47,11.61-8.46,9.59-4.05,13.94,1.53,22.6,8.39-16.69,12.34-13.1,14.46-35.34,6.69-2.21,2.52-1.56,5.97-3.17,8.55-.73,1.17-5.05.51-4.78-1.41,1.48-10.51,5.54-19.48,6.33-29.11.11-1.34,2.32-1.68,3.24-2.37,1.45-1.08,2.97-.56,3.28,1.23Z"/>
            <path class="cls-8" d="M831.49,272.19c-6.19-.31-9.87-6.04-8.45-11.9,1.22-5.03,6.73-8.81,12.47-6.46,4.58,1.87,6.51,6.38,5.28,11-1.01,3.78-4.17,7.62-9.29,7.36Z"/>
          </g>
          <g>
            <path class="cls-4" d="M679.17,290.65c-1.17-.4-2.28-1.76-3.47-.49-.85.91-1.68,2.41-1.46,3.64-4.57.52-1.75,5.56-13.9,1.44-4.73-1.6-6.73-6.89-7.06-11.76-4.23,1.21-10.8-.13-12.61-4.7-1.31-3.32-2.5-7.4-3.09-10.81-.65-3.73,5.2-6.39,5.65-9.75.98-7.22-7.3-6.8,2.44-19.67,2.47-3.26,8.06-2.36,11.5-2.06,1.72-2.61,1.99-6.17,4.62-8.36,2.04-1.7,6.62-2.66,9.15-1.69,2.99,1.15,3.53,4.74,6.37,6.22,3.57-.91,9.57-2.71,12.17.22,3.41,3.85,4.28,9.05,3.2,13.66,3.14,1.95,8.72,2.58,9.62,6.81.74,3.48,1.23,8.07.97,11.53-.31,4.14-5.49,5.49-8.27,7.82,2.52,5.15,1.6,10.43-1.97,14.8-3.06,3.75-8.92,4.82-13.86,3.14ZM680.05,261.16c-.08-3.41-3.09-8.22-6.11-9.57-2.26-1.01-7.62-.4-9.12,1.28-1.78,1.99-3.36,5.04-4.23,7.47-1.13,3.13,1.84,5.68,3.38,8.67s7.71,2.44,10.79.98c2.34-1.11,5.38-4.66,5.29-8.83Z"/>
            <path class="cls-11" d="M680.05,261.16c.1,4.17-2.95,7.72-5.29,8.83-3.08,1.47-9.29,1.93-10.79-.98s-4.51-5.55-3.38-8.67c.87-2.43,2.45-5.48,4.23-7.47,1.5-1.68,6.86-2.29,9.12-1.28,3.02,1.35,6.03,6.16,6.11,9.57Z"/>
          </g>
          <g>
            <polygon class="cls-8" points="886.99 92.02 904.13 102.59 912.94 85.92 896.24 74.55 886.99 92.02"/>
            <path class="cls-11" d="M567.61,220.45c4.88-2.07,8.4-4.76,12.48-7.25,1.55-.94.42-3.09-.34-4.19-3.63-5.27-6.14-10.73-10.49-15.72l-13.27,8.44,11.62,18.72Z"/>
            <path class="cls-10" d="M606.5,107.89c5.6-1.24,9.79-3.86,14.88-5.54l-8.69-20.54c-4.98,2.19-9.63,4.14-14.15,6.71l7.96,19.38Z"/>
            <path class="cls-8" d="M591.82,292.64c3.48,4.8,7.39,8.17,11.42,12.57l14.01-14.72-11.3-12.58-14.13,14.74Z"/>
            <polygon class="cls-11" points="909.93 273.69 923.38 266.15 912.63 247.91 899.39 255.63 909.93 273.69"/>
          </g>
        </g>
      </g>
      <g>
        
        
      </g>
      <path class="cls-9" d="M96.73,243.51c-15.61,0-28.27,12.66-28.27,28.27s12.66,28.27,28.27,28.27,28.27-12.66,28.27-28.27-12.66-28.27-28.27-28.27ZM100.59,284.15l-2.96-2.69,6.98-7.68h-22.19v-4h22.19l-6.98-7.68,2.96-2.69,11.25,12.37-11.25,12.37Z"/>
    </g>
  </g>
</svg>