<?xml version="1.0" encoding="UTF-8"?>
<svg id="Layer_2" data-name="Layer 2" xmlns="http://www.w3.org/2000/svg" viewBox="0 0 955.84 357.97">
  <defs>
    <style>
      @import url("https://fonts.googleapis.com/css2?family=Host+Grotesk:wght@600&amp;display=swap");
      .cls-1 {
        fill: #f8dfc2;
      }

      .cls-2 {
        fill: #0d452d;
      }

      .cls-3, .cls-4, .cls-5 {
        fill: #8e6598;
      }

      .cls-6 {
        fill: #a381b5;
      }

      .cls-4 {
        font-size: 31px;
      }

      .cls-4, .cls-5 {
        font-family: HostGrotesk-SemiBold, 'Host Grotesk';
        font-variation-settings: 'wght' 600;
        font-weight: 600;
      }

      .cls-5 {
        font-size: 76px;
      }

      .cls-7 {
        fill: #f5eee6;
      }

      .cls-8 {
        letter-spacing: -.1em;
      }

      .cls-9 {
        letter-spacing: -.01em;
      }

      .cls-10 {
        letter-spacing: -.05em;
      }

      .cls-11 {
        letter-spacing: -.04em;
      }

      .cls-12 {
        letter-spacing: -.04em;
      }

      .cls-13 {
        fill: #4f8c55;
      }

      .cls-14 {
        letter-spacing: -.03em;
      }

      .cls-15 {
        letter-spacing: 0em;
      }

      .cls-16 {
        letter-spacing: -.01em;
      }

      .cls-17 {
        letter-spacing: -.01em;
      }

      .cls-18 {
        fill: #e4ccf0;
      }

      .cls-19 {
        letter-spacing: 0em;
      }

      .cls-20 {
        fill: #b692c8;
      }
    </style>
  </defs>
  <g id="Layer_1-2" data-name="Layer 1">
    <g>
      <g>
        <rect class="cls-18" width="955.84" height="357.97" rx="36.89" ry="36.89"/>
        <g>
          <path class="cls-2" d="M811.46,285.07l17.1,72.66-14.86-.1c.45-1.59.18-3.39-.32-5.36l-5.43-21.66-26.07.08c-.58-3.85-.96-7.95-2.01-11.72l25.19-.32-7.6-33.66c4.7,0,9.27-.4,13.98.08Z"/>
          <path class="cls-2" d="M683.55,283.88l-8.38,34.26,8.04.64c-2.24,8.4,3.31,6.79,4.45,11.29-4.82-.78-10.49-.12-15.68.63l-6.38,27.07c-5.52,0-10.17.45-14.81.01l18.79-73.88c4.62.11,9.29-1.15,13.97-.02Z"/>
          <path class="cls-20" d="M805.38,71.3l5.95,10c18.98-2.01,8.3,2.11,20.42,6.06,2.2,6.59,7.05,9.75,7.04,19.49,0,4.37-8.26,11.43-2.52,12.51l3.94,11.97c.74,2.25-2.41,5.45-1.73,7.85-2.81,2.54-4.08,6.58-5.89,9.91l-18.96.04c-4.54,3.41-7.94,7.51-10.1,12.59-7.32-1.51-10.34.29-15.09,6.49l-4.88-.2c3.12-6.59-8.22-15.71-7.42-22.68,2.44-4.84,4.56-9.61,5.31-15.06,12.67,1.11,10.69,1.93,19.17-6.02,3.29-7.37-.36-16.92-8.15-19.41-2.56-.82-7.07-.88-9.31.17-7.07,3.31-9.7,10.88-7.61,18.3l-10.17,6.53c-2.34,3.55-3.43,7.45-3.68,11.31-2.2.47-4.13,1.48-7.03,1.63.06-3.9-9.89-17.44-13-16.71-1.91-2.43-2.72-6.16-5.86-7.03.2-1.87-1.43-3.25-2.06-5.29-1.14-3.74,4.89-10.29,3.91-15.62l2.38-6.44c1.22-3.31,14.48-12.67,23.31-10.18,4-5.99,8.59-11.65,14.5-15.41l23.43,1.46c1.4,1.41,2.81,2.82,4.12,3.72Z"/>
          <path class="cls-1" d="M802.5,220.16c4.85,13.2,8.59,10.16,23.05,12.6,3.82.64,6.43-5.17,9.27-6.29,3.28-1.3,6.88.88,9.92.56l-19.14,57.78c-5.19-.22-9.73.7-14.14.26-4.71-.47-9.29-.07-13.98-.08-8.22-.02-16.5-1.16-24.69-.16l-8.85-39.74,22.41,4.02,3.13-29.99c4.39.25,8.6,1.61,13.02,1.05Z"/>
          <path class="cls-1" d="M733.73,91.31c-4.95,3.11-11.53,3.52-17.07,4.78-1.15-1.05-3.89-.2-4.99-.85-1.62-.96-4.47-1.62-5.98-3.13-2.46-2.46-4.67-3.78-7.8-5.33-1.79-.88-2.94-4-5.09-3.84-1.06-5.34-4.38-10.34-4.53-15.87-.32-11.51-1.54-22.76-2.68-34.7l7.46-1.4,12.31,6.09c2.89-4.49,4.97-8.71,8.53-12.84,4.02,4.85,7.09,9.76,10.48,14.92,5.21-3.33,10.26-5.35,15.59-7.02,1.91,5.46,2.34,10.28,2.9,15.72,6.83-1.37,13.08.68,18.25,5.23l-15.24,24.15c-3.42,5.43-6.83,10.72-12.16,14.07Z"/>
          <path class="cls-1" d="M643.59,214.91c4.26,1.02,8.87-.27,13.07.19,8.19.91,16.47.97,24.75.97l-2.32,26.03c8.21,1.81,15.83-.06,25.26-1.22l-12.83,43.06c-2.48-1.15-5.52.53-7.96-.06-4.68-1.13-9.34.12-13.97.02s-9.31-.83-14.05-1.23l-20.07-60.85c1.97-2.46,4.93-6.1,8.12-6.91Z"/>
          <path class="cls-13" d="M682.61,177.13c-.77,3.27-1.9,8.29-1.15,11.9,2.74,4.48,9.73,13.9,15.82,12.8.45,3.82-.42,7.58-.52,11.21-3.47-.48-7.26.7-11.15-1.01-1.11-.49-2.89.38-3.39,1-.61.77-.72,2.05-.8,3.04-8.28,0-16.55-.06-24.75-.97-1.94-2.9-4.17-6.25-7.91-6.18-1.34-3.15-3.78-6.46-6.93-7.89-1.69-4.16-4.87-7.75-8.01-10.91,3.75-2.93,12.36-3.08,17.65-7.2,2.72.86,7.07,1.29,10.07,1.85,5.96-1.64,9.8-6.77,13.74-11.11,2.99,1.43,4.94,3.18,7.34,3.46Z"/>
          <path class="cls-2" d="M683.53,67.28l.07,12.74c-3.45,1.11-6.81,3.59-10.84,3.99-4.52-2.72-8.81-6.68-14.29-7.93-3.28.34-7.85,1.72-10.78,2.93-3.28-7.36-6.3-14.84-8.9-23.03l2.68-29.12,22.81,15.79c3.05,5.61,5.49,11.11,7.77,17.13,4.8,6.99,3.45,1.44,11.46,7.49Z"/>
          <path class="cls-2" d="M867.45,176.97c-1.8-1.03-4.89-1.63-5.75-4.03-.98-2.73-.09-5.56-.81-8.39l-11.92-8-9.25,1.34c-1.79-3.21-4.24-6.96-7.14-8.81,1.81-3.33,3.08-7.37,5.89-9.91,3.89.94,8.84-.82,12.88.68,4.96,1.84,9.69-.76,14.07.15,11.02,2.29,20.66,7.51,31.81,10.76-6.63,7.92-11.69,15.03-18.32,21.81-2.83,2.9-8.19,2.75-11.45,4.39Z"/>
          <path class="cls-2" d="M836.25,119.35c-5.73-1.08,2.52-8.14,2.52-12.51.02-9.74-4.84-12.9-7.04-19.49,5.31-3.05,7.16-10.82,12.81-13.65,8.92-4.47,18.28-5.96,28.2-9.52-6.46,27.24-.79,27.68-19.32,45.72-4.8,4.68-12.12,5.78-17.19,9.45Z"/>
          <path class="cls-2" d="M805.38,71.3c-1.31-.91-2.71-2.32-4.12-3.72l-23.43-1.46.8-10.88,7.38-21.61,21.47-18.01,5.22,30.49c-3.13,11.17-2.46,14.68-7.31,25.19Z"/>
          <path class="cls-2" d="M627.58,97.02c.07,3.09.61,6.36-.02,9.92l-6.65,3.47c-1.87.98-3.33,3.22-5.02,3.86l-13.74-9.03c-3.72-2.45-7.87-8.38-9.79-12.46-2.5-9.85-3.66-18.86-4.28-29.15,8.27,5.13,19.19,5.3,24.04,12.01l15.46,21.39Z"/>
          <path class="cls-2" d="M630.32,162.27c.05,1.96-.97,5.3.81,7.17,2.83,2.96,4.58,7.02,7.75,9.49,3.58,2.79,8.66,2.76,12.58,4-5.29,4.13-13.9,4.27-17.65,7.2-6.16.15-12.38.52-19.04-.14l-23.73-14.21c20.86-12.87,14.92-14.98,39.28-13.5Z"/>
          <path class="cls-2" d="M641.82,201.03c3.15,1.43,5.59,4.74,6.93,7.89-2.18,1.52-4.28,3.43-5.17,5.98-3.19.81-6.15,4.45-8.12,6.91l-16,7.31c-6.68,3.05-15.19-1.25-22.68-1.54,5.21-7.28,9.1-13.81,14.68-19.77,12.25-5.63,17.13-6.43,30.35-6.78Z"/>
          <path class="cls-2" d="M860.78,212.9c.18-2.59-.99-5.25-.45-8.09,5.7-3.86,11.32-6.43,9.26-14.74l12.84-1.08,21.53,10.05-17.75,14.98c-6.15.93-12.15.72-18.23-.68-2.62-.33-4.98-.92-7.21-.45Z"/>
          <path class="cls-13" d="M733.73,91.31c1.3,2.32,1.55,5.39,3.92,6.83.98,5.33-5.06,11.88-3.91,15.62.63,2.04,2.26,3.42,2.06,5.29-.5,2.67-.99,5.35-1.06,8.07-5.1.3-10.17,1.46-15.28,1.02.56-11.37-.95-5.32-3.82-13.03-.17-6.37-.7-12.85,1.03-19.02,5.53-1.26,12.11-1.67,17.07-4.78Z"/>
          <path class="cls-3" d="M688.26,67.08c.15,5.53,3.47,10.53,4.53,15.87-3.32.25-6.16-2.06-9.2-2.92l-.07-12.74c1.57-.17,3.15-.27,4.74-.21Z"/>
          <path class="cls-3" d="M696.75,213.04l20.45,2.85c5.67.79,7.89,10.47,25.02,7.85,3.23-.49,5.08-3.77,7.36-5.47,4.92,1.22,9.71,4.02,14.6,4.29,2.47-.9,5.45-5.28,8.54-4.68,5.5,1.06,11.14.91,16.75,1.23l-3.13,29.99-22.41-4.02,8.85,39.74c2.52,11.3,3.97,22.92,7.09,34.13,1.05,3.77,1.43,7.88,2.01,11.72-10.31,7.63-21.15,14.34-33.19,20.73l-2.36-21.39c-.39-3.57-.89-7.58-.98-11.13-.28-11.66-1.97-23.22-2.96-34.81l-3.88-45.5c-3.34-.22-6.52-.57-10.18-.44l-7.58,45.81c-1.91,11.54-5.11,23-6.07,34.74-.29,3.57-1.22,7.7-1.93,11.26l-3.36,16.89-21.75-16.77c-1.14-4.51-6.69-2.89-4.45-11.29l8.06-30.17.24-4.67,12.83-43.06c-9.42,1.16-17.05,3.02-25.26,1.22l2.32-26.03c.09-.99.19-2.27.8-3.04.5-.63,2.28-1.49,3.39-1,3.89,1.71,7.69.53,11.15,1.01Z"/>
          <path class="cls-2" d="M745.36,318.89c.09,3.56.58,7.57.98,11.13l-33.57-.08c.71-3.56,1.64-7.69,1.93-11.26l30.66.2Z"/>
          <g>
            <path class="cls-20" d="M683.6,80.03c3.04.86,5.88,3.17,9.2,2.92,2.15-.16,3.3,2.95,5.09,3.84,3.13,1.55,5.35,2.87,7.8,5.33,1.51,1.51,4.36,2.16,5.98,3.13-2.27,4.36-2.34,9.41-3.31,14.8l7.28,5.07c2.87,7.71,4.38,1.66,3.82,13.03-4.77,4.51-10.5,8.66-13.41,15.09-1.15,2.54,1.08,6.03-.62,8.35-3.69,1.43-9.71-.03-12.73,2.91-15.47,15.07-6.13,5.84-10.08,22.65-2.4-.27-4.35-2.02-7.34-3.46-3.94,4.33-7.78,9.47-13.74,11.11-2.99-.56-7.34-.99-10.07-1.85-3.93-1.24-9-1.22-12.58-4-3.17-2.47-4.92-6.53-7.75-9.49-1.78-1.87-.76-5.21-.81-7.17-.05-1.81.79-3.74.05-5.86-10.19-1.8-11.68-6.14-18.83-13.26,2.11-7.53,1.02-14.48-.1-21.92,1.52-2.62,3.62-4.56,4.45-6.96,1.69-.64,3.15-2.88,5.02-3.86l6.65-3.47c.63-3.56.09-6.83.02-9.92l7.98-12.28c2.12-3.25,8.3-4.15,12.13-5.73,2.93-1.21,7.51-2.58,10.78-2.93,5.47,1.25,9.77,5.21,14.29,7.93,4.03-.4,7.39-2.88,10.84-3.99ZM669.81,143.14c2.9-1.28,6.36-4.14,7.79-6.81,2.57-4.79,1.03-11.75-3.55-16.65-4.09-4.38-12.35-3.64-16.18-.7-5.25,4.03-6.83,9.68-5.09,16.35.68,2.61,4.24,6.38,7.16,7.51,2.66,1.02,7.44,1.37,9.87.3Z"/>
            <path class="cls-1" d="M669.81,143.14c-2.43,1.07-7.21.72-9.87-.3-2.92-1.12-6.48-4.89-7.16-7.51-1.74-6.67-.17-12.32,5.09-16.35,3.83-2.94,12.09-3.68,16.18.7,4.58,4.9,6.12,11.86,3.55,16.65-1.43,2.66-4.88,5.53-7.79,6.81Z"/>
          </g>
          <path class="cls-2" d="M716.66,96.09c-1.73,6.17-1.19,12.65-1.03,19.02l-7.28-5.07c.97-5.39,1.04-10.44,3.31-14.8,1.1.65,3.84-.2,4.99.85Z"/>
          <path class="cls-1" d="M781.43,130.27c-1.45-2.63-3.92-4.86-5.91-6.96-2.08-7.42.55-15,7.61-18.3,2.24-1.05,6.75-.98,9.31-.17,7.79,2.49,11.44,12.04,8.15,19.41-8.47,7.95-6.5,7.12-19.17,6.02Z"/>
          <path class="cls-20" d="M781.43,130.27c-.75,5.45-2.87,10.22-5.31,15.06-4.21.97-10.52-5.02-14.44-4.17.25-3.86,1.34-7.76,3.68-11.31l10.17-6.53c1.98,2.1,4.46,4.33,5.91,6.96Z"/>
          <path class="cls-2" d="M788.42,168.2c-2.81,3.66-1.34,10.56-6.54,14.62-.75-1.25-3.77-2.28-3.17-4.65.99-3.94,3.34-7.04,4.83-10.17l4.88.2Z"/>
          <path class="cls-6" d="M741.65,126.07c-2.17,1.3-4.42.9-6.92,1.05.07-2.72.56-5.4,1.06-8.07,3.14.87,3.95,4.6,5.86,7.03Z"/>
          <g>
            <path class="cls-3" d="M832.57,149.08c2.91,1.85,5.35,5.59,7.14,8.81l9.25-1.34,11.92,8c.73,2.82-.16,5.66.81,8.39.86,2.4,3.95,3,5.75,4.03,4.49,9.97-.13,3.9,2.15,13.1,2.06,8.31-3.56,10.88-9.26,14.74-.54,2.83.63,5.5.45,8.09-2.67,6.8-9.29,11.43-16.04,14.13-3.04.32-6.64-1.87-9.92-.56-2.84,1.13-5.45,6.94-9.27,6.29-14.46-2.44-18.2.6-23.05-12.6-.5-1.36.61-3.58-1-4.55-2.88-1.72-9.93,4.36-14.45-6.18-1.54-3.6-3.4-6.9-2.37-10.47,4.71-8.89-.41-7.92-2.8-16.14,5.19-4.06,3.73-10.96,6.54-14.62,4.76-6.2,7.77-8,15.09-6.49,2.16-5.08,5.56-9.18,10.1-12.59l18.96-.04ZM821.17,202.88c8.38,3.15,15.38-3.14,16.77-6.74,2.59-6.7.23-13.27-4.78-16.29-5.35-3.22-13.46-2.77-16.85,2.74-1.17,1.91-2.86,4.53-3.24,6.76-.87,5.13,2.78,11.53,8.1,13.53Z"/>
            <path class="cls-1" d="M821.17,202.88c-5.32-2-8.97-8.4-8.1-13.53.38-2.23,2.07-4.86,3.24-6.76,3.38-5.52,11.5-5.96,16.85-2.74,5.02,3.02,7.37,9.59,4.78,16.29-1.39,3.61-8.4,9.89-16.77,6.74Z"/>
          </g>
          <path class="cls-13" d="M802.5,220.16c-4.42.56-8.63-.8-13.02-1.05-5.61-.32-11.25-.17-16.75-1.23,1.48-2.05,4.17-2.42,6.29-4.37.56-5.6,3.29-10.08,5.66-14.55-1.04,3.57.82,6.87,2.37,10.47,4.52,10.54,11.58,4.46,14.45,6.18,1.61.97.5,3.18,1,4.55Z"/>
          <path class="cls-3" d="M656.66,215.1c-4.21-.47-8.82.82-13.07-.19.88-2.55,2.98-4.47,5.17-5.98,3.74-.07,5.96,3.28,7.91,6.18Z"/>
          <path class="cls-1" d="M742.4,284.08l-21.63-.14,7.58-45.81c3.66-.13,6.84.22,10.18.44l3.88,45.5Z"/>
          <g>
            <path class="cls-7" d="M761.67,141.15c3.92-.84,10.23,5.14,14.44,4.17-.8,6.97,10.54,16.09,7.42,22.68-1.48,3.13-3.84,6.23-4.83,10.17-.59,2.37,2.42,3.4,3.17,4.65,2.38,8.21,7.51,7.25,2.8,16.14-2.37,4.47-5.11,8.95-5.66,14.55-2.12,1.96-4.81,2.32-6.29,4.37-3.08-.59-6.07,3.78-8.54,4.68-4.89-.27-9.68-3.07-14.6-4.29-2.28,1.69-4.13,4.97-7.36,5.47-17.13,2.62-19.35-7.06-25.02-7.85l-20.45-2.85c.1-3.64.97-7.39.52-11.21-6.09,1.1-13.08-8.32-15.82-12.8-.75-3.61.39-8.63,1.15-11.9,3.94-16.8-5.4-7.58,10.08-22.65,3.02-2.94,9.04-1.47,12.73-2.91,1.7-2.32-.53-5.81.62-8.35,2.91-6.43,8.64-10.58,13.41-15.09,5.11.44,10.19-.72,15.28-1.02,2.5-.15,4.75.25,6.92-1.05,3.11-.73,13.05,12.81,13,16.71,2.89-.15,4.83-1.16,7.03-1.63ZM743.38,171.18c-5.37-5.6-14.93-4.04-18.82,1.23-4.93,6.67-3.72,14.22,2.4,18.78,5.67,4.23,14.45,3.19,18.14-3.19,3.39-5.88,3.45-11.44-1.71-16.82Z"/>
            <path class="cls-1" d="M743.38,171.18c5.16,5.39,5.11,10.94,1.71,16.82-3.69,6.39-12.47,7.42-18.14,3.19-6.12-4.56-7.33-12.11-2.4-18.78,3.9-5.28,13.46-6.83,18.82-1.23ZM733.05,177.85c-2.19.82-2.67,3.33-1.68,5.11s3.15,1.8,5.01,1.05,2.17-2.99,1.35-4.87c-.66-1.52-2.87-1.96-4.67-1.29Z"/>
            <path class="cls-2" d="M733.05,177.85c1.81-.68,4.01-.23,4.67,1.29.82,1.88.52,4.12-1.35,4.87s-4.04.7-5.01-1.05-.51-4.29,1.68-5.11Z"/>
          </g>
        </g>
      </g>
      <g>
        
        
      </g>
      <path class="cls-3" d="M96.73,243.83c-15.61,0-28.27,12.66-28.27,28.27s12.66,28.27,28.27,28.27,28.27-12.66,28.27-28.27-12.66-28.27-28.27-28.27ZM100.59,284.47l-2.96-2.69,6.98-7.68h-22.19v-4h22.19l-6.98-7.68,2.96-2.69,11.25,12.37-11.25,12.37Z"/>
    </g>
  </g>
</svg>