<?xml version="1.0" encoding="UTF-8"?>
<svg id="Layer_2" data-name="Layer 2" xmlns="http://www.w3.org/2000/svg" viewBox="0 0 955.84 357.97">
  <defs>
    <style>
      @import url("https://fonts.googleapis.com/css2?family=Host+Grotesk:wght@600&amp;display=swap");
      .cls-1 {
        fill: #f8dfc2;
      }

      .cls-2 {
        fill: #175dbe;
      }

      .cls-3 {
        fill: #057640;
      }

      .cls-4 {
        fill: #0d452d;
      }

      .cls-5 {
        font-size: 76px;
      }

      .cls-5, .cls-6 {
        fill: #fbf9ef;
        font-family: HostGrotesk-SemiBold, 'Host Grotesk';
        font-variation-settings: 'wght' 600;
        font-weight: 600;
      }

      .cls-7 {
        fill: #ea5781;
      }

      .cls-8 {
        fill: #f5eee6;
      }

      .cls-9 {
        fill: #fa771c;
      }

      .cls-10 {
        fill: #fcbe0c;
      }

      .cls-11 {
        letter-spacing: -.02em;
      }

      .cls-12 {
        letter-spacing: -.02em;
      }

      .cls-13 {
        letter-spacing: -.01em;
      }

      .cls-14 {
        letter-spacing: -.02em;
      }

      .cls-15 {
        letter-spacing: -.02em;
      }

      .cls-16 {
        letter-spacing: -.05em;
      }

      .cls-17 {
        letter-spacing: -.04em;
      }

      .cls-18 {
        letter-spacing: -.04em;
      }

      .cls-19 {
        letter-spacing: -.03em;
      }

      .cls-20 {
        letter-spacing: -.04em;
      }

      .cls-21 {
        letter-spacing: -.03em;
      }

      .cls-22 {
        letter-spacing: -.01em;
      }

      .cls-23 {
        letter-spacing: -.01em;
      }

      .cls-24 {
        letter-spacing: -.01em;
      }

      .cls-25 {
        letter-spacing: -.01em;
      }

      .cls-26 {
        letter-spacing: -.01em;
      }

      .cls-27 {
        letter-spacing: -.01em;
      }

      .cls-28 {
        letter-spacing: 0em;
      }

      .cls-29 {
        letter-spacing: 0em;
      }

      .cls-6 {
        font-size: 31px;
      }
    </style>
  </defs>
  <g id="Layer_1-2" data-name="Layer 1">
    <g>
      <g>
        <rect class="cls-9" width="955.84" height="357.97" rx="36.89" ry="36.89"/>
        <g>
          <polygon class="cls-10" points="689.28 179.41 665.54 186.02 656.15 204.48 661.82 215.85 656.47 235.16 660.95 245.24 669.35 251.4 676.04 263.28 684.26 271.14 709.68 271.14 736.13 266.77 746.66 253.16 742.86 238.22 747.95 237.98 754.54 231.59 757.6 212.18 751.03 192.11 727.66 170.46 706.87 168.63 699.98 167.63 689.28 179.41"/>
          <path class="cls-4" d="M873.73,116c-1.15,4.21-4.97,6.91-7.13,10.54l-4.65,7.8c-4.15,6.97-3.81,15.69-5.29,23.29,3.29-.09,7.97,2.41,11.05,3.85,1.91.89,2.57,3.9,4.62,3.81l19.63-12.96c1.76-6.83,7.79-12.21,8.93-19.22,1.65-10.21.13-20.4.51-31.11l-27.66,13.99Z"/>
          <path class="cls-4" d="M698.42,141.39c-2.7-2.49-3.64-6.4-6.49-8.21l-14.86-9.41-13.16-5.74,1.37,33.2c6.82,10.56,13.8,20.48,24.01,28.18,3.1-3.84,6.2-7.69,9.99-11.02,2.76.11,4.86.62,7.6.25-1.69-9.65-4.41-18.68-8.45-27.25Z"/>
          <path class="cls-4" d="M659.08,217.05c7.66,1.77-2.73-16-.89-16.58l7.36-14.46c-20.51-20.55-16.91-14.95-47.64-18.98,3.83,10.31,3.86,22.73,11,30.33l12.8,13.62c6.01,1.75,10.95,4.58,17.37,6.07Z"/>
          <path class="cls-4" d="M770.88,212.86c-4.49,11.32-5.28,8.26-7.75,22.02-.13.74.23,2.59-.98,2.37-.07.28,0,.61.03.9.58,6.53,5.18,11.92,5.33,17.07,4.38.81,5.42,9.39,10.7,14.26,5.05-5.52,8.27-11.47,13.68-16.28,1.86-1.65,3.78-3.09,4.16-5.33.41-20.04-1.07-13.25-9.29-29.22-9.92.28-11.63-9.03-15.88-5.8Z"/>
          <path class="cls-4" d="M858.58,248.95l4.73,24.15,17.79,5.06c7.92,2.25,16.28-4.37,25.57-6.61-4.5-7.81-8.53-15.32-14.82-21.69-2.41-2.44-7.03-1.55-9.05-4.2-3.37,1.42-7.06,2.27-10.69,4.11-1.73.88-3.33,3.05-5.54,2-2.77-1.31-5.23-2.71-7.99-2.83Z"/>
          <path class="cls-4" d="M663.11,263.28c7.21-.33,8.27-2.86,13.99-3.87-1.13-1.85.95-6.11-1.52-7.61-1.51-.91-4.68,1.07-6.23-.4-2.45-2.33-6.51-3.5-8.4-6.16-2.17-3.06-1.42-7.21-4.48-10.08-3.51-.05-8.4-2.02-11.87-.43-7.01,3.2-13.05,7.47-19.32,11.99l19.3,16.43,18.54.14Z"/>
          <path class="cls-7" d="M697.62,231.75c3.15,2.07,8.81,2.72,12.1,1.6,2.88-.98,7.22-4.27,8.29-6.68,2.67-6.06.68-12.36-3.1-16.32-4.18-4.37-11.44-4.97-17.32-2.02-2,1.9-5.07,6.04-5.92,9.29-1.15,4.4,1.76,11.37,5.96,14.13Z"/>
          <path class="cls-4" d="M744.26,246.58c8.55,2.47,13.34,6.81,23.25,8.64-.15-5.14-4.75-10.53-5.33-17.07-4.23-1.62-5.71-3.26-7.64-6.57-1.15.94-8.61,5.17-11.69,6.63.08,3.33,1.16,5.77,1.4,8.36Z"/>
          <g>
            <path class="cls-7" d="M718.58,147.93c.06,3.85-.56,7.17-1.82,11.21-1.96,6.28,3.46,11.71,8.55,13.74,2.95,3.31,4.68,8.19,7.17,11.85,1.46,2.15-.59,5.49,1.13,7.68,5.17-.4,15.01,4.51,16.91,6.51,6.12,6.43,6.16,18.56,6.16,18.56,0,0,10.3-1.63,14.21-4.61,4.24-3.24,5.96,6.08,15.88,5.8,13.44-.38,6.57-3.56,18.61-8.02-1.21-2.95-3.78-6.54-4.47-10.06l8.63-21.7c9.76-2.04,7.47-4.99,18.58-4.12l2.96-7.79c-2.7-6.9-3.07-14.61-4.05-21.97-.47-3.51-3.41-5.69-6.67-7.09l18.97-1.59,26.84-22.17-1.03-50.82-30.79-20.41-125.01,4.41-27.77,20.94,1.72,49.18,25.84,20.72,14.76.56c-2.62,2.2-5.38,5.71-5.32,9.22ZM746.7,113.89l-4.41,8.96c-1.66,3.37-2.47,6.41-1.69,9.81l-29.44.81-22.66-19.13-1.48-43.57,23.7-17.86,122.31-4.17,26.97,17.52.66,45.38-23.64,20.09-30.17.88c.62-9.06-3.02-10.79-8.18-18.95-5.17-2.94-11.69-3.04-17.08-5.14-3.32,2.24-5.57,4.66-8.99,6.13-14.53-9.51-11.32-3.01-25.9-.75ZM771.55,179.63c-2.39-.09-7.65-1.28-8.94-3.38-7.06-11.41-6.09-10.43-1.21-22.18,14.64-6.52,6.12-4.77,20.23-1.54l6.49,11.68-5.31,12.15c-3.76.79-7.09,3.43-11.26,3.27Z"/>
            <path class="cls-4" d="M771.55,179.63c4.17.16,7.5-2.48,11.26-3.27l5.31-12.15-6.49-11.68c-14.11-3.23-5.58-4.99-20.23,1.54-4.88,11.75-5.85,10.77,1.21,22.18,1.3,2.1,6.55,3.29,8.94,3.38Z"/>
          </g>
          <g>
            <path class="cls-2" d="M831.08,166.95l-2.96,7.79c-11.11-.86-8.82,2.09-18.58,4.12l-8.63,21.7c.69,3.52,3.26,7.11,4.47,10.06.4.98,1.82,1.06,1.24,3.24-.77,2.9-4.12,6.38-3.61,9.54.83,5.09,3.53,10.77,6.73,14.57,2.61,3.1,10.26,1.24,12.62,3.58,2.81,2.79,2.59,10.95,7.29,12.63,5.08,1.81,11.69,3.19,17.18,2.99,4.22-.15,8.69-8.37,11.75-8.24,2.75.12,5.22,1.52,7.99,2.83,2.21,1.04,3.81-1.12,5.54-2,3.63-1.84,7.32-2.7,10.69-4.11,4.11-13.96,8.73-3.45,3.41-22.1,5.29-3.28,9.24-8.08,12.94-12.93l-2.69-10.67c-1.06-4.19.67-10.01-2.82-13.57s-11.98-6.64-17.18-7.44c.9-5.44-2.49-9.49-4.13-13.65-2.05.09-2.71-2.92-4.62-3.81-3.08-1.44-7.76-3.94-11.05-3.85-22.56.61-10.75-4.5-25.58,9.32ZM854.17,220.81c-3.88-.97-7.19.76-10.23-.73-4.96-2.43-9.78-8.46-8.61-14.22.58-2.87,2.82-7.09,4.91-9.43,3.69-4.11,12.01-4.82,16.38-1.39,7.73,6.06,6.25,9.69,6.38,17.41l-8.83,8.36Z"/>
            <path class="cls-10" d="M854.17,220.81l8.83-8.36c-.12-7.72,1.36-11.35-6.38-17.41-4.37-3.42-12.69-2.72-16.38,1.39-2.1,2.34-4.33,6.57-4.91,9.43-1.17,5.76,3.65,11.79,8.61,14.22,3.04,1.49,6.35-.25,10.23.73Z"/>
          </g>
          <g>
            <path class="cls-1" d="M750.16,327.39c1.7-3.66,6.59-5.59,7.44-10.96-5.51,2.43-12.06,1.83-16.65,4.62l-13.27.77-2.07-35.2c9.48.43,19.67-1.03,28.3,2.75l17.97,7.89c3.35,1.47,8.49,1.13,11.75-.38l18.48-8.55c7.81-3.61,16.98-2.86,25.84-4.42l2.34,35.23c-10.97.19-20.33-2.49-31.36-4.17,4.46,6.9,8.3,13.78,13.84,18.9,7.35-.44,20.42,8.11,29.96,7.89l23.5-41.71-2.91-26.95-4.73-24.15c-3.07-.13-7.53,8.09-11.75,8.24-5.49.2-12.1-1.18-17.18-2.99-4.7-1.68-4.48-9.84-7.29-12.63-2.36-2.34-10.01-.48-12.62-3.58-5.14,2.55-8.25,7.9-13.69,9.89-.38,2.24-2.31,3.68-4.16,5.33-5.41,4.82-8.63,10.77-13.68,16.28-5.28-4.87-6.32-13.45-10.7-14.26-9.9-1.83-14.69-6.18-23.25-8.64.28,2.97-1.62,5.16-3.19,7.9l-3.77,6.57c-17.66,4.4-7.3,9.94-26.14,2.17-14.44,11.5-9.54,6.38-29.41,3.79l-4.65-7.6c-5.72,1.01-6.78,3.54-13.99,3.87-.33,2.2-2.51,2.75-5.53,4.32l14.18,53.63,27.54,16.12c4.06-.16,45.3-6.51,49.4-6.16l1.46-3.8Z"/>
            <path class="cls-1" d="M771.48,325.19c.84-3.67,1.05-8.77,3.35-12.36.85-1.34,5.39-1.44,6.33-.14,2.95,4.08,3.54,9.61,5.31,13.94h0c2.06,5.06,22.85,31.33,22.85,31.33h-48.96s4.86-15.81,9.05-26.33c.77-1.92.5-4.79,2.07-6.44"/>
            <path class="cls-3" d="M798.8,357.97l-4.8-12.44c-.56-1.43-1.29-2.54-2.16-3.36-.42-5.52-3.31-10.48-5.37-15.53-1.77-4.34-2.36-9.87-5.31-13.94-.94-1.3-5.48-1.2-6.33.14-2.29,3.59-2.5,8.69-3.35,12.36-1.57,1.65-1.3,4.52-2.07,6.44-3.44,8.62-6,17.22-8.17,26.33h-21.2c-2.15-1.02-4.33-2.1-6.52-3.26,5.13-9.5,12.17-17.74,16.63-27.32,1.7-3.66,6.59-5.59,7.44-10.96-5.51,2.43-12.06,1.83-16.65,4.62l-13.27.77-2.07-35.2c9.48.43,19.67-1.03,28.3,2.75l17.97,7.89c3.35,1.47,8.49,1.13,11.75-.38l18.48-8.55c7.81-3.61,16.98-2.86,25.84-4.42l2.34,35.23c-10.97.19-20.33-2.49-31.36-4.17,4.46,6.9,8.3,13.78,13.84,18.9,1.5,6.07,11.45,16.85,15.48,24.11h-29.43Z"/>
          </g>
          <g>
            <path class="cls-8" d="M676.23,103.57l.84,20.2,30.14,23.49s3.29.47,11.37.67c-.06-3.51,2.7-7.03,5.32-9.22l-14.76-.56-25.84-20.72-1.72-49.18,27.77-20.94,125.01-4.41,30.79,20.41,1.03,50.82-26.84,22.17-18.97,1.59c3.26,1.4,6.2,3.58,6.67,7.09,3.74.27,16.79.13,16.79.13l22.78-18.57s5.99-6.33,7.13-10.54l-.61-32.58-1.91-25.05-34.12-24.85-134.59,6.56-28.54,23.34,2.28,40.15Z"/>
            <path class="cls-8" d="M746.7,113.89c14.59-2.25,11.37-8.76,25.9.75,3.42-1.47,5.67-3.9,8.99-6.13,5.4,2.1,11.91,2.2,17.08,5.14,5.16,8.16,8.81,9.89,8.18,18.95l30.17-.88,23.64-20.09-.66-45.38-26.97-17.52-122.31,4.17-23.7,17.86,1.48,43.57,22.66,19.13,29.44-.81c-.79-3.4.03-6.45,1.69-9.81l4.41-8.96Z"/>
          </g>
          <g>
            <path class="cls-4" d="M700.02,91.22c-.19-5.61,3.48-9.03,8.8-9.21,4.72-.16,8.05,2.41,8.18,6.37.01.39,0,.86-.02,1.1l-3.75.12c.02-.29,0-.55,0-.68-.08-2.33-1.77-3.61-4.1-3.54-2.83.09-4.78,2.28-4.66,5.69.11,3.43,2.25,5.41,5.03,5.31,2.51-.08,3.99-1.5,3.92-3.67,0-.1,0-.26-.04-.55l3.77-.12c.04.34.05.63.05.84.13,3.96-3.06,6.74-7.8,6.89-5.32.18-9.2-3-9.38-8.55Z"/>
            <path class="cls-4" d="M718.7,90.5c-.18-5.53,3.74-8.94,8.96-9.11,5.21-.17,9.36,2.97,9.54,8.5.19,5.63-3.74,9.09-8.95,9.27-5.21.17-9.36-3.02-9.54-8.65ZM732.74,90.06c-.11-3.43-2.25-5.38-4.97-5.29s-4.73,2.18-4.61,5.61c.12,3.48,2.25,5.48,4.98,5.39s4.73-2.23,4.61-5.71Z"/>
            <path class="cls-4" d="M738.88,81.28l6.18-.2,7.14,11.36h.03s-.51-11.58-.51-11.58l4.03-.13.57,17.24-5.08.17-8.27-13.1h-.03s.55,13.36.55,13.36l-4.03.13-.57-17.24Z"/>
            <path class="cls-4" d="M758,89.51c-.19-5.74,3.58-9.24,8.87-9.42,4.35-.14,7.91,2.07,8.04,6,.01.39,0,.81-.02,1.02l-3.75.12c.02-.29,0-.55,0-.73-.07-2.04-1.96-3.11-4.01-3.04-2.93.1-4.88,2.31-4.76,5.93.11,3.43,2.3,5.4,4.97,5.32,1.94-.07,3.84-1.31,3.77-3.27v-.26s-4.46.15-4.46.15l-.08-2.44,8.54-.28.29,8.72-3.33.11c0-.63.02-1.86-.02-2.96h-.03c-.43,2.03-2.38,3.31-5.19,3.4-4.92.16-8.67-2.94-8.85-8.36Z"/>
            <path class="cls-4" d="M776.99,80.02l8.04-.27c4.56-.15,7.08,1.65,7.19,4.9.07,2.2-.82,3.62-2.43,4.14v.05c1.72.34,2.52,1.67,2.59,3.61l.14,4.3-4.3.14-.14-4.17c-.05-1.57-.65-2.23-2.28-2.18l-4.16.14.21,6.42-4.3.14-.57-17.24ZM785.49,87.97c1.81-.06,2.7-.9,2.64-2.5-.05-1.52-1.02-2.4-3.01-2.34l-3.72.12.16,4.85,3.93-.13Z"/>
            <path class="cls-4" d="M806.47,92.79l-6.89.23-1.06,3.55-4.4.15,6.08-17.46,5.34-.18,7.22,17.02-5,.17-1.29-3.47ZM805.49,90.15l-2.79-7.46h-.05s-2.27,7.63-2.27,7.63l5.11-.17Z"/>
            <path class="cls-4" d="M814.99,82.15l-4.9.16-.11-3.38,14.07-.46.11,3.38-4.87.16.46,13.86-4.3.14-.46-13.86Z"/>
            <path class="cls-4" d="M825.31,89.75l3.82-.13c.06,1.86.86,3.04,3.74,2.94,2.91-.1,3.53-1.17,3.49-2.27-.02-.73-.35-1.19-1.04-1.41-.77-.24-2.56-.44-4.01-.6-1.71-.21-3.45-.49-4.47-1.11-1.12-.67-1.74-1.86-1.79-3.51-.11-3.25,2.36-5.59,7.34-5.75,5.48-.18,7.33,2.04,7.46,5.92l-3.8.13c-.06-1.96-1.12-3.01-3.48-2.93-2.33.08-3.3.97-3.26,2.13.03.84.28,1.3.89,1.55.66.26,2.48.49,3.96.68,1.95.25,3.43.52,4.47,1.03,1.25.61,1.95,1.82,2,3.45.1,2.93-1.47,5.61-7.62,5.81-5.92.2-7.59-2.76-7.7-5.93Z"/>
            <path class="cls-4" d="M842.61,91.17l3.9-.13.13,3.93-3.9.13-.13-3.93ZM842.26,80.62l-.1-3.12,3.88-.13.1,3.12-.88,8.45-1.52.05-1.48-8.37Z"/>
          </g>
          <g>
            <polygon class="cls-10" points="653.21 60.08 636.08 70.64 627.26 53.98 643.96 42.6 653.21 60.08"/>
            <path class="cls-2" d="M923.7,65.94c-5.6-1.24-9.79-3.86-14.88-5.54l8.69-20.54c4.98,2.19,9.63,4.14,14.15,6.71l-7.96,19.38Z"/>
            <path class="cls-10" d="M938.38,250.69c-3.48,4.8-7.39,8.17-11.42,12.57l-14.01-14.72,11.3-12.58,14.13,14.74Z"/>
            <polygon class="cls-2" points="620.28 231.74 606.83 224.2 617.58 205.97 630.82 213.68 620.28 231.74"/>
          </g>
        </g>
      </g>
      <path class="cls-8" d="M96.73,243.75c-15.61,0-28.27,12.66-28.27,28.27s12.66,28.27,28.27,28.27,28.27-12.66,28.27-28.27-12.66-28.27-28.27-28.27ZM100.59,284.39l-2.96-2.69,6.98-7.68h-22.19v-4h22.19l-6.98-7.68,2.96-2.69,11.25,12.37-11.25,12.37Z"/>
      <g>
        
        
      </g>
    </g>
  </g>
</svg>