<?xml version="1.0" encoding="UTF-8"?>
<svg id="Layer_2" data-name="Layer 2" xmlns="http://www.w3.org/2000/svg" viewBox="0 0 955.84 357.97">
  <defs>
    <style>
      @import url("https://fonts.googleapis.com/css2?family=Host+Grotesk:wght@600&amp;display=swap");
      .cls-1 {
        fill: #f8dfc2;
      }

      .cls-2 {
        fill: #175dbe;
      }

      .cls-3 {
        fill: #057640;
      }

      .cls-4 {
        fill: #0d452d;
      }

      .cls-5 {
        font-size: 76px;
      }

      .cls-5, .cls-6 {
        fill: #fbf9ef;
        font-family: HostGrotesk-SemiBold, 'Host Grotesk';
        font-variation-settings: 'wght' 600;
        font-weight: 600;
      }

      .cls-7 {
        fill: #ea5781;
      }

      .cls-8 {
        fill: #f5eee6;
      }

      .cls-9 {
        fill: #fa771c;
      }

      .cls-10 {
        fill: #fcbe0c;
      }

      .cls-11 {
        letter-spacing: -.1em;
      }

      .cls-12 {
        letter-spacing: -.02em;
      }

      .cls-13 {
        letter-spacing: -.05em;
      }

      .cls-14 {
        letter-spacing: 0em;
      }

      .cls-15 {
        letter-spacing: -.01em;
      }

      .cls-16 {
        letter-spacing: 0em;
      }

      .cls-17 {
        letter-spacing: 0em;
      }

      .cls-6 {
        font-size: 31px;
      }
    </style>
  </defs>
  <g id="Layer_1-2" data-name="Layer 1">
    <g>
      <g>
        <rect class="cls-3" width="955.84" height="357.97" rx="36.89" ry="36.89"/>
        <g>
          <g>
            <path class="cls-7" d="M820.14,151.37l-12.64-1.7c-4.44,2.91-10.49,6.29-12.68,10.76l-2.23,4.56c-6.32-.74-16.72-.65-19.19,5.63l-8.2-1.95-6.28-12.87c-3.53-1.86-8.47-4.88-12.25-4.78l-9.79.25c-1.59-1.56-.66-4.75-2.03-6.63-3.54-4.84-8.9-7.81-11.8-12.78.41-1.66,1.33-2.95,2.66-4.97-4.94-4.62-8-10.44-11.73-16.17-1.17-1.8-3-3.65-1.65-6.08,2.83-5.08,4.68-10.51,7.52-15.54l6.9-12.21c4.9.55,8.95-.51,13.62-.83,2.59-.17,6.71,2.6,8.68.38,1.51-1.98-.23-6.2,2.01-8.18,5.47-4.85,10.77-9.37,15.93-14.74l27.52,4.13c1.18.18,2.63,1.4,3.08,2.41,2.57,5.82,6.63,10.48,9.72,16.04,1.01,2.5-1.39,5.3-.65,8.15,3.64-.99,6.79-.4,10.27.57l10.76,3,9.36,27.35-6.65,13.24c-1.92,3.82-7.17,4.9-10.89,6.32-.59,3.12,1.97,5.47,1.63,8.26l-1.02,8.37ZM787.6,123.02l.33-15.46c-4.52-1.34-8.05-6.18-12.65-6.49-4.69-.31-8.92,3.99-13.43,5.11.38,5.69-2.37,10.95-1.06,15.62.88,3.13,13.17,9.22,13.15,9.22.9.09,11.8-6.28,13.66-8.01Z"/>
            <path class="cls-2" d="M787.6,123.02c-1.86,1.73-12.76,8.1-13.66,8.01.02,0-12.27-6.09-13.15-9.22-1.31-4.67,1.44-9.94,1.06-15.62,4.5-1.12,8.74-5.42,13.43-5.11,4.6.3,8.13,5.15,12.65,6.49l-.33,15.46Z"/>
          </g>
          <path class="cls-4" d="M656.81,142.12c-5.03,2.38-4.75,15.97-8.11,25.92-5.74-1.71-11.09-3.99-17.7-5.01l-13.79-11.09-13.01-36.03c13.27,3.34,25.47,4.62,37.09,8.89,5.94,4.79,11.11,11.6,15.53,17.32Z"/>
          <path class="cls-4" d="M848.53,151.88c-1.67-.41-3.66.73-5.95.35l-.16-6.96c-.1-4.39-4.7-8.09-6.27-12.77-4.01-1.62-8.14-1.18-11.58-3.22,1.36-.48,2.53-1.39,2.88-3.52,4.52-5,6.36-13.6,12.01-17.68l31.75-11.81c-2.19,11.72.35,25.57-6.38,34.35l-16.3,21.26Z"/>
          <path class="cls-4" d="M696.81,110.11c-2.5.24-5.14,1.91-8.36,1.68-2.82,5.52-8.2,9.87-8.86,15.4l-.82,6.85-17.02-18.86c-.22-4.91-3.99-9.19-3.77-14.05.47-10.2,3.63-19.48,5.23-29.84,7.99,6.01,16.14,10.59,23.17,17.34,1.3,1.25,11.66,17.5,10.42,21.47Z"/>
          <path class="cls-4" d="M668.71,195.09c-.02,4.07,1.22,12.01,2.51,16.21,3.17,2.66,6.41,3.27,8.61,5.82l-26.97-.19c-.45-.69-1.27-1.16-2.42-1.43l-15.68-3.4-18.18-22.15,29.79-4.31c7.78,3.38,14.78,7.16,22.34,9.45Z"/>
          <path class="cls-4" d="M857.83,196.65c1.17-4.8,6.82-7.81,9.18-12.23l-3.06-23,11.74-6.72c10.13-1.01,20.01-.02,29.93.03l-15.34,29.08-19.54,9.15c-4.33,2.03-8.68,2.98-12.9,3.7Z"/>
          <path class="cls-4" d="M777.52,213.26c-.94,1.33-1.75,2.77-2.01,4.39l-26.99-.1c-.33-1.49-.36-3.02-.34-4.55.67-3.09,5.46-2.71,7.18-5.19,3.56-5.13,4.14-11.85,7-17.46-1.77-2.38-1.75-4.44-2.51-6.32,2.46-1.7,3.65-7.08,6.69-7.96l7.89,8.45c-.26,6.06-6.88,13.27-3.59,18.37l6.68,10.37Z"/>
          <g>
            <path class="cls-1" d="M652.86,216.93l26.97.19,32.02.05c3.61,0,7.28.83,10.9.2-.04.96,1.06.94,1-.02.35,0,.7-.02,1.04.02,4.31.41,8.66-.1,12.95.61l1.09.02c.66.01,1.32-.35,1.97-.35l7.71-.09,26.99.1,7.3.08c7.4.09,14.92.82,22.8-.05,3.39-.37,7.16-.97,10.08,1.66,12.85,11.55,22.61-2.75,32.95-1.49,5.36.66,10.67-.35,16.67.81l-19.84,35.69,16.95,46.19c-6.37,21.66-22.62,57.42-22.62,57.42h-167.94l-15.63-40.4c-1.98-5.86-6.28-13.04-5-19.14l16.82-45.39-19.48-35.37c1.85-.93,3.14-.74,4.27-.74ZM775.87,271.4l20.55-23.04,20.17,23.15,20.69-29.85-159.88-.89,19.44,28.11,17.9-21.48,20.27,23.56,20.54-22.41,20.32,22.86ZM682.73,312.22l13.91-16.96-13.95-16.62-14.49,17.08,14.52,16.5ZM718.98,312.43l14.24-16.76c-5.04-5.95-9.26-11.74-14.69-16.98l-14.37,17.05,14.83,16.69ZM756.11,312.53c5.36-6.13,10.09-10.99,14.18-17.13l-14.56-16.77-14.3,17.22,14.68,16.68ZM794.29,312.76l14.3-17.11-14.56-16.85-15.06,17.36,15.31,16.59ZM831.03,312.78l14.56-16.73-14.84-17.25-14.42,17.2c4.86,5.74,8.93,11.24,14.69,16.78ZM699.83,348.88l-6.28-22.8c-5.32-.01-10.07-.62-15.21.4l6.76,22.95c5.14-.18,9.74.64,14.72-.55ZM726.62,348.9l-3.81-22.65c-5.28-.45-9.9-.43-15.15.01l4.75,23.03c4.88.06,9.47.7,14.21-.4ZM752.83,349.05l-1.74-22.96c-5.36.06-9.82-.47-14.44.32l2.22,23.05c4.99-.15,9.4.54,13.97-.41ZM779.46,349.39l2.22-23.16c-5.15-.28-9.72-.3-14.76-.02l-1.43,23.21,13.96-.03ZM805.13,349.39l4.68-23.1c-5.19-.14-9.69-.42-14.51.14l-4.58,22.88c4.85.39,9.44.56,14.4.08ZM830.14,349.7l7.76-23.06-14.75-.38-7.38,23.16,14.37.28Z"/>
            <polygon class="cls-7" points="775.87 271.4 755.54 248.53 735 270.94 714.73 247.39 696.83 268.87 677.39 240.76 837.28 241.64 816.59 271.5 796.42 248.35 775.87 271.4"/>
            <polygon class="cls-4" points="794.29 312.76 778.98 296.17 794.04 278.81 808.6 295.65 794.29 312.76"/>
            <path class="cls-4" d="M831.03,312.78c-5.77-5.54-9.83-11.05-14.69-16.78l14.42-17.2,14.84,17.25-14.56,16.73Z"/>
            <path class="cls-4" d="M756.11,312.53l-14.68-16.68,14.3-17.22,14.56,16.77c-4.08,6.13-8.82,11-14.18,17.13Z"/>
            <path class="cls-4" d="M718.98,312.43l-14.83-16.69,14.37-17.05c5.43,5.24,9.65,11.02,14.69,16.98l-14.24,16.76Z"/>
            <polygon class="cls-4" points="682.73 312.22 668.2 295.71 682.69 278.63 696.63 295.26 682.73 312.22"/>
            <path class="cls-2" d="M699.83,348.88c-4.98,1.19-9.58.37-14.72.55l-6.76-22.95c5.13-1.02,9.89-.41,15.21-.4l6.28,22.8Z"/>
            <polygon class="cls-2" points="830.14 349.7 815.77 349.42 823.15 326.26 837.9 326.64 830.14 349.7"/>
            <path class="cls-2" d="M805.13,349.39c-4.96.47-9.55.3-14.4-.08l4.58-22.88c4.82-.55,9.32-.27,14.51-.14l-4.68,23.1Z"/>
            <path class="cls-2" d="M779.46,349.39l-13.96.03,1.43-23.21c5.04-.28,9.61-.26,14.76.02l-2.22,23.16Z"/>
            <path class="cls-2" d="M726.62,348.9c-4.74,1.1-9.33.46-14.21.4l-4.75-23.03c5.25-.44,9.87-.46,15.15-.01l3.81,22.65Z"/>
            <path class="cls-2" d="M752.83,349.05c-4.56.95-8.97.25-13.97.41l-2.22-23.05c4.62-.79,9.08-.26,14.44-.32l1.74,22.96Z"/>
          </g>
          <g>
            <path class="cls-10" d="M717.79,108.11c3.15,5.41,8.99,8.64,12.85,13.92,1.49,2.04.48,5.52,2.21,7.22l10.66-.27c4.11-.1,9.49,3.19,13.33,5.21l6.83,14.01c1.57,3.22,2.22,7.82,4.23,10.93-1.19,2.55-1.77,5.46-3.34,7.93-.2.32-.5.71-.57,1.09-.11.65-.05,1.33-.22,1.98-2.17,1.23-4.93,3.22-6.62,5.66-1.77,2.57,1.73,6.11,2.69,8.25.75,1.88.74,3.93,2.51,6.32-2.85,5.61-3.44,12.33-7,17.46-1.72,2.48-6.51,2.11-7.18,5.19-3.17-.33-5.8,2.02-7.36,4.64-.66,0-1.32.37-1.97.35.19-.89-.71-.43-1.09-.02-4.29-.71-8.63-.19-12.95-.61-1.92-1.94-5.18-3.08-8.21-3.93-2.11-.59-3.65,2.68-4.73,3.74l-32.02-.05c-2.21-2.56-5.45-3.17-8.61-5.82-1.29-4.19-2.54-12.13-2.51-16.21.04-7.01-2.11-2.11-8.05-7.88-4.14-4.02-7.73-7.9-12.33-11.81.57-2.38-.32-5.33.37-7.36,3.36-9.95,3.08-23.54,8.11-25.92,3.52-.6,6.97-3.59,10.36-5.42,4.21-2.28,11.04,2.14,11.61-2.65l.82-6.85c.66-5.53,6.04-9.88,8.86-15.4,3.22.23,5.86-1.44,8.36-1.68l20.98-2.01ZM721,177.66c8.06-9.79-1.52-20.23-2.09-20.46l-10.13-4.08c-2.94,2.32-6.87,2.16-9.41,4.57-7.71,7.31-5.03,19.93,2.03,23.68,7.87,4.19,15.27,1.57,19.61-3.71Z"/>
            <path class="cls-4" d="M724.8,217.37c-.34-.03-.7-.02-1.04-.02s-.68-.04-1,.02c-3.62.63-7.29-.19-10.9-.2,1.09-1.06,2.63-4.33,4.73-3.74,3.03.85,6.29,1.99,8.21,3.93Z"/>
            <path class="cls-1" d="M722.76,217.37c.32-.06.67,0,1-.02.06.95-1.03.97-1,.02Z"/>
            <path class="cls-10" d="M738.84,218l-1.09-.02c.37-.41,1.27-.87,1.09.02Z"/>
            <path class="cls-7" d="M721,177.66c-4.34,5.28-11.74,7.9-19.61,3.71-7.06-3.75-9.74-16.37-2.03-23.68,2.55-2.41,6.47-2.25,9.41-4.57l10.13,4.08c.57.23,10.14,10.67,2.09,20.46Z"/>
          </g>
          <g>
            <path class="cls-2" d="M823.5,129.36l1.08-.08c3.44,2.03,7.57,1.6,11.58,3.22,1.57,4.67,6.16,8.37,6.27,12.77l.16,6.96c2.29.38,4.28-.76,5.95-.35,5.56,1.38,12.3,4.51,15.41,9.55l3.06,23c-2.36,4.42-8.01,7.42-9.18,12.23-2.03.34-3.99,1.41-6.26,2.6,1.87,6.78.48,13.25-2.92,18.61-10.34-1.27-20.1,13.04-32.95,1.49-2.92-2.62-6.69-2.03-10.08-1.66-7.88.87-15.41.13-22.8.05-.62-2.47-3.34-3.64-5.29-4.48l-6.68-10.37c-3.29-5.1,3.33-12.32,3.59-18.37l-7.89-8.45c-.87-1.73-.62-4.77-2.76-5.94.17-.65.11-1.33.22-1.98.46-.15.6-.64.57-1.09,1.57-2.48,2.15-5.39,3.34-7.93,1.39-2.97,3.47-5.68,4.7-8.81,2.69-6.84,14.01-6.94,20.89-6.14l2.43-4.96c2.38-4.86,8.97-8.55,13.81-11.71l13.77,1.86ZM812.28,190.27c4.53.98,11.23-.47,14.34-4.2,1.9-2.28,3.79-6.91,3.65-9.88-.16-3.29-2.83-8.2-5.39-9.86-4.66-3.03-11.8-4.43-16.13-1-7.76,6.14-7.4,11.92-4.12,20.08,1.58,1.57,5.19,4.33,7.66,4.86Z"/>
            <path class="cls-9" d="M764,168.15c.06-.38.36-.77.57-1.09.03.45-.1.94-.57,1.09Z"/>
            <path class="cls-10" d="M812.28,190.27c-2.47-.53-6.08-3.29-7.66-4.86-3.28-8.16-3.64-13.94,4.12-20.08,4.33-3.43,11.47-2.03,16.13,1,2.56,1.66,5.23,6.58,5.39,9.86.15,2.97-1.75,7.6-3.65,9.88-3.11,3.73-9.81,5.18-14.34,4.2Z"/>
          </g>
        </g>
      </g>
      <g>
        
        
      </g>
      <path class="cls-8" d="M96.73,243.43c-15.61,0-28.27,12.66-28.27,28.27s12.66,28.27,28.27,28.27,28.27-12.66,28.27-28.27-12.66-28.27-28.27-28.27ZM100.59,284.07l-2.96-2.69,6.98-7.68h-22.19v-4h22.19l-6.98-7.68,2.96-2.69,11.25,12.37-11.25,12.37Z"/>
    </g>
  </g>
</svg>