<?xml version="1.0" encoding="UTF-8"?>
<svg id="Layer_2" data-name="Layer 2" xmlns="http://www.w3.org/2000/svg" viewBox="0 0 955.84 357.97">
  <defs>
    <style>
      @import url("https://fonts.googleapis.com/css2?family=Host+Grotesk:wght@600&amp;display=swap");
      .cls-1 {
        fill: #a2cfeb;
      }

      .cls-2 {
        fill: #f8dfc2;
      }

      .cls-3 {
        font-size: 31px;
      }

      .cls-3, .cls-4, .cls-5 {
        fill: #0d452d;
      }

      .cls-3, .cls-5 {
        font-family: HostGrotesk-SemiBold, 'Host Grotesk';
        font-variation-settings: 'wght' 600;
        font-weight: 600;
      }

      .cls-6 {
        fill: #ea5781;
      }

      .cls-5 {
        font-size: 76px;
      }

      .cls-7 {
        fill: #f5eee6;
      }

      .cls-8 {
        fill: #fa771c;
      }

      .cls-9 {
        fill: #fcbe0c;
      }

      .cls-10 {
        letter-spacing: -.02em;
      }

      .cls-11 {
        letter-spacing: -.02em;
      }

      .cls-12 {
        letter-spacing: -.02em;
      }

      .cls-13 {
        letter-spacing: -.05em;
      }

      .cls-14 {
        letter-spacing: 0em;
      }

      .cls-15 {
        letter-spacing: 0em;
      }

      .cls-16 {
        letter-spacing: -.01em;
      }
    </style>
  </defs>
  <g id="Layer_1-2" data-name="Layer 1">
    <g>
      <g>
        <rect class="cls-1" width="955.84" height="357.97" rx="36.89" ry="36.89"/>
        <g>
          <g>
            <path class="cls-4" d="M873.39,123.7c-2.71.22-5.62.23-8.35.4l-23.54,1.49-7.82,30.96c-1.08,4.29-1.14,8.61-3.2,13l-124.81-33.22,10.65-41.14-58.83-26.01,85.22-28.22,126.11,38.41,38.11,41.66-33.55,2.67Z"/>
            <path class="cls-9" d="M873.39,123.7l2.61,36.89c1.76,2.1,3.83,3.4,5.18,5.65l11.51,47.21-31.47,3.22,2.46-49.34,4.98-6.47-3.62-36.77c2.73-.17,5.63-.19,8.35-.4Z"/>
          </g>
          <path class="cls-2" d="M636.5,198.81c1.19,1.47,2.92,2.08,5.03,2.57l21.53,4.99,20.21,22.6c2.13,2.38,3.78,5.74,6.2,8.46l16.76,18.8c6.35,7.12,11.21,16.04,18.3,23.58,4.61-.09,8.27-4.44,12.08-5.96,1.32-.53,16.23-5.88,15.87-8.59,8.72.13,1.04,2.76,15.25,3.24,2.22,2.9,3.5,8.57,7.21,10.05,4.01,1.61,9.91,3.21,14.17,2.74s6.74-5.77,10.24-7.26c12.58,2.79,4,2.63,18.33-.01l10.74-13.81-2.21-10.76c2.24-3.3,7.29-5.08,8.66-9.1s-1.86-9.29-.73-13.31l53.8-1.36-72.91,85.52c-13.47,15.8-27.05,30.54-39.31,46.49h-50.79s10.69-21.39,10.69-21.39l-33.51-13.83,30.08-6.23-6.79-24.16-48.47,21.81c-5.57,1.56-11.96-1.96-17.07-2.67.36-2.2-1.14-3.88-2.3-6.09l-33.77-64.25-25.86-50.08,35.3,8.41c1.34.32,2.47.43,3.25-.41Z"/>
          <path class="cls-6" d="M724.93,357.7l-10.57.24-31.76-31.06c-2.84,6.77-4.97,13.02-6.54,19.49-.89,3.68-4.55,7.23-4.6,11.4-5.86.04-10.85.51-15.83-.1-1.62-2.66-5.3-2.49-8.82-4.09l20.24-25.7-30.82,8.14,7.13-27.08,16.51,2.31c5.1.71,11.5,4.23,17.07,2.67l48.47-21.81,6.79,24.16-30.08,6.23,33.51,13.83-10.69,21.39Z"/>
          <path class="cls-2" d="M714.36,357.93l-33.17-.24c-1.25-3.9-2.55-8.13-5.13-11.33,1.56-6.47,3.7-12.72,6.54-19.49l31.76,31.06Z"/>
          <path class="cls-4" d="M821.28,226.39c-4.11-4.15-10.17-6.74-16.79-6.53-.8-2.69.2-4.85.14-7.11l10.88-20.42,33.89-14.97c-2.64,11.13-4.53,21.72-8.37,31.91l-11.11,11.1-8.65,6.03Z"/>
          <g>
            <path class="cls-6" d="M798.31,149.19c11.28,27.92,9.93,12.56,4.76,35.22-.68,2.96-10.2,3.4-8.64,9.24-1.66-.75-5.86-.92-7.48-.06-23.62,20.24,2.23,9.28-29.46,13.27-3.41,5.71-7.44,10.32-10.87,15.36-6.08.37-11.79-1.22-17.66-2.65-.54-2.17-3.66-4.24-5.03-5.84-6.42-7.52-1.86-14.03-5.6-14.6.25-4.12.56-8.15.14-12.76-.26-2.87,2.81-6.71,1.15-9.46-2.47-4.09-6.06-7.57-9.31-11.1-1.34-1.46-4.4-1.12-5.7-1.99,2.52-5.94,4.64-12.41,8.02-18.18l11.54-4.05c2.56-.9,5.2.82,7.61.07.62-2.86,1.35-6.55,3.09-8.74,3.52-1.58,5.94-4.84,9-8.04l25.12,2.54c5.35,8.17,9.16,8.75,9.85,17.94,4.35-.91,8.03-.2,11.97,1.19l7.51,2.65ZM759.02,187.04c2.81-1.88,6.58-4.34,8.38-6.87,1.64-4.85-.68-9.66-1.39-14.36l-10.09-4.9c-8.7.96-10.15,2.66-14.51,10.69-.76,4.05,2.03,7.87,1.78,11.9,3.89,1.31,11.74,6.28,15.83,3.55Z"/>
            <path class="cls-4" d="M759.02,187.04c-4.09,2.73-11.94-2.23-15.83-3.55.25-4.03-2.54-7.86-1.78-11.9,4.36-8.03,5.81-9.73,14.51-10.69l10.09,4.9c.71,4.7,3.03,9.52,1.39,14.36-1.8,2.53-5.57,5-8.38,6.87Z"/>
          </g>
          <g>
            <path class="cls-9" d="M794.43,193.64c3.29,1.48,10.95,1.27,13.97,3.72,3.43,2.77,3.79,8.02,7.32,10.26.06,2.26-.94,4.42-.14,7.11,6.62-.21,12.68,2.38,16.79,6.53-.02,1.89.62,4.37,1.77,5.78-1.13,4.02,2.12,9.23.73,13.31s-6.42,5.8-8.66,9.1l2.21,10.76-10.74,13.81c-14.33,2.64-5.76,2.8-18.33.01-3.5,1.49-6.09,6.81-10.24,7.26s-10.17-1.14-14.17-2.74c-3.71-1.49-4.99-7.16-7.21-10.05-14.21-.48-6.53-3.11-15.25-3.24-2.6-2.31-2.62-5.98-4.04-9.11-7.25-15.95,8.36-14.78.05-24.43-1.88-2.19-3.81-6.67-1.86-9.52,3.43-5.03,7.46-9.64,10.87-15.36,31.69-3.99,5.84,6.97,29.46-13.27,1.62-.86,5.82-.69,7.48.06ZM794.86,250.43c3.02-2.89,5.74-5.23,8.14-8.72-1.15-3.5-.38-8.08-2.75-11.06-3.26-4.1-10.91-5.5-15.71-3.05-3.44,1.75-4.73,6.75-7.68,9.5l4.27,11.21c4.42,1.73,8.91,2.86,13.74,2.13Z"/>
            <path class="cls-6" d="M794.86,250.43c-4.82.73-9.32-.4-13.74-2.13l-4.27-11.21c2.96-2.74,4.24-7.75,7.68-9.5,4.8-2.45,12.45-1.05,15.71,3.05,2.37,2.98,1.6,7.56,2.75,11.06-2.4,3.49-5.12,5.83-8.14,8.72Z"/>
          </g>
          <g>
            <path class="cls-7" d="M704.61,163.81c1.3.88,4.36.53,5.7,1.99,3.25,3.53,6.83,7.01,9.31,11.1,1.66,2.74-1.41,6.59-1.15,9.46.41,4.61.11,8.64-.14,12.76-4.15,4.18-9.99,6.36-15.88,8.47-1.24,5.96-3.35,11.64-5.9,17.57l-13.28,3.8-20.21-22.6-21.53-4.99c-2.11-.49-3.84-1.11-5.03-2.57-1.41-3.83-5.36-6.19-8.39-9.39-2.56-2.71,3.36-16.96,2.58-23.51l10.81-6.57c2.66-1.62,6.11-2.06,8.83-2.79l4.51-16.11,23.26-10.59c8.83,5.09,16.7,10.87,24.41,17.25.18,5.56-1.68,10.36-1.05,15.57.17,1.37,2.51.71,3.16,1.15ZM683.66,187.51c2.17-2.96,3.4-8.26,3.52-11.25-1.71-3.48-4.67-7.89-7.66-9.73-4.85-2.98-11.01.17-15.68,2.25-.76,4.77-3.75,8.44-3.5,13.2,1.67,2.41,4.2,6.54,7.19,8.26,4.14,2.37,12.92,1.64,16.14-2.74Z"/>
            <path class="cls-9" d="M683.66,187.51c-3.21,4.38-12,5.11-16.14,2.74-2.99-1.71-5.51-5.85-7.19-8.26-.25-4.77,2.74-8.43,3.5-13.2,4.67-2.08,10.83-5.23,15.68-2.25,2.99,1.83,5.95,6.25,7.66,9.73-.12,2.99-1.34,8.29-3.52,11.25Z"/>
          </g>
          <g>
            <path class="cls-8" d="M718.27,199.9c3.29,1.48,10.95,1.27,13.97,3.72,3.43,2.77,3.79,8.02,7.32,10.26.06,2.26-.94,4.42-.14,7.11,6.62-.21,12.68,2.38,16.79,6.53-.02,1.89.62,4.37,1.77,5.78-1.13,4.02,2.12,9.23.73,13.31s-6.42,5.8-8.66,9.1l2.21,10.76-10.74,13.81c-14.33,2.64-5.76,2.8-18.33.01-3.5,1.49-6.09,6.81-10.24,7.26s-10.17-1.14-14.17-2.74c-3.71-1.49-4.99-7.16-7.21-10.05-14.21-.48-6.53-3.11-15.25-3.24-2.6-2.31-2.62-5.98-4.04-9.11-7.25-15.95,8.36-14.78.05-24.43-1.88-2.19-3.81-6.67-1.86-9.52,3.43-5.03,7.46-9.64,10.87-15.36,31.69-3.99,5.84,6.97,29.46-13.27,1.62-.86,5.82-.69,7.48.06ZM718.71,256.69c3.02-2.89,5.74-5.23,8.14-8.72-1.15-3.5-.38-8.08-2.75-11.06-3.26-4.1-10.91-5.5-15.71-3.05-3.44,1.75-4.73,6.75-7.68,9.5l4.27,11.21c4.42,1.73,8.91,2.86,13.74,2.13Z"/>
            <path class="cls-9" d="M718.71,256.69c-4.82.73-9.32-.4-13.74-2.13l-4.27-11.21c2.96-2.74,4.24-7.75,7.68-9.5,4.8-2.45,12.45-1.05,15.71,3.05,2.37,2.98,1.6,7.56,2.75,11.06-2.4,3.49-5.12,5.83-8.14,8.72Z"/>
          </g>
        </g>
      </g>
      <g>
        
        
      </g>
      <path class="cls-4" d="M96.73,243.67c-15.61,0-28.27,12.66-28.27,28.27s12.66,28.27,28.27,28.27,28.27-12.66,28.27-28.27-12.66-28.27-28.27-28.27ZM100.59,284.31l-2.96-2.69,6.98-7.68h-22.19v-4h22.19l-6.98-7.68,2.96-2.69,11.25,12.37-11.25,12.37Z"/>
    </g>
  </g>
</svg>