<?xml version="1.0" encoding="UTF-8"?>
<svg data-normalized-width="955.84" id="Layer_2" data-name="Layer 2" xmlns="http://www.w3.org/2000/svg" viewBox="0 0 955.84 357.97">
  <defs>
    <style>
      .cls-1 {
        fill: #fbf9ef;
        font-family: HostGrotesk-SemiBold, 'Host Grotesk';
        font-size: 80px;
        font-variation-settings: 'wght' 600;
        font-weight: 600;
      }

      .cls-2 {
        fill: #f8dfc2;
      }

      .cls-3 {
        fill: #057640;
      }

      .cls-4 {
        fill: #0d452d;
      }

      .cls-5 {
        fill: #ea5781;
      }

      .cls-6 {
        fill: #f5eee6;
      }

      .cls-7 {
        fill: #f790a5;
      }

      .cls-8 {
        fill: #fa771c;
      }

      .cls-9 {
        fill: #4f8c55;
      }

      .cls-10 {
        letter-spacing: -.01em;
      }
    </style>
  </defs>
  <g class="arrangement-artwork-width-normalizer" transform="scale(1.0790210422 1)">
  <g id="Layer_1-2" data-name="Layer 1">
    <g>
      <rect class="cls-3" x="0" width="885.84" height="357.97" rx="36.89" ry="36.89"/>
<g>
        <path class="cls-2" d="M619,226.17c2.33,2.57,4.82,4.81,7.39,7.12l59.27,53.42c5.09-1.72,8.99-4.17,13.25-6.05l56.54-24.89c1.16.86,2.7,2.14,3.75,3.63,4.82,6.82,11.35.84,14.24.57,2.67-.24,3.78,5.18,6.52,4.8l9.08-1.26c4.27-.59,7.91-5.15,9.63-8.75,2.39-.2,4.8-.29,7.13-.87-.75,2.5-4.4,2.49-4.67,5.88l-52.49,61.07-25.79,30.7c-1.8,2.14-3.88,3.87-4.34,6.41l-26.89-.05c-1.58,0-3.27-.15-3.85-1.3,1.88-.45,3.84-1.9,6.42-2.03l-16.72-23.52,23.09,6.05,1.8-31.26c-6.94-.88-13.47.2-20.32,1.71l-15.95,3.52c-8.76,1.93-15.57-2.51-22.77-6.23-8.48-4.38-17.52-6.87-26.06-9.98l-26.83-71.81c6.41.04,12-1.91,18.69-5.08,2.52,3.66,7.3,5.32,9.89,8.17Z"/>
        <g>
          <path class="cls-5" d="M687.75,356.62c-5.83,1.4-11.66,1.39-17.52,1.32-2.66-9.52-6.11-18.79-9.32-28.14-.92-2.68-1.17-4.97-4.59-5.03-2.65-.04-4.49,1-4.63,3.88-2.99,1.93-4.92,5.13-7.16,8.33l-10.94,15.63c-1.16,1.66-2.34,3.09-2.39,4.87l-23.2.2c-.27-2.57-2.57-3.89-4.78-6.61l32.26-26-28.06-.04,9.83-30.14c8.53,3.1,17.58,5.59,26.06,9.98,7.2,3.72,14.01,8.16,22.77,6.23l15.95-3.52c6.85-1.51,13.38-2.59,20.32-1.71l-1.8,31.26-23.09-6.05,16.72,23.52c-2.58.13-4.54,1.57-6.42,2.03Z"/>
          <path class="cls-7" d="M660.91,329.81c-3,1.38-7.16,1.74-9.22-1.15.14-2.88,1.98-3.92,4.63-3.88,3.42.06,3.67,2.35,4.59,5.03Z"/>
        </g>
        <g>
          <path class="cls-4" d="M670.06,172.28c-.33,6.31-2.32-.3-16.89,8.23-5.32,3.11-6.94,9.66-7.2,15.71-.17,4.03-3.55,8.44-2.2,12.37,2.03,5.86,7.72,9.54,11.62,13.54.11,3.73-3.46,7.41-2.23,11.23,5.43,16.81,5.86,7.71,14.28,17.21,10.82,6.2,10.14,3.91,21-.63,4.51,3.17,9.63,7.66,15.51,7.65,2.34,0,6.5-.57,8.36-1.36-2.67,7.67-11.05,16.83-13.4,24.45-4.26,1.88-8.16,4.32-13.25,6.05l-59.27-53.42c1.01-3.76-4.32-21.41-12.84-20.88.34,5.97,4.66,9.05,5.45,13.76-2.59-2.85-7.37-4.51-9.89-8.17-6.69,3.17-12.28,5.12-18.69,5.08l-22.32-10.24-20.05-32.85c10.04.96,19.47-2.12,28.83-.22,5.01,1.01,8.46,7.14,13.51,7.81,2.09,1.88,1.14,5.12,2.81,7.54,2.14,3.11,7.2,4.54,10.46,6.39,9.05,5.15,9.9-7.24,20.78-1.34,8.76,4.74,19.9-7.6,20.5-14.91.32-3.91-3.58-7.14-2.93-10.81l5.14-6.93c3.8-.55,7.92-.38,11.66-2.89,1.99,5.48,6.39,7.67,11.26,7.65Z"/>
          <path class="cls-4" d="M637.78,91.05c-3.13,3.38-2.68,9.75-2.37,14.3l-9.86,6.52c-2.17,1.44-3.48,5.36-4.2,8.05-.98,3.66,1.61,7.34,1.38,11.1s-.71,6.92-.44,10.12l-2.04.37c-2.6-1.57-6.27-4.3-9.28-3.53-1.12-6.32-6.63-13.22-8.65-21.13l-3.29-29.8c3.28-10.37,6.71-20.45,11.46-30.52l20.37,18.43,6.92,16.09Z"/>
          <path class="cls-9" d="M596.5,146.21c-1.12,2.17-4.49,4.28-5.51,6.66-4.14,9.62,7.65,14.74-2.55,20.97-6.79-4.51-13.84-8.56-21.44-12.35l-17.75-24.3-4.5-30.14,28.03,8.54c5.76,7.23,10.38,14.76,17.17,20.88,3.18,2.87,5.66,5.7,6.56,9.76Z"/>
          <path class="cls-9" d="M714.11,128.99c-1.56-2.39-5.6-4.04-6.56-7.47,4.14-18.73,4.98-8.99-3.47-25.32-1.05-2.03-4.1-4.35-6.07-5.27l-9.33-4.37,4.99-19.52,18.43-21.17,12.94,25.18.75,33.18c-3.2,8.98-7.28,16.95-11.67,24.76Z"/>
          <path class="cls-9" d="M808.95,165.87c1.99-1.52,2.62-4.91,1.33-7.63-2.07-4.36.39-9.63-1.2-13.92-1.47-3.96-7.55-5.59-8.34-9.92l10.92-9.49c7.81-6.79,33.92-9.41,47.81-6.21-12.12,21.44-9.55,26.67-30.24,40.48-5.96,3.98-14.04,4.05-20.28,6.68Z"/>
          <path class="cls-9" d="M836.67,175.88c-3.86-.87-7.23-.96-10.33,1.21l-12.26,2.53c-8.37,7.88-15.91,16.21-21.71,26.28-.54.94-1.5,1.38-2.01,1.84.38.62.13,2.01,1.44,2.09.94.06,1.8-.89,2.63-.88,7.04.05,13.2,4.15,15.45,11.04,4.94-3.41,12.7-2.95,17.24-7.23l33.42-31.51-23.87-5.36Z"/>
          <path class="cls-4" d="M772.88,199.38c1.06-.05,1.8,1.21,1.91,2.1-9.61.27-8.37-.36-14.64,10.26-3.44,2.28-8.83,2.52-12.05,6.17-.07-3.72-.02-7.78-2.09-10.96,2.52-4.25,3.66-9.21,5.22-13.9,2.82-.53,5.51-2.5,8.5-2.59,3.47,4.86,7.67,9.19,13.15,8.92Z"/>
          <path class="cls-4" d="M714.21,168.62c.17-5.71,7.93-15.35,7.59-21.32l4.02-4.15c-.55,2.92-1.9,7.3-1.5,10.35.63,4.39,5.55,7.14,8.42,10.91-2.08-.19-4.18,3.65-6.13,4.17-4.29-1-8.37-1.13-12.4.04Z"/>
          <path class="cls-4" d="M721.8,147.31c.34,5.96-7.42,15.61-7.59,21.32-3.94-2.66-7.35-6.68-9.89-10.69,2.7-.6,6.19-3.62,6.18-6.33,4.09-.45,7.34-3.29,11.29-4.29Z"/>
          <path class="cls-4" d="M746,225.4c4.75,7.1-2.12,9.42.15,15.18,1.39,3.52,4.99,5.69,8.45,7.31.35,2.68.16,5.43.85,7.88l-56.54,24.89c2.35-7.63,10.73-16.78,13.4-24.45,10.39-4.42,9.72-3.27,14.36-16.51,5.54-.91,16.92-.48,16.05-8.33-.33-3.01,1.13-4.7,3.29-5.97Z"/>
          <path class="cls-4" d="M626.38,233.29c-2.57-2.31-5.05-4.55-7.39-7.12-.8-4.7-5.11-7.79-5.45-13.76,8.52-.53,13.85,17.11,12.84,20.88Z"/>
          <g>
            <path class="cls-5" d="M778.83,117.66c6.1,1.12,8.99,9.53,11,15.56l10.91,1.18c.79,4.33,6.87,5.96,8.34,9.92,1.59,4.29-.87,9.56,1.2,13.92,1.29,2.72.66,6.11-1.33,7.63l-9.96,7.57-1.06,13.51c-.16,2.03-4.68,2.78-5.94,5.07-3.05,5.58-10.49,2.6-19.11,7.35-5.48.28-9.68-4.06-13.15-8.92-2.99.09-5.68,2.06-8.5,2.59-1.98.37-3.85-.65-6.66-1.49-1.18,2.99-2.97,6.45-3.32,9.95-.3,3.01,3.69,3.82,4.75,5.44,2.07,3.18,2.02,7.24,2.09,10.96.05,2.44-1.62,5.17-2.1,7.49-2.15,1.27-3.62,2.95-3.29,5.97.86,7.85-10.51,7.42-16.05,8.33-4.64,13.24-3.97,12.09-14.36,16.51-1.86.79-6.03,1.36-8.36,1.36-5.88,0-11-4.49-15.51-7.65-10.86,4.55-10.18,6.83-21,.63-8.42-9.49-8.85-.4-14.28-17.21-1.23-3.81,2.34-7.5,2.23-11.23-3.89-3.99-9.59-7.67-11.62-13.54-1.36-3.92,2.03-8.33,2.2-12.37.26-6.05,1.88-12.6,7.2-15.71,14.57-8.53,16.56-1.92,16.89-8.23,2.36-4.25,6.15-9.49,10.32-12.71s22.87-1.41,23.95-1.65c2.53,4.02,5.94,8.03,9.89,10.69,4.03-1.17,8.11-1.05,12.4-.04,1.95-.52,4.05-4.36,6.13-4.17-2.87-3.77-7.79-6.52-8.42-10.91-.4-3.05.94-7.43,1.5-10.35.5-2.63,3.39-5.59,3.61-8.42,13.39-11.35,13.54-5.43,19.69-7.01,1.7-.44,1.46-2.69,2.48-3.67,3.11-2.95,6.52-5.68,9.75-8.14,6.34-.11,11.79,2.55,17.48,1.74ZM776.69,163.87c2.79-3.46,1.81-8.65-.66-11.98-2.25-3.04-6.65-4.32-11.23-3.39s-6.95,5.71-7.06,9.69c-.11,3.98,3.6,8.47,6.7,9.3,4.49,1.2,9.05.35,12.25-3.62ZM701.82,219.15c7.34-3.88,9.05-13.01,3.98-19.02-3.09-3.66-13.03-6.95-19.23,1.19-6.01,7.9.93,16.67,3.91,18.01,2.94,1.33,8.17,1.49,11.35-.19Z"/>
            <path class="cls-6" d="M701.82,219.15c-3.18,1.68-8.4,1.52-11.35.19-2.97-1.34-9.92-10.11-3.91-18.01,6.2-8.15,16.14-4.85,19.23-1.19,5.08,6.01,3.37,15.14-3.98,19.02Z"/>
          </g>
          <path class="cls-6" d="M776.69,163.87c-3.2,3.97-7.75,4.82-12.25,3.62-3.11-.83-6.82-5.33-6.7-9.3.11-3.98,2.61-8.79,7.06-9.69s8.98.35,11.23,3.39c2.47,3.33,3.44,8.52.66,11.98Z"/>
          <path class="cls-4" d="M751.24,193.05c-1.56,4.69-2.7,9.64-5.22,13.9-1.06-1.62-5.05-2.43-4.75-5.44.34-3.5,2.13-6.96,3.32-9.95,2.81.85,4.68,1.87,6.66,1.49Z"/>
          <g>
            <path class="cls-5" d="M613.12,165.58c4.66-2.7,8.47-.32,10.68,4,1.69,3.31.19,7.69-4.4,10.03-3,1.52-6.92.39-9.29-3.44-2.03-3.28-1.31-8.08,3.01-10.58Z"/>
            <g>
              <path class="cls-6" d="M688.67,86.56l9.33,4.37c1.97.92,5.02,3.24,6.07,5.27,8.45,16.33,7.61,6.6,3.47,25.32.97,3.43,5,5.08,6.56,7.47,4.32,6.61-3.63,15.34-3.6,22.6.01,2.71-3.48,5.73-6.18,6.33-1.08.24-19.78-1.57-23.95,1.65s-7.96,8.46-10.32,12.71c-4.88.02-9.27-2.17-11.26-7.65-3.73,2.51-7.86,2.34-11.66,2.89l-5.14,6.93c-.65,3.67,3.25,6.9,2.93,10.81-.6,7.31-11.74,19.65-20.5,14.91-10.88-5.89-11.73,6.49-20.78,1.34-3.26-1.85-8.32-3.28-10.46-6.39-1.67-2.42-.72-5.66-2.81-7.54-3.8-3.42-3.55-9.48-1.94-13.76,10.2-6.22-1.6-11.35,2.55-20.97,1.02-2.37,4.4-4.48,5.51-6.66,2.84.37,2.81-4.11,4.33-5.33,3.61-.44,7.63-.28,10.14-2.9,3.01-.77,6.69,1.96,9.28,3.53,1.89,1.14,2.26,4.64,4.13,5.96.57.4,2.52.09,2.15-.65-1.12-2.28-2.57-4.2-4.24-5.68-.27-3.21.22-6.47.44-10.12s-2.36-7.44-1.38-11.1c.72-2.69,2.03-6.61,4.2-8.05l9.86-6.52c-.31-4.54-.76-10.92,2.37-14.3l8.36-6.7c5.29-2.61,12.91-3.92,18.87-4.11,4.96.61,8.69,6.85,12.51,9.32l11.16-3ZM678.25,131.68c1.76-4.68,1.74-8.44-1.89-11.84-3.35-3.13-6.84-5.14-11.19-3.59-5.48,1.96-8.41,5.51-7.98,11.53.33,4.62,2.19,7.33,6.2,9.32,6.27,3.12,12.68.41,14.87-5.42ZM613.12,165.58c-4.32,2.5-5.04,7.31-3.01,10.58,2.37,3.84,6.29,4.97,9.29,3.44,4.6-2.34,6.1-6.72,4.4-10.03-2.21-4.33-6.03-6.7-10.68-4Z"/>
              <path class="cls-5" d="M678.25,131.68c-2.19,5.84-8.6,8.54-14.87,5.42-4.01-2-5.87-4.7-6.2-9.32-.43-6.02,2.51-9.58,7.98-11.53,4.36-1.55,7.85.45,11.19,3.59,3.63,3.4,3.65,7.16,1.89,11.84Z"/>
              <path class="cls-9" d="M622.29,141.14c1.67,1.47,3.13,3.4,4.24,5.68.36.74-1.59,1.05-2.15.65-1.88-1.32-2.25-4.82-4.13-5.96l2.04-.37Z"/>
            </g>
          </g>
          <g>
            <path class="cls-8" d="M790.36,207.73c.38.62.13,2.01,1.44,2.09.94.06,1.8-.89,2.63-.88,7.04.05,13.2,4.15,15.45,11.04,1.4,4.3-.15,9.86-3.67,12.35l1.92,5.2c1.35,3.65.13,9.4-4.48,11.27-1.72.7-3.51,1.04-4.46,2.19-.88,1.06-.03,2.75-.52,3.77-1.71,3.61-5.35,8.16-9.63,8.75l-9.08,1.26c-2.74.38-3.85-5.04-6.52-4.8-2.9.26-9.42,6.25-14.24-.57-1.05-1.49-2.59-2.77-3.75-3.63-.69-2.45-.5-5.2-.85-7.88-3.45-1.62-7.06-3.79-8.45-7.31-2.27-5.76,4.61-8.08-.15-15.18.48-2.32,2.15-5.06,2.1-7.49,3.22-3.65,8.61-3.9,12.05-6.17,6.27-10.62,5.02-9.99,14.64-10.26,3.4-.1,7.01-2.1,10.48.16,2.24,1.46,3.14,4.67,5.09,6.1ZM776.41,240.93c6.2,1.09,11.51-3.54,10.56-8.92-.89-5.04-4.58-7.64-9.42-7.28-3.24.24-6.55,3.08-7.23,7.4-.5,3.18,1.45,7.98,6.1,8.8Z"/>
            <path class="cls-9" d="M805.79,253.9c-2.33.58-4.74.67-7.13.87.49-1.03-.35-2.71.52-3.77.95-1.15,2.74-1.49,4.46-2.19,4.61-1.88,5.83-7.62,4.48-11.27,3.87.51,7.48,2.34,10.92,4.79l-8.53,8.27c-1.53,1.48-2.94,2.86-4.73,3.3Z"/>
            <path class="cls-2" d="M776.41,240.93c-4.65-.82-6.6-5.62-6.1-8.8.68-4.32,3.99-7.16,7.23-7.4,4.85-.36,8.53,2.24,9.42,7.28.95,5.38-4.36,10.01-10.56,8.92Z"/>
          </g>
        </g>
        <path class="cls-2" d="M660.89,329.83c3.21,9.35,6.65,18.62,9.32,28.14l-39.03-.46c.05-1.77,1.23-3.2,2.39-4.87l10.94-15.63c2.24-3.19,4.17-6.4,7.16-8.33,2.06,2.88,6.22,2.52,9.22,1.15Z"/>
      </g>
    </g>
  </g>
  </g>
</svg>