<svg xmlns="http://www.w3.org/2000/svg" viewBox="0 0 955.84 357.97" role="img" aria-label="Med Lily Series collection artwork">
  <rect width="955.84" height="357.97" rx="28" fill="#C9DDB1"/>
<g transform="translate(585 19)">
    <path d="M120 312 92 188l31-13 29 139Z" fill="#2A6B4B"/>
    <path d="m154 314 11-142 33 1-8 143Z" fill="#174C38"/>
    <path d="m188 313 49-126 31 17-46 120Z" fill="#2A6B4B"/>
    <path d="m112 204-61-59 25-24 56 70Z" fill="#3E805D"/>
    <path d="m180 194 48-82 29 20-55 73Z" fill="#3E805D"/>
    <path d="m233 225 69-49 18 31-73 36Z" fill="#174C38"/>
    <path d="m91 233-78-10 12-39 73 28Z" fill="#174C38"/>
    <path d="M79 312h176l-18 29H96Z" fill="#5077CF"/>
    <path d="M91 220h148l-13 94H105Z" fill="#F8DFC2"/>
    <path d="m94 230 143-8-11 28-121-2Z" fill="#E97E9F"/>
    <g transform="translate(26 22)">
      <path d="m106 81-58-61 53 16 15-34 18 35 52-13-42 55Z" fill="#FBF6EC"/>
      <path d="m113 75-27 47 34-22 27 24-7-46Z" fill="#F7C347"/>
      <circle cx="118" cy="72" r="8" fill="#D94F78"/>
      <path d="M118 79v70" stroke="#174C38" stroke-width="7" stroke-linecap="round"/>
    </g>
    <g transform="translate(128 58) scale(.9)">
      <path d="m106 81-58-61 53 16 15-34 18 35 52-13-42 55Z" fill="#F3A8BE"/>
      <path d="m113 75-27 47 34-22 27 24-7-46Z" fill="#F07198"/>
      <circle cx="118" cy="72" r="8" fill="#A84361"/>
      <path d="M118 79v70" stroke="#174C38" stroke-width="7" stroke-linecap="round"/>
    </g>
    <g transform="translate(52 126) scale(.72)">
      <path d="m106 81-58-61 53 16 15-34 18 35 52-13-42 55Z" fill="#5C75CB"/>
      <path d="m113 75-27 47 34-22 27 24-7-46Z" fill="#2D58B8"/>
      <circle cx="118" cy="72" r="8" fill="#F7C347"/>
      <path d="M118 79v70" stroke="#174C38" stroke-width="7" stroke-linecap="round"/>
    </g>
    <circle cx="274" cy="111" r="12" fill="#E85E83"/>
    <circle cx="302" cy="132" r="9" fill="#5077CF"/>
    <path d="m273 122-25 67m53-48-39 54" stroke="#174C38" stroke-width="6" stroke-linecap="round"/>
  </g>
</svg>
