<?xml version="1.0" encoding="UTF-8"?>
<svg id="Layer_2" data-name="Layer 2" xmlns="http://www.w3.org/2000/svg" viewBox="0 0 115.97 114.34">
  <defs>
    <style>
      .cls-1 {
        fill: #f0e6dd;
      }

      .cls-2 {
        fill: #f684b1;
      }
    </style>
  </defs>
  <g id="Layer_1-2" data-name="Layer 1">
    <g>
      <rect class="cls-2" x="0" y="0" width="115.97" height="114.34"/>
      <path class="cls-1" d="M56.53,93.14c-16.87,0-30.59-13.72-30.59-30.59s13.72-30.59,30.59-30.59,30.59,13.72,30.59,30.59-13.72,30.59-30.59,30.59ZM56.53,44.91c-9.73,0-17.64,7.92-17.64,17.64s7.92,17.64,17.64,17.64,17.64-7.92,17.64-17.64-7.92-17.64-17.64-17.64Z"/>
      <path class="cls-1" d="M91.12,34.53c-5.28,0-9.58-4.3-9.58-9.58s4.3-9.59,9.58-9.59,9.59,4.3,9.59,9.59-4.3,9.58-9.59,9.58Z"/>
    </g>
  </g>
</svg>