<?xml version="1.0" encoding="UTF-8"?>
<svg id="Layer_2" data-name="Layer 2" xmlns="http://www.w3.org/2000/svg" viewBox="0 0 115.97 114.34">
  <defs>
    <style>
      .cls-1 {
        fill: #f0e6dd;
      }

      .cls-2 {
        fill: #f684b1;
      }
    </style>
  </defs>
  <g id="Layer_1-2" data-name="Layer 1">
    <g>
      <path class="cls-2" d="M103.45,113.92l-90.81.42c-7.16.03-12.91-5.91-12.63-13.07L3.44,12.4C3.7,5.66,9.23.33,15.97.3L102.14,0c6.9-.02,12.53,5.51,12.62,12.41l1.21,88.76c.1,6.99-5.53,12.72-12.52,12.75Z"/>
      <path class="cls-1" d="M56.53,93.14c-16.87,0-30.59-13.72-30.59-30.59s13.72-30.59,30.59-30.59,30.59,13.72,30.59,30.59-13.72,30.59-30.59,30.59ZM56.53,44.91c-9.73,0-17.64,7.92-17.64,17.64s7.92,17.64,17.64,17.64,17.64-7.92,17.64-17.64-7.92-17.64-17.64-17.64Z"/>
      <path class="cls-1" d="M91.12,34.53c-5.28,0-9.58-4.3-9.58-9.58s4.3-9.59,9.58-9.59,9.59,4.3,9.59,9.59-4.3,9.58-9.59,9.58Z"/>
    </g>
  </g>
</svg>