<?xml version="1.0" encoding="UTF-8"?>
<svg id="Layer_2" data-name="Layer 2" xmlns="http://www.w3.org/2000/svg" viewBox="0 0 360.9 41.39">
  <g id="Layer_1-2" data-name="Layer 1">
    <g>
      <path d="M6.67,26.15c0,.39-.05,1.34-.15,2.86-.1,1.51-.15,2.49-.15,2.93,0,.2.01.64.04,1.32.02.68.04,1.22.04,1.61s-.01.87-.04,1.43c-.03.56-.04.92-.04,1.06-.1.64-.05,1.37.15,2.2l.22,1.17h-2.86c-1.91,0-2.91.12-3,.37,0,.1-.05.15-.15.15-.15,0-.31-.44-.48-1.32-.17-.88-.26-1.69-.26-2.42,0-.1.01-.22.04-.37.02-.15.04-.24.04-.29.1-.63.15-1.47.15-2.49l-.07-1.83v-15.87c0-1.98.01-3.62.04-4.91.02-1.29.04-1.97.04-2.02,0-1.27-.05-2.32-.15-3.15-.05-.39-.07-.85-.07-1.39,0-.78.19-1.56.59-2.35.34-.63.65-1.06.92-1.28.27-.22.79-.48,1.58-.77,1.12-.39,2-.59,2.64-.59.39,0,.88.07,1.47.22.39.1.71.15.95.15.44,0,.88-.07,1.32-.22.49-.1.83-.15,1.03-.15.44,0,.93.07,1.47.22.49.1.85.15,1.1.15.49,0,.95-.07,1.39-.22.44-.15.81-.22,1.1-.22.19,0,.73.1,1.61.29.59.15,1.07.22,1.47.22.34,0,.73-.07,1.17-.22.24-.1.68-.15,1.32-.15.73,0,1.42.1,2.05.29.63.2.95.42.95.66l-.07,1.1c-.05.73-.07,1.37-.07,1.91v2.49h-8.94l-8.87-.07.29.88c.1.49.15.95.15,1.39,0,.49-.04,1.19-.11,2.09-.07.9-.11,1.48-.11,1.72,0,.1.01.57.04,1.43.02.86.04,1.53.04,2.02,0,1.56.1,2.44.29,2.64.15.15.59.1,1.32-.15.63-.24,2.42-.73,5.35-1.47.59-.15,1.54-.37,2.86-.66,1.32-.29,2.37-.56,3.15-.81,1.22-.44,2.49-.66,3.81-.66.44,0,.66.05.66.15l-.15.15c-.15.1-.22.29-.22.59,0,.34.15,1.03.44,2.05.39,1.47.59,2.35.59,2.64,0,.39-.39.59-1.17.59-.54,0-1.42.21-2.64.62-1.22.42-2.13.62-2.71.62s-1.48.22-2.68.66c-1.2.44-2.04.66-2.53.66-.59,0-1.34.18-2.27.55-.93.37-1.71.57-2.35.62-.78.1-1.23.2-1.36.29-.12.1-.18.39-.18.88Z"/>
      <path d="M39.59,2.22c.68-1.32,1.15-1.98,1.39-1.98.05,0,.22.04.51.11.29.07.68.18,1.17.33.49.15.93.27,1.32.37,1.47.49,2.25.88,2.35,1.17,0,.29-.39,1.22-1.17,2.79-.59,1.22-1,2.71-1.25,4.47-.25,1.91-.73,3.66-1.47,5.28-.83,1.81-1.32,3.47-1.47,4.98-.15,1.52-.59,3-1.32,4.47-.78,1.61-1.2,3-1.25,4.18-.15,1.27-.59,2.66-1.32,4.18-.64,1.37-.95,2.15-.95,2.35,0,.05.22-.02.66-.22.63-.34,1.59-.51,2.86-.51.98,0,1.78.1,2.42.29,1.12.24,1.86.29,2.2.15.68-.34,1.61-.51,2.79-.51.59,0,1.27.1,2.05.29.78.2,1.27.29,1.47.29.15,0,.66-.1,1.54-.29.88-.19,1.39-.29,1.54-.29s.76.1,1.83.29c.78.2,1.37.29,1.76.29.1,0,.83-.17,2.2-.51l1.17-.22c-.05.68-.07,1.72-.07,3.12s-.03,2.43-.07,3.11l-1.61.44c-.64.2-1.22.29-1.76.29-.44,0-.98-.07-1.61-.22-1.12-.24-1.81-.37-2.05-.37-1.03.34-2.03.51-3,.51-.34,0-.81-.05-1.39-.15-.78-.19-1.39-.29-1.83-.29-.49,0-1.2.1-2.13.29-.59.15-1.12.22-1.61.22-.54,0-1.17-.1-1.91-.29-.73-.19-1.34-.29-1.83-.29-.39,0-.83.07-1.32.22-1.22.39-2.57.59-4.03.59-1.03,0-1.78-.12-2.27-.37-1.47-.73-2.37-2-2.71-3.81v-.44c0-1.86.71-4.06,2.13-6.6.59-1.03.88-2.05.88-3.08,0-2.15.56-3.96,1.69-5.42.34-.49.63-1.61.88-3.37.24-2.1.93-4.3,2.05-6.6.59-1.07.88-2.03.88-2.86,0-1.95.56-4.08,1.69-6.38Z"/>
      <path d="M101.22,1.38c.59-.15,1.61-.22,3.08-.22h.95c.44,0,.74.01.92.04.17.03.32.09.44.18.12.1.18.27.18.51,0,.34-.12,1.08-.37,2.2-.1.39-.15.93-.15,1.61,0,.73.1,1.59.29,2.57.19.98.29,2.26.29,3.05,0,.73-.05,1.32-.15,1.76-.1.64-.21,1.21-.33,1.72-.12.51-.18,1.32-.18,1.62,0,.34.07,1.1.22,2.27.19,1.47.29,2.27.29,2.42,0,.44-.12,1.03-.37,1.76-.34.93-.39,1.66-.15,2.2.15.44.22,1.27.22,2.49v.37c0,.59.07,1.09.22,1.5.15.42.41.92.81,1.5.39.59.61.95.66,1.1.19.39.46.7.81.92.34.22.76.43,1.25.62.49.2.88.39,1.17.59.59.44,1.34.66,2.27.66,1.03,0,2.03-.32,3-.95.73-.49,1.25-.73,1.54-.73.24,0,.51-.32.81-.95.24-.59.63-1.15,1.17-1.69.49-.44.73-1.37.73-2.79,0-.73.06-1.49.18-2.27.12-.78.18-1.34.18-1.69,0-.54-.1-1.17-.29-1.91-.2-.73-.29-1.37-.29-1.91,0-.49.07-1.17.22-2.05.15-.88.22-1.99.22-2.53,0-.59-.07-1.25-.22-1.98-.15-.73-.22-1.49-.22-2.27,0-.73.02-1.27.07-1.61.19-1.32.29-2.92.29-4,0-.83-.07-1.73-.22-2.71l-.29-1.69h6.16l.37,1.83c.15.68.22,1.85.22,2.68,0,.78-.03.94-.07,1.28-.15,1.32-.22,2.85-.22,3.78s.07,2.13.22,3.59c.05.29.07.68.07,1.17,0,.54-.06,1.61-.18,2.39-.12.78-.18,1.37-.18,1.76,0,.49.12,1.15.37,1.98.19.73.29,1.39.29,1.98s-.05,1.08-.15,1.47c-.24,1.08-.37,2.49-.37,4.25,0,1.61-.27,2.81-.81,3.59-.54.73-1.12,1.64-1.76,2.71-.64,1.03-1.15,1.75-1.54,2.16-.39.42-.95.77-1.69,1.06-1.08.54-1.81.95-2.2,1.25-.59.44-2.17.76-4.76.95-1.66.1-2.57.15-2.71.15-.78,0-1.61-.27-2.49-.81-1.32-.83-2.3-1.39-2.93-1.69-.98-.54-1.69-.99-2.13-1.36s-.83-.94-1.17-1.72c-.15-.34-.73-1.29-1.76-2.86-.68-.98-1.03-1.95-1.03-2.93v-.95c0-1.71-.07-3-.22-3.88-.05-.24-.07-.59-.07-1.03,0-.59.12-1.2.37-1.83.24-.63.37-1.15.37-1.54,0-.44-.07-1.05-.22-1.83-.15-.78-.22-1.47-.22-2.05,0-.73.1-1.97.29-2.9.24-1.22.37-2.03.37-2.42,0-.19-.1-.88-.29-2.05-.2-.93-.29-2.39-.29-3.56,0-2.64.37-4.08,1.1-4.32Z"/>
      <path d="M136.41,2.22c.78-1.12,2-1.69,3.66-1.69.73,0,1.49.15,2.27.44.59.24,1.05.37,1.39.37.15,0,.71-.1,1.69-.29.73-.15,1.49-.22,2.27-.22.59,0,1,.03,1.25.07,1.03.15,1.95.22,2.79.22.88,0,1.91-.07,3.08-.22.34-.05.78-.07,1.32-.07,1.22,0,2.37.54,3.44,1.61.98.98,1.76,1.61,2.35,1.91,1.42.83,2.22,2.15,2.42,3.96.1,1.03.32,1.83.66,2.42.29.59.44,1.37.44,2.35,0,1.12-.2,2.13-.59,3.01-.39.88-.66,1.66-.81,2.35-.29,1.61-1.32,2.69-3.08,3.22-.34.1-.87.29-1.58.59-.71.29-1.37.53-1.98.7-.61.17-1.21.26-1.8.26s-1.1-.1-1.54-.29c-.54-.24-1.12-.32-1.76-.22l-.88.22,1.03,1.91c.63,1.27,1.12,1.95,1.47,2.05.34.1.87.55,1.58,1.36.71.81,1.16,1.48,1.36,2.02.15.49.63,1,1.47,1.54.78.54,1.34,1.22,1.69,2.05.34.78.93,1.54,1.76,2.27l1.25,1.03-2.35,1.98c-1.37,1.17-2.22,1.76-2.57,1.76-.15,0-.37-.07-.66-.22-.49-.24-1.01-.72-1.58-1.43-.56-.71-.92-1.31-1.06-1.8-.15-.29-.64-.78-1.47-1.47-.73-.49-1.32-1.25-1.76-2.27-.39-.88-1.03-1.66-1.91-2.35-.93-.68-1.66-1.56-2.2-2.64-.39-.73-.75-1.28-1.06-1.65-.32-.37-.76-.77-1.32-1.21-.56-.44-1.06-.88-1.5-1.32-.83-.78-1.27-1.17-1.32-1.17s-.07.03-.07.07l.15.59c.15.49.22,1.12.22,1.91,0,.15-.01.9-.04,2.27-.03,1.37-.04,2.57-.04,3.59v3c0,.34.01.86.04,1.54.02.68.04,1.1.04,1.25,0,.88-.07,1.56-.22,2.05l-.22.88h-6.38l.22-1.1c.1-.34.15-1.05.15-2.13,0-.15-.01-.57-.04-1.28-.03-.71-.04-1.23-.04-1.58,0-2.25-.03-4.06-.07-5.42,0-1.22.1-2.03.29-2.42.19-.39.19-.83,0-1.32-.24-.49-.37-1.27-.37-2.35s.12-1.93.37-2.42c.19-.39.19-.83,0-1.32-.2-.49-.29-1.29-.29-2.42.05-1.22.07-3.35.07-6.38,0-2.39-.07-4.2-.22-5.42,0-.15-.01-.32-.04-.51-.03-.19-.04-.32-.04-.37,0-.63.22-1.25.66-1.83ZM152.46,7.35c-2.05,0-3.47-.1-4.25-.29-.1,0-.2-.01-.29-.04-.1-.02-.2-.04-.29-.04-.39,0-.95.09-1.69.26-.73.17-1.34.26-1.83.26-.68,0-1.09.06-1.21.18-.12.12-.28.57-.48,1.36-.1.68-.15,1.15-.15,1.39,0,.49.07,1.03.22,1.61s.22,1.12.22,1.61c0,.39-.07.83-.22,1.32-.25,1.08-.37,1.28-.37,1.43,0,.25.05.37.15.37.15,0,.41-.15.81-.44.54-.39,1.05-.18,1.54-.18.15,0,.76.05,1.83.15,1.86.2,2.86.34,3.01.44.29.2.76.2,1.39,0,.29-.15.88-.22,1.76-.22.15,0,.37.01.66.04.29.03.49.04.59.04.15,0,.32.01.51.04.19.03.37.04.51.04,2.15,0,3.37-.56,3.66-1.69.44-.98.66-1.54.66-1.69,0-.29-.1-.66-.29-1.1-.29-.88-.44-1.51-.44-1.91,0-.59-.24-1-.73-1.25-.39-.19-.88-.54-1.47-1.03-.49-.44-1.76-.66-3.81-.66Z"/>
      <path d="M180.3,1.42c1.27-.34,2.22-.51,2.86-.51.1,0,.23.01.4.04.17.03.3.04.4.04,1.27.1,1.98.15,2.13.15.54,0,1.17-.07,1.91-.22.15-.05.41-.07.81-.07.68,0,1.25.07,1.69.22l1.32.37v6.16l-1.32-.22c-.49-.1-1.05-.15-1.69-.15-.1,0-.56.03-1.39.07-.83.05-1.47.07-1.91.07-.54,0-.88-.02-1.03-.07-.39-.1-.68-.15-.88-.15-1.37,0-2.27.47-2.71,1.39-.29.64-.61,1.1-.95,1.39-.44.44-.66.88-.66,1.32,0,.73.51,1.59,1.54,2.57,1.03.93,1.81,1.39,2.35,1.39.88,0,2.1.64,3.66,1.91.39.29,1.05.59,1.98.88,1.22.34,2.31.97,3.26,1.87.95.9,2.19,2.48,3.7,4.73.54.83.81,1.83.81,3s-.2,2.08-.59,2.86c-.49,1.22-.76,2.08-.81,2.57-.25,1.22-.67,2.22-1.28,3.01-.61.78-1.67,1.64-3.19,2.57-1.37.83-2.28,1.32-2.75,1.47-.47.15-1.21.22-2.24.22h-6.74c-.49,0-1.14-.01-1.94-.04-.81-.02-1.26-.04-1.36-.04-.59,0-1.42.05-2.49.15l-1.54.22v-6.16l1.76-.37c.29-.05.78-.07,1.47-.07.49,0,1.22.04,2.2.11.98.07,1.71.11,2.2.11.63,0,1.1-.02,1.39-.07.63-.15,1.25-.22,1.83-.22.29,0,.78.05,1.47.15.68.1,1.07.15,1.17.15.44,0,1.15-.29,2.13-.88.83-.49,1.34-.85,1.54-1.1.19-.24.39-.73.59-1.47.34-1.27.59-2.05.73-2.35.1-.19.15-.37.15-.51,0-.29-.34-.85-1.03-1.69-.83-.98-1.25-1.56-1.25-1.76,0-.15-.56-.41-1.69-.81-1.22-.39-2.22-.85-3.01-1.39-.78-.54-1.69-.9-2.71-1.1-.98-.19-1.93-.76-2.86-1.69-1.17-1.07-1.98-1.73-2.42-1.98-.78-.49-1.32-1.16-1.61-2.02-.29-.85-.44-2.19-.44-3.99,0-1.61.1-2.75.29-3.41.19-.66.61-1.23,1.25-1.72.34-.19.73-.76,1.17-1.69.44-.88.95-1.54,1.54-1.98.59-.44,1.51-.85,2.79-1.25Z"/>
      <path d="M202.45,6.36V.5h25.58v5.86l-1.91.22c-1.47.1-2.86.15-4.18.15-1.12,0-1.83.09-2.13.26-.29.17-.44.65-.44,1.43,0,.39-.32,1.32-.95,2.79-.64,1.32-1.05,2.93-1.25,4.84-.2,1.91-.56,3.4-1.1,4.47-.64,1.22-1.03,2.74-1.17,4.54-.2,1.91-.56,3.4-1.1,4.47-.59,1.12-.98,2.64-1.17,4.54-.15,1.86-.56,3.49-1.25,4.91-.64,1.27-1.1,1.91-1.39,1.91s-1.23-.24-2.82-.73c-1.59-.49-2.38-.83-2.38-1.03,0-.29.27-1.07.81-2.35.68-1.42,1.05-2.91,1.1-4.47.15-1.71.51-3.25,1.1-4.62.68-1.37,1.03-2.57,1.03-3.59,0-2.44.54-4.52,1.61-6.23.44-.68.66-1.47.66-2.35,0-2.3.44-4.32,1.32-6.08.44-.93.73-1.61.88-2.05l.29-.81-2.86.07c-.2,0-.55.01-1.06.04-.51.03-.92.04-1.21.04-1.03,0-2.13-.05-3.3-.15l-2.71-.22Z"/>
      <path d="M252.68,1.27c.78-.39,1.54-.59,2.27-.59.1,0,.27.01.51.04.24.03.46.04.66.04,1.51.1,2.57.34,3.15.73,1.07.68,1.61,2.3,1.61,4.84,0,.68-.07,1.34-.22,1.98-.1.59-.15,1.05-.15,1.39,0,.44.05,1.09.15,1.94.1.86.15,1.5.15,1.94,0,.49-.03.86-.07,1.1-.1.34-.15.83-.15,1.47,0,.34.04.88.11,1.61.07.73.11,1.3.11,1.69,0,.34-.05.81-.15,1.39-.1.59-.15,1.05-.15,1.39,0,.44.05,1.05.15,1.83.1.78.15,1.39.15,1.83,0,.25-.05.71-.15,1.39-.1.59-.15,1.03-.15,1.32,0,.59.07,1.12.22,1.61.05.2.07.54.07,1.03,0,.34-.04.92-.11,1.72-.07.81-.11,1.41-.11,1.8,0,.44.02.78.07,1.03.1.29.15.76.15,1.39s-.05,1.15-.15,1.54l-.37,1.61h-3.15c-2.1,0-3.15-.07-3.15-.22s.12-.63.37-1.47c.1-.49.15-.85.15-1.1,0-.49-.07-1.05-.22-1.69-.15-.59-.22-1.07-.22-1.47,0-.44.07-.9.22-1.39.15-.49.22-.98.22-1.47,0-.39-.07-.85-.22-1.39-.1-.39-.15-.88-.15-1.47,0-.39.07-.88.22-1.47.05-.15.12-.39.22-.73.1-.34.15-.59.15-.73,0-.44-.39-.71-1.17-.81-.78-.1-2.64-.15-5.57-.15h-12.39l-.07,1.17c0,.68-.25,1.56-.73,2.64-.34.73-.51,1.37-.51,1.91,0,.15.05.51.15,1.1.05.29.07.76.07,1.39,0,.83-.05,1.44-.15,1.83-.1.59-.15.98-.15,1.17,0,.44.15,1.08.44,1.91.34.98.46,1.52.37,1.61-.1.1-.92.32-2.46.66-1.54.34-2.5.51-2.9.51s-.76-.44-1.1-1.32c-.29-.73-.44-2.39-.44-4.98,0-3.96.24-6.42.73-7.4.34-.68.56-1.66.66-2.93.15-1.71.68-3.13,1.61-4.25.49-.68.81-1.37.95-2.05.29-1.76.98-3,2.05-3.74.83-.68,1.39-1.34,1.69-1.98.44-.88.87-1.53,1.28-1.94s1.04-.84,1.87-1.28c.49-.19,1.43-.96,2.82-2.31,1.39-1.34,2.53-2.02,3.41-2.02.24,0,.88-.37,1.91-1.1.98-.73,1.95-1.17,2.93-1.32,1.03-.1,1.91-.37,2.64-.81ZM254.22,9.04c.1-.83.05-1.25-.15-1.25-1.51,0-2.66.29-3.44.88-.73.73-1.88,1.3-3.44,1.69-.59.15-1.27.66-2.05,1.54-.68.73-1.49,1.37-2.42,1.91-.68.39-1.3,1.01-1.83,1.87-.54.86-1,1.48-1.39,1.87l-1.25,1.32,7.99-.07c5.33,0,8.06-.07,8.21-.22.05,0,.06-.13.04-.4-.03-.27-.09-.52-.18-.77-.1-.49-.15-.83-.15-1.03,0-.34.07-.85.22-1.54.15-.59.22-1.05.22-1.39,0-.44-.07-.95-.22-1.54-.15-.54-.22-1.17-.22-1.91,0-.15.01-.32.04-.51.02-.19.04-.34.04-.44Z"/>
      <path d="M277.96,2.22c.68-1.32,1.15-1.98,1.39-1.98.05,0,.22.04.51.11.29.07.68.18,1.17.33.49.15.93.27,1.32.37,1.47.49,2.25.88,2.35,1.17,0,.29-.39,1.22-1.17,2.79-.59,1.22-1,2.71-1.25,4.47-.25,1.91-.73,3.66-1.47,5.28-.83,1.81-1.32,3.47-1.47,4.98-.15,1.52-.59,3-1.32,4.47-.78,1.61-1.2,3-1.25,4.18-.15,1.27-.59,2.66-1.32,4.18-.64,1.37-.95,2.15-.95,2.35,0,.05.22-.02.66-.22.63-.34,1.59-.51,2.86-.51.98,0,1.78.1,2.42.29,1.12.24,1.86.29,2.2.15.68-.34,1.61-.51,2.79-.51.59,0,1.27.1,2.05.29.78.2,1.27.29,1.47.29.15,0,.66-.1,1.54-.29.88-.19,1.39-.29,1.54-.29s.76.1,1.83.29c.78.2,1.37.29,1.76.29.1,0,.83-.17,2.2-.51l1.17-.22c-.05.68-.07,1.72-.07,3.12s-.03,2.43-.07,3.11l-1.61.44c-.64.2-1.22.29-1.76.29-.44,0-.98-.07-1.61-.22-1.12-.24-1.81-.37-2.05-.37-1.03.34-2.03.51-3,.51-.34,0-.81-.05-1.39-.15-.78-.19-1.39-.29-1.83-.29-.49,0-1.2.1-2.13.29-.59.15-1.12.22-1.61.22-.54,0-1.17-.1-1.91-.29-.73-.19-1.34-.29-1.83-.29-.39,0-.83.07-1.32.22-1.22.39-2.57.59-4.03.59-1.03,0-1.78-.12-2.27-.37-1.47-.73-2.37-2-2.71-3.81v-.44c0-1.86.71-4.06,2.13-6.6.59-1.03.88-2.05.88-3.08,0-2.15.56-3.96,1.69-5.42.34-.49.63-1.61.88-3.37.24-2.1.93-4.3,2.05-6.6.59-1.07.88-2.03.88-2.86,0-1.95.56-4.08,1.69-6.38Z"/>
      <path d="M322.13,21.61c-.54,0-1.39.21-2.57.62-1.17.42-2.03.62-2.57.62-.64,0-1.34.2-2.13.59-.68.34-1.61.56-2.79.66-.73.05-1.21.13-1.43.26-.22.12-.28.33-.18.62.05.2.07.52.07,1.79,0,1.47-.03,2.08-.07,2.67,0,.2.04.77.11,1.72.07.95.11,1.29.11,1.83s-.05.59-.15.99l-.29.88,7.26.07h4.36c.61,0,1.16.01,1.65.04.49.03.88.04,1.17.04h.51s.16-.01.33-.04c.17-.02.38-.06.62-.11.24-.05.46-.07.66-.07l1.25-.15c.05.68.07,1.7.07,3.04s.02,2.36.07,3.04l-1.39.37c-.78.2-1.3.29-1.54.29-.34,0-.73-.07-1.17-.22-.29-.1-.76-.15-1.39-.15-.59,0-1.08.05-1.47.15-.59.1-.98.15-1.17.15-.34,0-.83-.05-1.47-.15-.64-.1-1.1-.15-1.39-.15-.2,0-.59.05-1.17.15-.24.1-.61.15-1.1.15-.34,0-.79-.05-1.36-.15-.56-.1-.99-.15-1.28-.15-.2,0-.54.05-1.03.15-.39.1-.78.15-1.17.15-2,0-3.49-.49-4.47-1.47-.98-.98-1.47-2.54-1.47-4.69,0-.34.05-.85.15-1.54.1-.59.15-.62.15-.91,0-.39-.05-.58-.15-1.39-.1-.81-.15-1.4-.15-1.8,0-.29.05-.33.15-.91.15-.59.22-1.1.22-1.54,0-.39-.07-.42-.22-.91-.1-.34-.15-.81-.15-1.39,0-.68.05-1.22.15-1.61.1-.68.15-1.15.15-1.39,0-.34-.05-.84-.15-1.5-.1-.66-.15-1.21-.15-1.65v-.66c.1-.63.15-1.44.15-2.42,0-.1-.01-.49-.04-1.17-.03-.68-.04-1.25-.04-1.69s.01-1.01.04-1.72c.02-.71.04-.75.04-.95,0-1.17-.03-1.67-.07-2.3,0-.05-.01-.17-.04-.37-.03-.19-.04-.34-.04-.44,0-.98.13-2,.4-3.08.27-1.07.57-1.78.92-2.13.44-.44,1.15-.81,2.13-1.1.98-.39,1.73-.59,2.27-.59.49,0,1.03.1,1.61.29.49.1.85.15,1.1.15.29,0,.78-.04,1.47-.11.68-.07,1.17-.11,1.47-.11.44,0,.78.03,1.03.07.24.05.59.07,1.03.07.29,0,.78-.04,1.47-.11.68-.07,1.17-.11,1.47-.11.24,0,.61.05,1.1.15.29.1.68.15,1.17.15.54,0,.93-.05,1.17-.15.49-.1.88-.15,1.17-.15.68,0,1.32.1,1.91.29.59.2.88.42.88.66,0,.05-.01.24-.04.59-.03.34-.05.76-.07,1.25-.03.49-.04.95-.04,1.39v2.64l-1.17-.29c-.39-.1-.71-.15-.95-.15-.39,0-.86.07-1.39.22-.49.1-.86.15-1.1.15-.29,0-.78-.05-1.47-.15-.68-.1-1.17-.15-1.47-.15-.25,0-.61.05-1.1.15-.49.1-.86.15-1.1.15-.34,0-.84-.05-1.5-.15-.66-.1-1.14-.15-1.43-.15-.25,0-.61.05-1.1.15-.29.1-.71.15-1.25.15s-.95-.05-1.25-.15c-.44-.15-.78-.22-1.03-.22s-.37.1-.37.29c0,.1.02.22.07.37.05.15.1.33.15.55.05.22.1.43.15.62.19.98.29,1.18.29,1.43,0,.44-.07.57-.22,1.21-.15.73-.22,1.32-.22,1.76,0,.29.05.73.15,1.32.15.49.22,1.15.22,1.98v.66c-.1.64-.12,1.03-.07,1.17.05.15.22.22.51.22.24,0,.76-.17,1.54-.51.49-.19,1.31-.41,2.46-.66,1.15-.24,1.94-.44,2.38-.59s1.36-.35,2.75-.62c1.39-.27,2.31-.5,2.75-.7.73-.29,1.69-.49,2.86-.59h1.69c-.1.05-.15.2-.15.44,0,.49.12,1.17.37,2.05.39,1.66.59,2.59.59,2.79,0,.39-.34.59-1.03.59-.49,0-1.33.22-2.53.66-1.2.44-2.09.66-2.68.66Z"/>
      <path d="M84.73,21.61c-.54,0-1.39.21-2.57.62-1.17.42-2.03.62-2.57.62-.64,0-1.34.2-2.13.59-.68.34-1.61.56-2.79.66-.73.05-1.21.13-1.43.26-.22.12-.28.33-.18.62.05.2.07.52.07,1.79,0,1.47-.03,2.08-.07,2.67,0,.2.04.77.11,1.72.07.95.11,1.29.11,1.83s-.05.59-.15.99l-.29.88,7.26.07h4.36c.61,0,1.16.01,1.65.04.49.03.88.04,1.17.04h.51s.16-.01.33-.04c.17-.02.38-.06.62-.11.24-.05.46-.07.66-.07l1.25-.15c.05.68.07,1.7.07,3.04s.02,2.36.07,3.04l-1.39.37c-.78.2-1.3.29-1.54.29-.34,0-.73-.07-1.17-.22-.29-.1-.76-.15-1.39-.15-.59,0-1.08.05-1.47.15-.59.1-.98.15-1.17.15-.34,0-.83-.05-1.47-.15-.64-.1-1.1-.15-1.39-.15-.2,0-.59.05-1.17.15-.24.1-.61.15-1.1.15-.34,0-.79-.05-1.36-.15-.56-.1-.99-.15-1.28-.15-.2,0-.54.05-1.03.15-.39.1-.78.15-1.17.15-2,0-3.49-.49-4.47-1.47-.98-.98-1.47-2.54-1.47-4.69,0-.34.05-.85.15-1.54.1-.59.15-.62.15-.91,0-.39-.05-.58-.15-1.39-.1-.81-.15-1.4-.15-1.8,0-.29.05-.33.15-.91.15-.59.22-1.1.22-1.54,0-.39-.07-.42-.22-.91-.1-.34-.15-.81-.15-1.39,0-.68.05-1.22.15-1.61.1-.68.15-1.15.15-1.39,0-.34-.05-.84-.15-1.5-.1-.66-.15-1.21-.15-1.65v-.66c.1-.63.15-1.44.15-2.42,0-.1-.01-.49-.04-1.17-.03-.68-.04-1.25-.04-1.69s.01-1.01.04-1.72c.02-.71.04-.75.04-.95,0-1.17-.03-1.67-.07-2.3,0-.05-.01-.17-.04-.37-.03-.19-.04-.34-.04-.44,0-.98.13-2,.4-3.08.27-1.07.57-1.78.92-2.13.44-.44,1.15-.81,2.13-1.1.98-.39,1.73-.59,2.27-.59.49,0,1.03.1,1.61.29.49.1.85.15,1.1.15.29,0,.78-.04,1.47-.11.68-.07,1.17-.11,1.47-.11.44,0,.78.03,1.03.07.24.05.59.07,1.03.07.29,0,.78-.04,1.47-.11.68-.07,1.17-.11,1.47-.11.24,0,.61.05,1.1.15.29.1.68.15,1.17.15.54,0,.93-.05,1.17-.15.49-.1.88-.15,1.17-.15.68,0,1.32.1,1.91.29.59.2.88.42.88.66,0,.05-.01.24-.04.59-.03.34-.05.76-.07,1.25-.03.49-.04.95-.04,1.39v2.64l-1.17-.29c-.39-.1-.71-.15-.95-.15-.39,0-.86.07-1.39.22-.49.1-.86.15-1.1.15-.29,0-.78-.05-1.47-.15-.68-.1-1.17-.15-1.47-.15-.25,0-.61.05-1.1.15-.49.1-.86.15-1.1.15-.34,0-.84-.05-1.5-.15-.66-.1-1.14-.15-1.43-.15-.25,0-.61.05-1.1.15-.29.1-.71.15-1.25.15s-.95-.05-1.25-.15c-.44-.15-.78-.22-1.03-.22s-.37.1-.37.29c0,.1.02.22.07.37.05.15.1.33.15.55.05.22.1.43.15.62.19.98.29,1.18.29,1.43,0,.44-.07.57-.22,1.21-.15.73-.22,1.32-.22,1.76,0,.29.05.73.15,1.32.15.49.22,1.15.22,1.98v.66c-.1.64-.12,1.03-.07,1.17.05.15.22.22.51.22.24,0,.76-.17,1.54-.51.49-.19,1.31-.41,2.46-.66,1.15-.24,1.94-.44,2.38-.59s1.36-.35,2.75-.62c1.39-.27,2.31-.5,2.75-.7.73-.29,1.69-.49,2.86-.59h1.69c-.1.05-.15.2-.15.44,0,.49.12,1.17.37,2.05.39,1.66.59,2.59.59,2.79,0,.39-.34.59-1.03.59-.49,0-1.33.22-2.53.66-1.2.44-2.09.66-2.68.66Z"/>
      <path d="M344.63,1.42c1.27-.34,2.22-.51,2.86-.51.1,0,.23.01.4.04.17.03.3.04.4.04,1.27.1,1.98.15,2.13.15.54,0,1.17-.07,1.91-.22.15-.05.41-.07.81-.07.68,0,1.25.07,1.69.22l1.32.37v6.16l-1.32-.22c-.49-.1-1.05-.15-1.69-.15-.1,0-.56.03-1.39.07-.83.05-1.47.07-1.91.07-.54,0-.88-.02-1.03-.07-.39-.1-.68-.15-.88-.15-1.37,0-2.27.47-2.71,1.39-.29.64-.61,1.1-.95,1.39-.44.44-.66.88-.66,1.32,0,.73.51,1.59,1.54,2.57,1.03.93,1.81,1.39,2.35,1.39.88,0,2.1.64,3.66,1.91.39.29,1.05.59,1.98.88,1.22.34,2.31.97,3.26,1.87.95.9,2.19,2.48,3.7,4.73.54.83.81,1.83.81,3s-.2,2.08-.59,2.86c-.49,1.22-.76,2.08-.81,2.57-.25,1.22-.67,2.22-1.28,3.01-.61.78-1.67,1.64-3.19,2.57-1.37.83-2.28,1.32-2.75,1.47-.47.15-1.21.22-2.24.22h-6.74c-.49,0-1.14-.01-1.94-.04-.81-.02-1.26-.04-1.36-.04-.59,0-1.42.05-2.49.15l-1.54.22v-6.16l1.76-.37c.29-.05.78-.07,1.47-.07.49,0,1.22.04,2.2.11.98.07,1.71.11,2.2.11.63,0,1.1-.02,1.39-.07.63-.15,1.25-.22,1.83-.22.29,0,.78.05,1.47.15.68.1,1.07.15,1.17.15.44,0,1.15-.29,2.13-.88.83-.49,1.34-.85,1.54-1.1.19-.24.39-.73.59-1.47.34-1.27.59-2.05.73-2.35.1-.19.15-.37.15-.51,0-.29-.34-.85-1.03-1.69-.83-.98-1.25-1.56-1.25-1.76,0-.15-.56-.41-1.69-.81-1.22-.39-2.22-.85-3.01-1.39-.78-.54-1.69-.9-2.71-1.1-.98-.19-1.93-.76-2.86-1.69-1.17-1.07-1.98-1.73-2.42-1.98-.78-.49-1.32-1.16-1.61-2.02-.29-.85-.44-2.19-.44-3.99,0-1.61.1-2.75.29-3.41.19-.66.61-1.23,1.25-1.72.34-.19.73-.76,1.17-1.69.44-.88.95-1.54,1.54-1.98.59-.44,1.51-.85,2.79-1.25Z"/>
    </g>
  </g>
</svg>