<?xml version="1.0" encoding="UTF-8"?>
<svg id="Layer_2" data-name="Layer 2" xmlns="http://www.w3.org/2000/svg" viewBox="0 0 60.35 68.46">
  <defs>
    <style>
      .cls-1 {
        stroke-width: 13.03px;
      }

      .cls-1, .cls-2 {
        stroke: #057640;
      }

      .cls-1, .cls-2, .cls-3, .cls-4, .cls-5, .cls-6 {
        fill: none;
        stroke-miterlimit: 10;
      }

      .cls-2 {
        stroke-width: 12.06px;
      }

      .cls-3 {
        stroke-width: 11.95px;
      }

      .cls-3, .cls-4, .cls-5, .cls-6 {
        stroke: #f684b1;
      }

      .cls-4 {
        stroke-width: 17.28px;
      }

      .cls-5 {
        stroke-width: 14.39px;
      }

      .cls-6 {
        stroke-width: 14.14px;
      }
    </style>
  </defs>
  <g id="Layer_1-2" data-name="Layer 1">
    <g>
      <g>
        <line class="cls-1" x1="29.82" y1="68.46" x2="29.82" y2="45.53"/>
        <path class="cls-2" d="M31.02,51.44c2.1.66,6.19,1.61,11.19.7,3.55-.65,6.24-2,7.93-3.03"/>
        <path class="cls-2" d="M28.92,51.62c-2.1.66-6.19,1.61-11.19.7-3.55-.65-6.24-2-7.93-3.03"/>
      </g>
      <g>
        <path class="cls-5" d="M30.98,41.21c1.68.47,5.75,1.35,10.16-.18,4.86-1.69,7.22-5.3,8.56-7.35,6.99-10.7,1.36-24.84.38-27.2"/>
        <path class="cls-6" d="M29.22,41.24c-1.61.53-5.5,1.56-9.82.18-4.76-1.52-7.16-5.04-8.53-7.04-7.13-10.45-2.2-24.77-1.34-27.17"/>
        <path class="cls-4" d="M29.58,36.17c3.57-.43,5.57-1.82,6.61-2.79,5.12-4.7,4.1-18.67-1.95-29.03"/>
        <path class="cls-4" d="M30.86,36.15c-3.58-.3-5.63-1.62-6.71-2.54-5.29-4.51-4.65-18.47,1.01-29.05"/>
        <line class="cls-3" x1="29.57" y1="45.21" x2="30.06" y2="11.3"/>
      </g>
    </g>
  </g>
</svg>