<?xml version="1.0" encoding="UTF-8"?>
<svg id="Layer_2" data-name="Layer 2" xmlns="http://www.w3.org/2000/svg" viewBox="0 0 115.82 113.58">
  <defs>
    <style>
      .cls-1 {
        fill: #f0e6dd;
      }

      .cls-2 {
        fill: #f684b1;
      }
    </style>
  </defs>
  <g id="Layer_1-2" data-name="Layer 1">
    <g>
      <path class="cls-2" d="M103.49,1.77L12.83,0C5.59-.14-.27,5.84,0,13.07l3.42,88.42c.26,6.84,5.95,12.21,12.79,12.09l84.26-1.48c6.69-.12,12.12-5.45,12.35-12.14l2.98-85.17c.25-7.02-5.3-12.88-12.33-13.02Z"/>
      <path class="cls-1" d="M50.06,94.5c-12.1-.64-22-10.55-22.65-22.65-.74-13.82,10.29-25.29,23.95-25.29v12.95c-6.19,0-11.21,5.13-11.03,11.36.16,5.75,4.96,10.55,10.71,10.71,6.23.18,11.36-4.84,11.36-11.03V21.04h12.95c.06,2.63,1.25,11.44,13.94,11.44v12.95c-5.74,0-10.32-1.19-13.94-3.08v28.19c0,13.66-11.47,24.69-25.29,23.95Z"/>
    </g>
  </g>
</svg>